M48
; DRILL file {KiCad (5.1.9)-1} date 05/17/21 19:39:59
; FORMAT={-:-/ absolute / metric / decimal}
; #@! TF.CreationDate,2021-05-17T19:39:59-07:00
; #@! TF.GenerationSoftware,Kicad,Pcbnew,(5.1.9)-1
; #@! TF.FileFunction,Plated,1,4,PTH
FMAT,2
METRIC
T1C0.400
T2C1.000
T3C2.700
%
G90
G05
T1
X70.688Y-42.304
X70.688Y-44.704
X70.688Y-47.193
X70.701Y-49.136
X70.726Y-32.791
X70.726Y-35.865
X70.726Y-39.116
X70.726Y-53.962
X70.764Y-56.655
X70.777Y-51.473
X71.713Y-52.332
X72.163Y-53.316
X72.613Y-54.316
X73.063Y-55.308
X74.513Y-45.121
X74.513Y-48.565
X74.659Y-47.549
X74.773Y-41.465
X75.109Y-50.699
X75.233Y-44.418
X75.25Y-35.096
X75.269Y-53.803
X75.27Y-38.234
X76.149Y-62.535
X76.835Y-31.382
X77.592Y-57.713
X78.892Y-46.876
X79.236Y-55.369
X79.308Y-54.371
X79.31Y-42.251
X79.332Y-39.152
X79.337Y-40.173
X79.338Y-38.121
X79.343Y-53.372
X79.35Y-58.471
X79.354Y-41.181
X79.375Y-62.522
X80.175Y-56.369
X80.302Y-44.907
X80.366Y-32.728
X80.378Y-35.89
X80.9Y-58.395
X81.585Y-42.329
X81.675Y-50.453
X81.775Y-56.369
X81.966Y-44.336
X84.074Y-31.318
X85.611Y-58.026
X85.623Y-46.812
X85.623Y-50.013
X85.687Y-56.21
X85.7Y-43.726
X85.903Y-37.452
X85.928Y-34.277
X86.639Y-40.678
X87.338Y-48.946
X87.554Y-42.723
X87.554Y-45.301
X87.719Y-32.817
X87.744Y-34.404
X87.77Y-38.176
X88.443Y-57.747
X89.061Y-47.765
X89.162Y-41.516
X89.312Y-43.491
X89.511Y-50.713
X89.629Y-53.839
X89.655Y-38.226
X89.656Y-35.053
X91.237Y-31.42
X91.91Y-57.467
X93.805Y-37.816
X93.835Y-39.852
X93.846Y-38.815
X93.851Y-36.817
X93.861Y-40.851
X94.012Y-53.947
X94.158Y-46.584
X94.526Y-54.805
X94.742Y-44.209
X95.11Y-32.715
X95.136Y-35.692
X95.251Y-55.62
X95.376Y-56.618
X95.458Y-41.305
X96.226Y-57.144
X96.342Y-44.094
X98.162Y-57.181
X98.45Y-31.369
X99.162Y-57.188
X99.174Y-58.763
X100.114Y-43.701
X100.165Y-46.825
X100.203Y-34.303
X100.203Y-40.665
X100.711Y-53.505
X100.736Y-37.478
X100.947Y-42.28
X101.219Y-48.285
X101.689Y-49.962
X102.083Y-33.833
X103.213Y-45.441
X103.251Y-54.61
X103.932Y-47.524
X104.047Y-41.203
X104.127Y-44.476
X104.214Y-38.169
X104.287Y-53.685
X104.304Y-50.561
X104.31Y-34.897
X105.855Y-31.394
X106.604Y-57.201
X107.733Y-56.109
X107.775Y-48.4
X107.925Y-42.139
X108.458Y-57.683
X108.826Y-44.259
X109.395Y-54.254
X109.537Y-35.852
X109.546Y-38.261
X109.553Y-40.305
X109.553Y-39.28
X109.554Y-41.329
X109.585Y-37.217
X109.626Y-32.766
X110.071Y-57.721
X110.122Y-54.94
X110.374Y-42.95
X111.023Y-46.291
X111.025Y-50.032
X111.173Y-51.021
X111.372Y-56.23
X111.442Y-34.341
X111.468Y-48.692
X111.72Y-44.338
X113.322Y-31.369
X113.983Y-58.75
X114.008Y-57.201
X114.922Y-46.787
X114.973Y-37.478
X115.024Y-49.974
X115.252Y-40.627
X115.534Y-55.131
X116.167Y-53.823
X117.056Y-32.664
X117.056Y-48.323
X117.069Y-45.161
X117.081Y-35.776
X117.081Y-42.126
X117.107Y-37.536
X118.224Y-55.067
X118.619Y-47.434
X118.72Y-41.193
X118.787Y-53.824
X118.918Y-44.239
X118.933Y-50.538
X118.939Y-38.067
X120.434Y-31.382
X121.247Y-57.302
X122.123Y-34.29
X122.682Y-48.108
X122.86Y-58.967
X123.495Y-44.12
X124.026Y-56.296
X124.076Y-41.488
X124.244Y-34.734
X124.419Y-37.42
X124.423Y-38.44
X124.439Y-39.45
X124.462Y-40.452
X124.65Y-35.941
X124.676Y-32.855
X124.879Y-44.615
X125.149Y-56.966
X125.552Y-43.409
X125.705Y-45.377
X125.836Y-50.993
X125.926Y-53.668
X126.072Y-55.969
X126.149Y-56.966
X127.114Y-62.509
X127.533Y-31.369
X129.299Y-46.85
X129.299Y-53.149
X129.311Y-50.051
X129.337Y-40.678
X129.4Y-43.764
X129.484Y-49.066
X129.515Y-37.529
X132.27Y-31.458
X132.27Y-35.662
X132.27Y-40.348
X132.27Y-44.945
X132.27Y-53.086
X132.296Y-57.442
X132.309Y-49.212
T2
X85.115Y-61.303
X87.655Y-61.303
X90.195Y-61.303
X92.735Y-61.303
X95.275Y-61.303
X97.815Y-61.303
X100.355Y-61.303
X102.895Y-61.303
X105.435Y-61.303
X107.975Y-61.303
X110.515Y-61.303
X113.055Y-61.303
X115.595Y-61.303
X118.135Y-61.303
T3
X72.504Y-60.846
X130.696Y-60.846
T0
M30
