%TF.GenerationSoftware,KiCad,Pcbnew,(5.1.9)-1*%
%TF.CreationDate,2021-05-17T19:38:57-07:00*%
%TF.ProjectId,ShiftRegBoard,53686966-7452-4656-9742-6f6172642e6b,rev?*%
%TF.SameCoordinates,Original*%
%TF.FileFunction,Soldermask,Bot*%
%TF.FilePolarity,Negative*%
%FSLAX46Y46*%
G04 Gerber Fmt 4.6, Leading zero omitted, Abs format (unit mm)*
G04 Created by KiCad (PCBNEW (5.1.9)-1) date 2021-05-17 19:38:57*
%MOMM*%
%LPD*%
G01*
G04 APERTURE LIST*
%ADD10R,1.570000X0.410000*%
%ADD11C,4.700000*%
%ADD12R,1.700000X1.700000*%
%ADD13O,1.700000X1.700000*%
%ADD14R,0.900000X0.500000*%
G04 APERTURE END LIST*
D10*
%TO.C,U7*%
X127202800Y-41071800D03*
X127202800Y-40421800D03*
X127202800Y-39771800D03*
X127202800Y-39121800D03*
X127202800Y-38471800D03*
X127202800Y-37821800D03*
X127202800Y-37171800D03*
X127202800Y-36521800D03*
X121462800Y-36521800D03*
X121462800Y-37171800D03*
X121462800Y-37821800D03*
X121462800Y-38471800D03*
X121462800Y-39121800D03*
X121462800Y-39771800D03*
X121462800Y-40421800D03*
X121462800Y-41071800D03*
%TD*%
%TO.C,U1*%
X83248100Y-41022700D03*
X83248100Y-40372700D03*
X83248100Y-39722700D03*
X83248100Y-39072700D03*
X83248100Y-38422700D03*
X83248100Y-37772700D03*
X83248100Y-37122700D03*
X83248100Y-36472700D03*
X77508100Y-36472700D03*
X77508100Y-37122700D03*
X77508100Y-37772700D03*
X77508100Y-38422700D03*
X77508100Y-39072700D03*
X77508100Y-39722700D03*
X77508100Y-40372700D03*
X77508100Y-41022700D03*
%TD*%
%TO.C,U2*%
X83133800Y-54281500D03*
X83133800Y-53631500D03*
X83133800Y-52981500D03*
X83133800Y-52331500D03*
X83133800Y-51681500D03*
X83133800Y-51031500D03*
X83133800Y-50381500D03*
X83133800Y-49731500D03*
X77393800Y-49731500D03*
X77393800Y-50381500D03*
X77393800Y-51031500D03*
X77393800Y-51681500D03*
X77393800Y-52331500D03*
X77393800Y-52981500D03*
X77393800Y-53631500D03*
X77393800Y-54281500D03*
%TD*%
%TO.C,U3*%
X97637200Y-41021000D03*
X97637200Y-40371000D03*
X97637200Y-39721000D03*
X97637200Y-39071000D03*
X97637200Y-38421000D03*
X97637200Y-37771000D03*
X97637200Y-37121000D03*
X97637200Y-36471000D03*
X91897200Y-36471000D03*
X91897200Y-37121000D03*
X91897200Y-37771000D03*
X91897200Y-38421000D03*
X91897200Y-39071000D03*
X91897200Y-39721000D03*
X91897200Y-40371000D03*
X91897200Y-41021000D03*
%TD*%
%TO.C,U4*%
X97535600Y-54267100D03*
X97535600Y-53617100D03*
X97535600Y-52967100D03*
X97535600Y-52317100D03*
X97535600Y-51667100D03*
X97535600Y-51017100D03*
X97535600Y-50367100D03*
X97535600Y-49717100D03*
X91795600Y-49717100D03*
X91795600Y-50367100D03*
X91795600Y-51017100D03*
X91795600Y-51667100D03*
X91795600Y-52317100D03*
X91795600Y-52967100D03*
X91795600Y-53617100D03*
X91795600Y-54267100D03*
%TD*%
%TO.C,U5*%
X112521600Y-41071800D03*
X112521600Y-40421800D03*
X112521600Y-39771800D03*
X112521600Y-39121800D03*
X112521600Y-38471800D03*
X112521600Y-37821800D03*
X112521600Y-37171800D03*
X112521600Y-36521800D03*
X106781600Y-36521800D03*
X106781600Y-37171800D03*
X106781600Y-37821800D03*
X106781600Y-38471800D03*
X106781600Y-39121800D03*
X106781600Y-39771800D03*
X106781600Y-40421800D03*
X106781600Y-41071800D03*
%TD*%
%TO.C,U6*%
X112407300Y-54317900D03*
X112407300Y-53667900D03*
X112407300Y-53017900D03*
X112407300Y-52367900D03*
X112407300Y-51717900D03*
X112407300Y-51067900D03*
X112407300Y-50417900D03*
X112407300Y-49767900D03*
X106667300Y-49767900D03*
X106667300Y-50417900D03*
X106667300Y-51067900D03*
X106667300Y-51717900D03*
X106667300Y-52367900D03*
X106667300Y-53017900D03*
X106667300Y-53667900D03*
X106667300Y-54317900D03*
%TD*%
%TO.C,U8*%
X127113900Y-54317900D03*
X127113900Y-53667900D03*
X127113900Y-53017900D03*
X127113900Y-52367900D03*
X127113900Y-51717900D03*
X127113900Y-51067900D03*
X127113900Y-50417900D03*
X127113900Y-49767900D03*
X121373900Y-49767900D03*
X121373900Y-50417900D03*
X121373900Y-51067900D03*
X121373900Y-51717900D03*
X121373900Y-52367900D03*
X121373900Y-53017900D03*
X121373900Y-53667900D03*
X121373900Y-54317900D03*
%TD*%
D11*
%TO.C,REF\u002A\u002A*%
X130695700Y-60845700D03*
%TD*%
%TO.C,REF\u002A\u002A*%
X72504300Y-60845700D03*
%TD*%
D12*
%TO.C,J1*%
X85115400Y-61302900D03*
D13*
X87655400Y-61302900D03*
X90195400Y-61302900D03*
X92735400Y-61302900D03*
X95275400Y-61302900D03*
X97815400Y-61302900D03*
X100355400Y-61302900D03*
X102895400Y-61302900D03*
X105435400Y-61302900D03*
X107975400Y-61302900D03*
X110515400Y-61302900D03*
X113055400Y-61302900D03*
X115595400Y-61302900D03*
X118135400Y-61302900D03*
%TD*%
D14*
%TO.C,JP1*%
X79679800Y-61304300D03*
X79679800Y-59804300D03*
%TD*%
%TO.C,JP2*%
X81191100Y-59804300D03*
X81191100Y-61304300D03*
%TD*%
M02*
