%TF.GenerationSoftware,KiCad,Pcbnew,(5.1.9)-1*%
%TF.CreationDate,2021-05-17T19:38:56-07:00*%
%TF.ProjectId,ShiftRegBoard,53686966-7452-4656-9742-6f6172642e6b,rev?*%
%TF.SameCoordinates,Original*%
%TF.FileFunction,Copper,L4,Bot*%
%TF.FilePolarity,Positive*%
%FSLAX46Y46*%
G04 Gerber Fmt 4.6, Leading zero omitted, Abs format (unit mm)*
G04 Created by KiCad (PCBNEW (5.1.9)-1) date 2021-05-17 19:38:56*
%MOMM*%
%LPD*%
G01*
G04 APERTURE LIST*
%TA.AperFunction,SMDPad,CuDef*%
%ADD10R,1.570000X0.410000*%
%TD*%
%TA.AperFunction,ComponentPad*%
%ADD11C,4.700000*%
%TD*%
%TA.AperFunction,ComponentPad*%
%ADD12R,1.700000X1.700000*%
%TD*%
%TA.AperFunction,ComponentPad*%
%ADD13O,1.700000X1.700000*%
%TD*%
%TA.AperFunction,SMDPad,CuDef*%
%ADD14R,0.900000X0.500000*%
%TD*%
%TA.AperFunction,ViaPad*%
%ADD15C,0.800000*%
%TD*%
%TA.AperFunction,Conductor*%
%ADD16C,0.250000*%
%TD*%
%TA.AperFunction,Conductor*%
%ADD17C,0.254000*%
%TD*%
%TA.AperFunction,Conductor*%
%ADD18C,0.100000*%
%TD*%
G04 APERTURE END LIST*
D10*
%TO.P,U7,16*%
%TO.N,VCC*%
X127202800Y-41071800D03*
%TO.P,U7,15*%
%TO.N,Net-(R49-Pad2)*%
X127202800Y-40421800D03*
%TO.P,U7,14*%
%TO.N,SER7*%
X127202800Y-39771800D03*
%TO.P,U7,13*%
%TO.N,Net-(J1-Pad11)*%
X127202800Y-39121800D03*
%TO.P,U7,12*%
%TO.N,Net-(J1-Pad10)*%
X127202800Y-38471800D03*
%TO.P,U7,11*%
%TO.N,Net-(J1-Pad9)*%
X127202800Y-37821800D03*
%TO.P,U7,10*%
%TO.N,Net-(J1-Pad12)*%
X127202800Y-37171800D03*
%TO.P,U7,9*%
%TO.N,Net-(U7-Pad9)*%
X127202800Y-36521800D03*
%TO.P,U7,8*%
%TO.N,GND*%
X121462800Y-36521800D03*
%TO.P,U7,7*%
%TO.N,Net-(R56-Pad2)*%
X121462800Y-37171800D03*
%TO.P,U7,6*%
%TO.N,Net-(R55-Pad2)*%
X121462800Y-37821800D03*
%TO.P,U7,5*%
%TO.N,Net-(R54-Pad2)*%
X121462800Y-38471800D03*
%TO.P,U7,4*%
%TO.N,Net-(R53-Pad2)*%
X121462800Y-39121800D03*
%TO.P,U7,3*%
%TO.N,Net-(R52-Pad2)*%
X121462800Y-39771800D03*
%TO.P,U7,2*%
%TO.N,Net-(R51-Pad2)*%
X121462800Y-40421800D03*
%TO.P,U7,1*%
%TO.N,Net-(R50-Pad2)*%
X121462800Y-41071800D03*
%TD*%
%TO.P,U1,16*%
%TO.N,VCC*%
X83248100Y-41022700D03*
%TO.P,U1,15*%
%TO.N,Net-(R1-Pad2)*%
X83248100Y-40372700D03*
%TO.P,U1,14*%
%TO.N,SER1*%
X83248100Y-39722700D03*
%TO.P,U1,13*%
%TO.N,Net-(J1-Pad11)*%
X83248100Y-39072700D03*
%TO.P,U1,12*%
%TO.N,Net-(J1-Pad10)*%
X83248100Y-38422700D03*
%TO.P,U1,11*%
%TO.N,Net-(J1-Pad9)*%
X83248100Y-37772700D03*
%TO.P,U1,10*%
%TO.N,Net-(J1-Pad12)*%
X83248100Y-37122700D03*
%TO.P,U1,9*%
%TO.N,Net-(U1-Pad9)*%
X83248100Y-36472700D03*
%TO.P,U1,8*%
%TO.N,GND*%
X77508100Y-36472700D03*
%TO.P,U1,7*%
%TO.N,Net-(R8-Pad2)*%
X77508100Y-37122700D03*
%TO.P,U1,6*%
%TO.N,Net-(R7-Pad2)*%
X77508100Y-37772700D03*
%TO.P,U1,5*%
%TO.N,Net-(R6-Pad2)*%
X77508100Y-38422700D03*
%TO.P,U1,4*%
%TO.N,Net-(R5-Pad2)*%
X77508100Y-39072700D03*
%TO.P,U1,3*%
%TO.N,Net-(R4-Pad2)*%
X77508100Y-39722700D03*
%TO.P,U1,2*%
%TO.N,Net-(R3-Pad2)*%
X77508100Y-40372700D03*
%TO.P,U1,1*%
%TO.N,Net-(R2-Pad2)*%
X77508100Y-41022700D03*
%TD*%
%TO.P,U2,16*%
%TO.N,VCC*%
X83133800Y-54281500D03*
%TO.P,U2,15*%
%TO.N,Net-(R9-Pad2)*%
X83133800Y-53631500D03*
%TO.P,U2,14*%
%TO.N,SER2*%
X83133800Y-52981500D03*
%TO.P,U2,13*%
%TO.N,Net-(J1-Pad11)*%
X83133800Y-52331500D03*
%TO.P,U2,12*%
%TO.N,Net-(J1-Pad10)*%
X83133800Y-51681500D03*
%TO.P,U2,11*%
%TO.N,Net-(J1-Pad9)*%
X83133800Y-51031500D03*
%TO.P,U2,10*%
%TO.N,Net-(J1-Pad12)*%
X83133800Y-50381500D03*
%TO.P,U2,9*%
%TO.N,Net-(U2-Pad9)*%
X83133800Y-49731500D03*
%TO.P,U2,8*%
%TO.N,GND*%
X77393800Y-49731500D03*
%TO.P,U2,7*%
%TO.N,Net-(R16-Pad2)*%
X77393800Y-50381500D03*
%TO.P,U2,6*%
%TO.N,Net-(R15-Pad2)*%
X77393800Y-51031500D03*
%TO.P,U2,5*%
%TO.N,Net-(R14-Pad2)*%
X77393800Y-51681500D03*
%TO.P,U2,4*%
%TO.N,Net-(R13-Pad2)*%
X77393800Y-52331500D03*
%TO.P,U2,3*%
%TO.N,Net-(R12-Pad2)*%
X77393800Y-52981500D03*
%TO.P,U2,2*%
%TO.N,Net-(R11-Pad2)*%
X77393800Y-53631500D03*
%TO.P,U2,1*%
%TO.N,Net-(R10-Pad2)*%
X77393800Y-54281500D03*
%TD*%
%TO.P,U3,16*%
%TO.N,VCC*%
X97637200Y-41021000D03*
%TO.P,U3,15*%
%TO.N,Net-(R17-Pad2)*%
X97637200Y-40371000D03*
%TO.P,U3,14*%
%TO.N,SER3*%
X97637200Y-39721000D03*
%TO.P,U3,13*%
%TO.N,Net-(J1-Pad11)*%
X97637200Y-39071000D03*
%TO.P,U3,12*%
%TO.N,Net-(J1-Pad10)*%
X97637200Y-38421000D03*
%TO.P,U3,11*%
%TO.N,Net-(J1-Pad9)*%
X97637200Y-37771000D03*
%TO.P,U3,10*%
%TO.N,Net-(J1-Pad12)*%
X97637200Y-37121000D03*
%TO.P,U3,9*%
%TO.N,Net-(U3-Pad9)*%
X97637200Y-36471000D03*
%TO.P,U3,8*%
%TO.N,GND*%
X91897200Y-36471000D03*
%TO.P,U3,7*%
%TO.N,Net-(R24-Pad2)*%
X91897200Y-37121000D03*
%TO.P,U3,6*%
%TO.N,Net-(R23-Pad2)*%
X91897200Y-37771000D03*
%TO.P,U3,5*%
%TO.N,Net-(R22-Pad2)*%
X91897200Y-38421000D03*
%TO.P,U3,4*%
%TO.N,Net-(R21-Pad2)*%
X91897200Y-39071000D03*
%TO.P,U3,3*%
%TO.N,Net-(R20-Pad2)*%
X91897200Y-39721000D03*
%TO.P,U3,2*%
%TO.N,Net-(R19-Pad2)*%
X91897200Y-40371000D03*
%TO.P,U3,1*%
%TO.N,Net-(R18-Pad2)*%
X91897200Y-41021000D03*
%TD*%
%TO.P,U4,16*%
%TO.N,VCC*%
X97535600Y-54267100D03*
%TO.P,U4,15*%
%TO.N,Net-(R25-Pad2)*%
X97535600Y-53617100D03*
%TO.P,U4,14*%
%TO.N,SER4*%
X97535600Y-52967100D03*
%TO.P,U4,13*%
%TO.N,Net-(J1-Pad11)*%
X97535600Y-52317100D03*
%TO.P,U4,12*%
%TO.N,Net-(J1-Pad10)*%
X97535600Y-51667100D03*
%TO.P,U4,11*%
%TO.N,Net-(J1-Pad9)*%
X97535600Y-51017100D03*
%TO.P,U4,10*%
%TO.N,Net-(J1-Pad12)*%
X97535600Y-50367100D03*
%TO.P,U4,9*%
%TO.N,Net-(U4-Pad9)*%
X97535600Y-49717100D03*
%TO.P,U4,8*%
%TO.N,GND*%
X91795600Y-49717100D03*
%TO.P,U4,7*%
%TO.N,Net-(R32-Pad2)*%
X91795600Y-50367100D03*
%TO.P,U4,6*%
%TO.N,Net-(R31-Pad2)*%
X91795600Y-51017100D03*
%TO.P,U4,5*%
%TO.N,Net-(R30-Pad2)*%
X91795600Y-51667100D03*
%TO.P,U4,4*%
%TO.N,Net-(R29-Pad2)*%
X91795600Y-52317100D03*
%TO.P,U4,3*%
%TO.N,Net-(R28-Pad2)*%
X91795600Y-52967100D03*
%TO.P,U4,2*%
%TO.N,Net-(R27-Pad2)*%
X91795600Y-53617100D03*
%TO.P,U4,1*%
%TO.N,Net-(R26-Pad2)*%
X91795600Y-54267100D03*
%TD*%
%TO.P,U5,16*%
%TO.N,VCC*%
X112521600Y-41071800D03*
%TO.P,U5,15*%
%TO.N,Net-(R33-Pad2)*%
X112521600Y-40421800D03*
%TO.P,U5,14*%
%TO.N,SER5*%
X112521600Y-39771800D03*
%TO.P,U5,13*%
%TO.N,Net-(J1-Pad11)*%
X112521600Y-39121800D03*
%TO.P,U5,12*%
%TO.N,Net-(J1-Pad10)*%
X112521600Y-38471800D03*
%TO.P,U5,11*%
%TO.N,Net-(J1-Pad9)*%
X112521600Y-37821800D03*
%TO.P,U5,10*%
%TO.N,Net-(J1-Pad12)*%
X112521600Y-37171800D03*
%TO.P,U5,9*%
%TO.N,Net-(U5-Pad9)*%
X112521600Y-36521800D03*
%TO.P,U5,8*%
%TO.N,GND*%
X106781600Y-36521800D03*
%TO.P,U5,7*%
%TO.N,Net-(R40-Pad2)*%
X106781600Y-37171800D03*
%TO.P,U5,6*%
%TO.N,Net-(R39-Pad2)*%
X106781600Y-37821800D03*
%TO.P,U5,5*%
%TO.N,Net-(R38-Pad2)*%
X106781600Y-38471800D03*
%TO.P,U5,4*%
%TO.N,Net-(R37-Pad2)*%
X106781600Y-39121800D03*
%TO.P,U5,3*%
%TO.N,Net-(R36-Pad2)*%
X106781600Y-39771800D03*
%TO.P,U5,2*%
%TO.N,Net-(R35-Pad2)*%
X106781600Y-40421800D03*
%TO.P,U5,1*%
%TO.N,Net-(R34-Pad2)*%
X106781600Y-41071800D03*
%TD*%
%TO.P,U6,16*%
%TO.N,VCC*%
X112407300Y-54317900D03*
%TO.P,U6,15*%
%TO.N,Net-(R41-Pad2)*%
X112407300Y-53667900D03*
%TO.P,U6,14*%
%TO.N,SER6*%
X112407300Y-53017900D03*
%TO.P,U6,13*%
%TO.N,Net-(J1-Pad11)*%
X112407300Y-52367900D03*
%TO.P,U6,12*%
%TO.N,Net-(J1-Pad10)*%
X112407300Y-51717900D03*
%TO.P,U6,11*%
%TO.N,Net-(J1-Pad9)*%
X112407300Y-51067900D03*
%TO.P,U6,10*%
%TO.N,Net-(J1-Pad12)*%
X112407300Y-50417900D03*
%TO.P,U6,9*%
%TO.N,Net-(U6-Pad9)*%
X112407300Y-49767900D03*
%TO.P,U6,8*%
%TO.N,GND*%
X106667300Y-49767900D03*
%TO.P,U6,7*%
%TO.N,Net-(R48-Pad2)*%
X106667300Y-50417900D03*
%TO.P,U6,6*%
%TO.N,Net-(R47-Pad2)*%
X106667300Y-51067900D03*
%TO.P,U6,5*%
%TO.N,Net-(R46-Pad2)*%
X106667300Y-51717900D03*
%TO.P,U6,4*%
%TO.N,Net-(R45-Pad2)*%
X106667300Y-52367900D03*
%TO.P,U6,3*%
%TO.N,Net-(R44-Pad2)*%
X106667300Y-53017900D03*
%TO.P,U6,2*%
%TO.N,Net-(R43-Pad2)*%
X106667300Y-53667900D03*
%TO.P,U6,1*%
%TO.N,Net-(R42-Pad2)*%
X106667300Y-54317900D03*
%TD*%
%TO.P,U8,16*%
%TO.N,VCC*%
X127113900Y-54317900D03*
%TO.P,U8,15*%
%TO.N,Net-(R57-Pad2)*%
X127113900Y-53667900D03*
%TO.P,U8,14*%
%TO.N,SER8*%
X127113900Y-53017900D03*
%TO.P,U8,13*%
%TO.N,Net-(J1-Pad11)*%
X127113900Y-52367900D03*
%TO.P,U8,12*%
%TO.N,Net-(J1-Pad10)*%
X127113900Y-51717900D03*
%TO.P,U8,11*%
%TO.N,Net-(J1-Pad9)*%
X127113900Y-51067900D03*
%TO.P,U8,10*%
%TO.N,Net-(J1-Pad12)*%
X127113900Y-50417900D03*
%TO.P,U8,9*%
%TO.N,Net-(U8-Pad9)*%
X127113900Y-49767900D03*
%TO.P,U8,8*%
%TO.N,GND*%
X121373900Y-49767900D03*
%TO.P,U8,7*%
%TO.N,Net-(R64-Pad2)*%
X121373900Y-50417900D03*
%TO.P,U8,6*%
%TO.N,Net-(R63-Pad2)*%
X121373900Y-51067900D03*
%TO.P,U8,5*%
%TO.N,Net-(R62-Pad2)*%
X121373900Y-51717900D03*
%TO.P,U8,4*%
%TO.N,Net-(R61-Pad2)*%
X121373900Y-52367900D03*
%TO.P,U8,3*%
%TO.N,Net-(R60-Pad2)*%
X121373900Y-53017900D03*
%TO.P,U8,2*%
%TO.N,Net-(R59-Pad2)*%
X121373900Y-53667900D03*
%TO.P,U8,1*%
%TO.N,Net-(R58-Pad2)*%
X121373900Y-54317900D03*
%TD*%
D11*
%TO.P,REF\u002A\u002A,1*%
%TO.N,GND*%
X130695700Y-60845700D03*
%TD*%
%TO.P,REF\u002A\u002A,1*%
%TO.N,GND*%
X72504300Y-60845700D03*
%TD*%
D12*
%TO.P,J1,1*%
%TO.N,SER1*%
X85115400Y-61302900D03*
D13*
%TO.P,J1,2*%
%TO.N,SER2*%
X87655400Y-61302900D03*
%TO.P,J1,3*%
%TO.N,SER3*%
X90195400Y-61302900D03*
%TO.P,J1,4*%
%TO.N,SER4*%
X92735400Y-61302900D03*
%TO.P,J1,5*%
%TO.N,SER5*%
X95275400Y-61302900D03*
%TO.P,J1,6*%
%TO.N,SER6*%
X97815400Y-61302900D03*
%TO.P,J1,7*%
%TO.N,SER7*%
X100355400Y-61302900D03*
%TO.P,J1,8*%
%TO.N,SER8*%
X102895400Y-61302900D03*
%TO.P,J1,9*%
%TO.N,Net-(J1-Pad9)*%
X105435400Y-61302900D03*
%TO.P,J1,10*%
%TO.N,Net-(J1-Pad10)*%
X107975400Y-61302900D03*
%TO.P,J1,11*%
%TO.N,Net-(J1-Pad11)*%
X110515400Y-61302900D03*
%TO.P,J1,12*%
%TO.N,Net-(J1-Pad12)*%
X113055400Y-61302900D03*
%TO.P,J1,13*%
%TO.N,VCC*%
X115595400Y-61302900D03*
%TO.P,J1,14*%
%TO.N,GND*%
X118135400Y-61302900D03*
%TD*%
D14*
%TO.P,JP1,1*%
%TO.N,Net-(J1-Pad12)*%
X79679800Y-61304300D03*
%TO.P,JP1,2*%
%TO.N,VCC*%
X79679800Y-59804300D03*
%TD*%
%TO.P,JP2,2*%
%TO.N,GND*%
X81191100Y-59804300D03*
%TO.P,JP2,1*%
%TO.N,Net-(J1-Pad11)*%
X81191100Y-61304300D03*
%TD*%
D15*
%TO.N,GND*%
X107775145Y-48399698D03*
X87744300Y-34404300D03*
X87769700Y-38176200D03*
X87553800Y-42722800D03*
X87337900Y-48945800D03*
X88442800Y-57746900D03*
X102082600Y-33832800D03*
X100947198Y-42280344D03*
X124675900Y-32854900D03*
X124650500Y-35941000D03*
X125552200Y-43408600D03*
X125704600Y-45377100D03*
X122682000Y-48107600D03*
X122859800Y-58967200D03*
X118224300Y-55067200D03*
X116166900Y-53822600D03*
X117055900Y-48323500D03*
X117068600Y-45161200D03*
X117081300Y-42125900D03*
X117106700Y-37535767D03*
X117081300Y-35775900D03*
X117055900Y-32664400D03*
X109626400Y-32766000D03*
X109537500Y-35852100D03*
X107924600Y-42138600D03*
X108826300Y-44259500D03*
X111023400Y-46291500D03*
X111467900Y-48691800D03*
X107733000Y-56108600D03*
X103251000Y-54610000D03*
X100711000Y-53505100D03*
X101219000Y-48285400D03*
X103212900Y-45440600D03*
X95110300Y-32715200D03*
X95135700Y-35692249D03*
X95457853Y-41305053D03*
X96342200Y-44094400D03*
X94157800Y-46583600D03*
X87553800Y-45300900D03*
X87718900Y-32816800D03*
X80365600Y-32727900D03*
X80378300Y-35890200D03*
X81584800Y-42329100D03*
X81965800Y-44335700D03*
X78892400Y-46875700D03*
X80900100Y-58394600D03*
X70764400Y-56654700D03*
X70777100Y-51473100D03*
X74513301Y-48564800D03*
X74513301Y-45120782D03*
X70688200Y-42303700D03*
X70726300Y-39116000D03*
X70726300Y-35864800D03*
X70726300Y-32791400D03*
X76835000Y-31381700D03*
X91236800Y-31419800D03*
X98450400Y-31369000D03*
X105854500Y-31394400D03*
X113322100Y-31369000D03*
X120434100Y-31381700D03*
X127533400Y-31369000D03*
X132270500Y-31457900D03*
X132270500Y-35661600D03*
X132270500Y-40347900D03*
X132270500Y-44945300D03*
X132308600Y-49212500D03*
X132270500Y-53086000D03*
X132295900Y-57442100D03*
X127114300Y-62509400D03*
X79375000Y-62522100D03*
X76149200Y-62534800D03*
X70726300Y-53962300D03*
X70700900Y-49136300D03*
X70688200Y-47193200D03*
X70688200Y-44704000D03*
X84074000Y-31318200D03*
%TO.N,VCC*%
X115533901Y-55130700D03*
X126149100Y-56965590D03*
X123494953Y-44119953D03*
X111442500Y-34340800D03*
X98161622Y-57181272D03*
X94742000Y-44208700D03*
X81775300Y-56368690D03*
X80302100Y-44907200D03*
X79349600Y-58470800D03*
%TO.N,Net-(J1-Pad12)*%
X111025185Y-50031689D03*
X129483886Y-49065686D03*
X124418874Y-37419503D03*
X109585101Y-37217314D03*
X94012080Y-53947398D03*
X93850883Y-36817248D03*
X79338104Y-38121166D03*
X108458000Y-57683400D03*
X71713271Y-52332402D03*
X81674800Y-50453451D03*
%TO.N,Net-(J1-Pad11)*%
X110122289Y-54940200D03*
X125149097Y-56965590D03*
X124462397Y-40451897D03*
X109552540Y-40305248D03*
X95376008Y-56617592D03*
X93835384Y-39851575D03*
X79236400Y-55368689D03*
X79353775Y-41181413D03*
X110070900Y-57721500D03*
X73063301Y-55308500D03*
%TO.N,Net-(J1-Pad10)*%
X109395137Y-54253721D03*
X124026425Y-56296237D03*
X124439247Y-39449742D03*
X109552750Y-39279733D03*
X95250589Y-55619595D03*
X93846340Y-38815314D03*
X79307709Y-54371233D03*
X79336616Y-40173266D03*
X72613291Y-54315988D03*
%TO.N,Net-(J1-Pad9)*%
X111173193Y-51020776D03*
X125835924Y-50992900D03*
X124423391Y-38440292D03*
X109546411Y-38260767D03*
X94525589Y-54805484D03*
X93804647Y-37816181D03*
X79343488Y-53371871D03*
X79332375Y-39152201D03*
X72163281Y-53315985D03*
%TO.N,SER8*%
X126071633Y-55968593D03*
%TO.N,SER7*%
X124076197Y-41488097D03*
X124244100Y-34734500D03*
%TO.N,SER6*%
X111371658Y-56230242D03*
%TO.N,SER5*%
X109553747Y-41329347D03*
%TO.N,SER4*%
X96226136Y-57144171D03*
%TO.N,SER3*%
X93861047Y-40851247D03*
%TO.N,SER2*%
X80175100Y-56368690D03*
%TO.N,SER1*%
X79309547Y-42250947D03*
%TO.N,Net-(R1-Pad2)*%
X77592347Y-57713453D03*
%TO.N,Net-(R2-Pad2)*%
X75268518Y-53803343D03*
%TO.N,Net-(R3-Pad2)*%
X75108789Y-50699437D03*
%TO.N,Net-(R4-Pad2)*%
X74658779Y-47548800D03*
%TO.N,Net-(R5-Pad2)*%
X75232949Y-44418316D03*
%TO.N,Net-(R6-Pad2)*%
X74773080Y-41465500D03*
%TO.N,Net-(R7-Pad2)*%
X75270148Y-38233884D03*
%TO.N,Net-(R8-Pad2)*%
X75249633Y-35096085D03*
%TO.N,Net-(R9-Pad2)*%
X85686900Y-56210200D03*
%TO.N,Net-(R10-Pad2)*%
X85610700Y-58026300D03*
%TO.N,Net-(R11-Pad2)*%
X85623400Y-50012600D03*
%TO.N,Net-(R12-Pad2)*%
X85623400Y-46812200D03*
%TO.N,Net-(R13-Pad2)*%
X85699600Y-43726100D03*
%TO.N,Net-(R14-Pad2)*%
X86639400Y-40678100D03*
%TO.N,Net-(R15-Pad2)*%
X85902800Y-37452300D03*
%TO.N,Net-(R16-Pad2)*%
X85928200Y-34277300D03*
%TO.N,Net-(R17-Pad2)*%
X91909900Y-57467500D03*
%TO.N,Net-(R18-Pad2)*%
X89629040Y-53838919D03*
%TO.N,Net-(R19-Pad2)*%
X89510589Y-50712803D03*
%TO.N,Net-(R20-Pad2)*%
X89060579Y-47764700D03*
%TO.N,Net-(R21-Pad2)*%
X89312332Y-43490732D03*
%TO.N,Net-(R22-Pad2)*%
X89162179Y-41516300D03*
%TO.N,Net-(R23-Pad2)*%
X89654672Y-38225883D03*
%TO.N,Net-(R24-Pad2)*%
X89655538Y-35053044D03*
%TO.N,Net-(R25-Pad2)*%
X99161600Y-57188100D03*
%TO.N,Net-(R26-Pad2)*%
X99174300Y-58762900D03*
%TO.N,Net-(R27-Pad2)*%
X101688900Y-49961800D03*
%TO.N,Net-(R28-Pad2)*%
X100164900Y-46824900D03*
%TO.N,Net-(R29-Pad2)*%
X100114100Y-43700700D03*
%TO.N,Net-(R30-Pad2)*%
X100203000Y-40665400D03*
%TO.N,Net-(R31-Pad2)*%
X100736400Y-37477700D03*
%TO.N,Net-(R32-Pad2)*%
X100203000Y-34302700D03*
%TO.N,Net-(R33-Pad2)*%
X106603800Y-57200800D03*
%TO.N,Net-(R34-Pad2)*%
X104286775Y-53685012D03*
%TO.N,Net-(R35-Pad2)*%
X104304139Y-50560545D03*
%TO.N,Net-(R36-Pad2)*%
X103932279Y-47524034D03*
%TO.N,Net-(R37-Pad2)*%
X104126685Y-44475684D03*
%TO.N,Net-(R38-Pad2)*%
X104046579Y-41202972D03*
%TO.N,Net-(R39-Pad2)*%
X104213838Y-38168983D03*
%TO.N,Net-(R40-Pad2)*%
X104309738Y-34896630D03*
%TO.N,Net-(R41-Pad2)*%
X114007900Y-57200800D03*
%TO.N,Net-(R42-Pad2)*%
X113982500Y-58750200D03*
%TO.N,Net-(R43-Pad2)*%
X115023900Y-49974500D03*
%TO.N,Net-(R44-Pad2)*%
X114922300Y-46786800D03*
%TO.N,Net-(R45-Pad2)*%
X111719790Y-44338485D03*
%TO.N,Net-(R46-Pad2)*%
X115252500Y-40627300D03*
%TO.N,Net-(R47-Pad2)*%
X114973100Y-37477700D03*
%TO.N,Net-(R48-Pad2)*%
X110373929Y-42949629D03*
%TO.N,Net-(R49-Pad2)*%
X121246900Y-57302400D03*
%TO.N,Net-(R50-Pad2)*%
X118786837Y-53824483D03*
%TO.N,Net-(R51-Pad2)*%
X118933441Y-50537927D03*
%TO.N,Net-(R52-Pad2)*%
X118618580Y-47434500D03*
%TO.N,Net-(R53-Pad2)*%
X118917920Y-44239386D03*
%TO.N,Net-(R54-Pad2)*%
X118720119Y-41193113D03*
%TO.N,Net-(R55-Pad2)*%
X118938521Y-38067486D03*
%TO.N,Net-(R56-Pad2)*%
X122123200Y-34290000D03*
%TO.N,Net-(R57-Pad2)*%
X125926436Y-53667900D03*
%TO.N,Net-(R58-Pad2)*%
X129298700Y-53149500D03*
%TO.N,Net-(R59-Pad2)*%
X129311400Y-50050700D03*
%TO.N,Net-(R60-Pad2)*%
X129298700Y-46850300D03*
%TO.N,Net-(R61-Pad2)*%
X129400300Y-43764200D03*
%TO.N,Net-(R62-Pad2)*%
X129336800Y-40678100D03*
%TO.N,Net-(R63-Pad2)*%
X129514600Y-37528500D03*
%TO.N,Net-(R64-Pad2)*%
X124879100Y-44615100D03*
%TD*%
D16*
%TO.N,GND*%
X106667300Y-49507543D02*
X107775145Y-48399698D01*
X106667300Y-49767900D02*
X106667300Y-49507543D01*
X79795800Y-36472700D02*
X80378300Y-35890200D01*
X77508100Y-36472700D02*
X79795800Y-36472700D01*
X77393800Y-48374300D02*
X78892400Y-46875700D01*
X77393800Y-49731500D02*
X77393800Y-48374300D01*
X91795600Y-48945800D02*
X94157800Y-46583600D01*
X91795600Y-49717100D02*
X91795600Y-48945800D01*
X92675951Y-35692249D02*
X95135700Y-35692249D01*
X91897200Y-36471000D02*
X92675951Y-35692249D01*
X108867800Y-36521800D02*
X109537500Y-35852100D01*
X106781600Y-36521800D02*
X108867800Y-36521800D01*
X117827200Y-36521800D02*
X117081300Y-35775900D01*
X121462800Y-36521800D02*
X117827200Y-36521800D01*
X121373900Y-49415700D02*
X122682000Y-48107600D01*
X121373900Y-49767900D02*
X121373900Y-49415700D01*
X81191100Y-58685600D02*
X80900100Y-58394600D01*
X81191100Y-59804300D02*
X81191100Y-58685600D01*
%TO.N,VCC*%
X114721101Y-54317900D02*
X115533901Y-55130700D01*
X112407300Y-54317900D02*
X114721101Y-54317900D01*
X127113900Y-56000790D02*
X126149100Y-56965590D01*
X127113900Y-54317900D02*
X127113900Y-56000790D01*
X126543106Y-41071800D02*
X123494953Y-44119953D01*
X127202800Y-41071800D02*
X126543106Y-41071800D01*
X111915602Y-34340800D02*
X111442500Y-34340800D01*
X113631601Y-36056799D02*
X111915602Y-34340800D01*
X113631601Y-40886801D02*
X113631601Y-36056799D01*
X113446602Y-41071800D02*
X113631601Y-40886801D01*
X112521600Y-41071800D02*
X113446602Y-41071800D01*
X97535600Y-56555250D02*
X98161622Y-57181272D01*
X97535600Y-54267100D02*
X97535600Y-56555250D01*
X97637200Y-41313500D02*
X94742000Y-44208700D01*
X97637200Y-41021000D02*
X97637200Y-41313500D01*
X83133800Y-55010190D02*
X81775300Y-56368690D01*
X83133800Y-54281500D02*
X83133800Y-55010190D01*
X83248100Y-41961200D02*
X80302100Y-44907200D01*
X83248100Y-41022700D02*
X83248100Y-41961200D01*
X79679800Y-58801000D02*
X79349600Y-58470800D01*
X79679800Y-59804300D02*
X79679800Y-58801000D01*
%TO.N,Net-(J1-Pad12)*%
X111289271Y-50295775D02*
X111025185Y-50031689D01*
X111521194Y-50295775D02*
X111289271Y-50295775D01*
X111643319Y-50417900D02*
X111521194Y-50295775D01*
X112407300Y-50417900D02*
X111643319Y-50417900D01*
X128586399Y-49702699D02*
X129223412Y-49065686D01*
X128586399Y-49980401D02*
X128586399Y-49702699D01*
X128148900Y-50417900D02*
X128586399Y-49980401D01*
X129223412Y-49065686D02*
X129483886Y-49065686D01*
X127113900Y-50417900D02*
X128148900Y-50417900D01*
X124666577Y-37171800D02*
X124418874Y-37419503D01*
X127202800Y-37171800D02*
X124666577Y-37171800D01*
X109630615Y-37171800D02*
X109585101Y-37217314D01*
X112521600Y-37171800D02*
X109630615Y-37171800D01*
X94012080Y-52855620D02*
X94012080Y-53947398D01*
X96500600Y-50367100D02*
X94012080Y-52855620D01*
X97535600Y-50367100D02*
X96500600Y-50367100D01*
X94154635Y-37121000D02*
X93850883Y-36817248D01*
X97637200Y-37121000D02*
X94154635Y-37121000D01*
X80336570Y-37122700D02*
X79338104Y-38121166D01*
X83248100Y-37122700D02*
X80336570Y-37122700D01*
X81746751Y-50381500D02*
X81674800Y-50453451D01*
X83133800Y-50381500D02*
X81746751Y-50381500D01*
X111430389Y-62927911D02*
X113055400Y-61302900D01*
X81303411Y-62927911D02*
X111430389Y-62927911D01*
X79679800Y-61304300D02*
X81303411Y-62927911D01*
%TO.N,Net-(J1-Pad11)*%
X110122289Y-53617911D02*
X110122289Y-54940200D01*
X111372300Y-52367900D02*
X110122289Y-53617911D01*
X112407300Y-52367900D02*
X111372300Y-52367900D01*
X124751425Y-56567918D02*
X125149097Y-56965590D01*
X124751425Y-53133499D02*
X124751425Y-56567918D01*
X125517024Y-52367900D02*
X124751425Y-53133499D01*
X127113900Y-52367900D02*
X125517024Y-52367900D01*
X125792494Y-39121800D02*
X124462397Y-40451897D01*
X127202800Y-39121800D02*
X125792494Y-39121800D01*
X110735988Y-39121800D02*
X109552540Y-40305248D01*
X112521600Y-39121800D02*
X110735988Y-39121800D01*
X96500600Y-52317100D02*
X95975589Y-52842111D01*
X97535600Y-52317100D02*
X96500600Y-52317100D01*
X95975589Y-56018011D02*
X95376008Y-56617592D01*
X95975589Y-52842111D02*
X95975589Y-56018011D01*
X94615959Y-39071000D02*
X93835384Y-39851575D01*
X97637200Y-39071000D02*
X94615959Y-39071000D01*
X82098800Y-52331500D02*
X81490390Y-52939910D01*
X83133800Y-52331500D02*
X82098800Y-52331500D01*
X81490390Y-52939910D02*
X81490390Y-54423600D01*
X80545301Y-55368689D02*
X79236400Y-55368689D01*
X81490390Y-54423600D02*
X80545301Y-55368689D01*
X81462488Y-39072700D02*
X79353775Y-41181413D01*
X83248100Y-39072700D02*
X81462488Y-39072700D01*
X110515400Y-61302900D02*
X110515400Y-58166000D01*
X110515400Y-58166000D02*
X110070900Y-57721500D01*
X109340399Y-62477901D02*
X110515400Y-61302900D01*
X82364701Y-62477901D02*
X109340399Y-62477901D01*
X81191100Y-61304300D02*
X82364701Y-62477901D01*
%TO.N,Net-(J1-Pad10)*%
X109395137Y-53695063D02*
X109395137Y-54253721D01*
X111372300Y-51717900D02*
X109395137Y-53695063D01*
X112407300Y-51717900D02*
X111372300Y-51717900D01*
X124026425Y-53222089D02*
X124026425Y-56296237D01*
X125530614Y-51717900D02*
X124026425Y-53222089D01*
X127113900Y-51717900D02*
X125530614Y-51717900D01*
X125417189Y-38471800D02*
X124439247Y-39449742D01*
X127202800Y-38471800D02*
X125417189Y-38471800D01*
X110360683Y-38471800D02*
X109552750Y-39279733D01*
X112521600Y-38471800D02*
X110360683Y-38471800D01*
X95250589Y-52917111D02*
X95250589Y-55619595D01*
X96500600Y-51667100D02*
X95250589Y-52917111D01*
X97535600Y-51667100D02*
X96500600Y-51667100D01*
X94240654Y-38421000D02*
X93846340Y-38815314D01*
X97637200Y-38421000D02*
X94240654Y-38421000D01*
X82098800Y-51681500D02*
X81040380Y-52739920D01*
X83133800Y-51681500D02*
X82098800Y-51681500D01*
X81040380Y-52739920D02*
X81040380Y-54237200D01*
X80906347Y-54371233D02*
X79307709Y-54371233D01*
X81040380Y-54237200D02*
X80906347Y-54371233D01*
X81087182Y-38422700D02*
X79336616Y-40173266D01*
X83248100Y-38422700D02*
X81087182Y-38422700D01*
%TO.N,Net-(J1-Pad9)*%
X111220317Y-51067900D02*
X111173193Y-51020776D01*
X112407300Y-51067900D02*
X111220317Y-51067900D01*
X125910924Y-51067900D02*
X125835924Y-50992900D01*
X127113900Y-51067900D02*
X125910924Y-51067900D01*
X125041883Y-37821800D02*
X124423391Y-38440292D01*
X127202800Y-37821800D02*
X125041883Y-37821800D01*
X109985378Y-37821800D02*
X109546411Y-38260767D01*
X112521600Y-37821800D02*
X109985378Y-37821800D01*
X96500600Y-51017100D02*
X94754700Y-52763000D01*
X97535600Y-51017100D02*
X96500600Y-51017100D01*
X94754700Y-54576373D02*
X94525589Y-54805484D01*
X94754700Y-52763000D02*
X94754700Y-54576373D01*
X93849828Y-37771000D02*
X93804647Y-37816181D01*
X97637200Y-37771000D02*
X93849828Y-37771000D01*
X83133800Y-51031500D02*
X82112390Y-51031500D01*
X82112390Y-51031500D02*
X80590370Y-52553520D01*
X80590370Y-52553520D02*
X80590370Y-53216830D01*
X80435329Y-53371871D02*
X79343488Y-53371871D01*
X80590370Y-53216830D02*
X80435329Y-53371871D01*
X80711876Y-37772700D02*
X79332375Y-39152201D01*
X83248100Y-37772700D02*
X80711876Y-37772700D01*
%TO.N,SER8*%
X125201435Y-53319899D02*
X125201435Y-54144935D01*
X125578435Y-52942899D02*
X125201435Y-53319899D01*
X126274437Y-52942899D02*
X125578435Y-52942899D01*
X126349438Y-53017900D02*
X126274437Y-52942899D01*
X127113900Y-53017900D02*
X126349438Y-53017900D01*
X126657100Y-55600600D02*
X126657100Y-55821180D01*
X125201435Y-54144935D02*
X126657100Y-55600600D01*
X126509687Y-55968593D02*
X126071633Y-55968593D01*
X126657100Y-55821180D02*
X126509687Y-55968593D01*
%TO.N,SER7*%
X124383800Y-41555800D02*
X124143900Y-41555800D01*
X126167800Y-39771800D02*
X124383800Y-41555800D01*
X124143900Y-41555800D02*
X124076197Y-41488097D01*
X127202800Y-39771800D02*
X126167800Y-39771800D01*
X104568367Y-33564999D02*
X123074599Y-33564999D01*
X102413901Y-35719465D02*
X104568367Y-33564999D01*
X102413901Y-59244399D02*
X102413901Y-35719465D01*
X100355400Y-61302900D02*
X102413901Y-59244399D01*
X123074599Y-33564999D02*
X124244100Y-34734500D01*
%TO.N,SER6*%
X110847289Y-55705873D02*
X111371658Y-56230242D01*
X110847289Y-53542911D02*
X110847289Y-55705873D01*
X111372300Y-53017900D02*
X110847289Y-53542911D01*
X112407300Y-53017900D02*
X111372300Y-53017900D01*
%TO.N,SER5*%
X111111294Y-39771800D02*
X109553747Y-41329347D01*
X112521600Y-39771800D02*
X111111294Y-39771800D01*
%TO.N,SER4*%
X96500600Y-52967100D02*
X96425599Y-53042101D01*
X97535600Y-52967100D02*
X96500600Y-52967100D01*
X96425599Y-56944708D02*
X96226136Y-57144171D01*
X96425599Y-53042101D02*
X96425599Y-56944708D01*
%TO.N,SER3*%
X94991294Y-39721000D02*
X93861047Y-40851247D01*
X97637200Y-39721000D02*
X94991294Y-39721000D01*
%TO.N,SER2*%
X80181710Y-56368690D02*
X80175100Y-56368690D01*
X82023799Y-54526601D02*
X80181710Y-56368690D01*
X82023799Y-53056501D02*
X82023799Y-54526601D01*
X82098800Y-52981500D02*
X82023799Y-53056501D01*
X83133800Y-52981500D02*
X82098800Y-52981500D01*
%TO.N,SER1*%
X81837794Y-39722700D02*
X79309547Y-42250947D01*
X83248100Y-39722700D02*
X81837794Y-39722700D01*
%TO.N,Net-(R1-Pad2)*%
X76283799Y-56404905D02*
X77592347Y-57713453D01*
X76283799Y-46302001D02*
X76283799Y-56404905D01*
X82213100Y-40372700D02*
X76283799Y-46302001D01*
X83248100Y-40372700D02*
X82213100Y-40372700D01*
%TO.N,Net-(R2-Pad2)*%
X77508100Y-41022700D02*
X77508100Y-44441290D01*
X77508100Y-44441290D02*
X75833789Y-46115601D01*
X75833789Y-53238072D02*
X75268518Y-53803343D01*
X75833789Y-46115601D02*
X75833789Y-53238072D01*
%TO.N,Net-(R3-Pad2)*%
X76398099Y-41688999D02*
X77058090Y-42348990D01*
X76398099Y-40557699D02*
X76398099Y-41688999D01*
X76583098Y-40372700D02*
X76398099Y-40557699D01*
X77508100Y-40372700D02*
X76583098Y-40372700D01*
X77058090Y-42348990D02*
X77058090Y-44254890D01*
X77058090Y-44254890D02*
X75383779Y-45929201D01*
X75383779Y-50424447D02*
X75108789Y-50699437D01*
X75383779Y-45929201D02*
X75383779Y-50424447D01*
%TO.N,Net-(R4-Pad2)*%
X75948089Y-40247711D02*
X75948090Y-41875400D01*
X76473100Y-39722700D02*
X75948089Y-40247711D01*
X77508100Y-39722700D02*
X76473100Y-39722700D01*
X76608080Y-42535390D02*
X76608080Y-44068490D01*
X75948090Y-41875400D02*
X76608080Y-42535390D01*
X76608080Y-44068490D02*
X74933769Y-45742801D01*
X74933769Y-47273810D02*
X74658779Y-47548800D01*
X74933769Y-45742801D02*
X74933769Y-47273810D01*
%TO.N,Net-(R5-Pad2)*%
X76486690Y-39072700D02*
X75498080Y-40061312D01*
X77508100Y-39072700D02*
X76486690Y-39072700D01*
X75498080Y-44153185D02*
X75232949Y-44418316D01*
X75498080Y-40061312D02*
X75498080Y-44153185D01*
%TO.N,Net-(R6-Pad2)*%
X74773080Y-40122720D02*
X74773080Y-41465500D01*
X76473100Y-38422700D02*
X74773080Y-40122720D01*
X77508100Y-38422700D02*
X76473100Y-38422700D01*
%TO.N,Net-(R7-Pad2)*%
X75731332Y-37772700D02*
X75270148Y-38233884D01*
X77508100Y-37772700D02*
X75731332Y-37772700D01*
%TO.N,Net-(R8-Pad2)*%
X75249633Y-35899233D02*
X75249633Y-35096085D01*
X76473100Y-37122700D02*
X75249633Y-35899233D01*
X77508100Y-37122700D02*
X76473100Y-37122700D01*
%TO.N,Net-(R9-Pad2)*%
X83133800Y-53631500D02*
X84568700Y-53631500D01*
X85686900Y-54749700D02*
X85686900Y-56210200D01*
X84568700Y-53631500D02*
X85686900Y-54749700D01*
%TO.N,Net-(R10-Pad2)*%
X77393800Y-54281500D02*
X77393800Y-56489600D01*
X77393800Y-56489600D02*
X78447900Y-57543700D01*
X85128100Y-57543700D02*
X85610700Y-58026300D01*
X78447900Y-57543700D02*
X85128100Y-57543700D01*
%TO.N,Net-(R11-Pad2)*%
X78428800Y-53631500D02*
X78511400Y-53714100D01*
X77393800Y-53631500D02*
X78428800Y-53631500D01*
X78511400Y-56883300D02*
X78721790Y-57093690D01*
X78511400Y-53714100D02*
X78511400Y-56883300D01*
X86411901Y-56558201D02*
X86411901Y-50851901D01*
X85876412Y-57093690D02*
X86411901Y-56558201D01*
X78721790Y-57093690D02*
X85876412Y-57093690D01*
X85623400Y-50063400D02*
X85623400Y-50012600D01*
X86411901Y-50851901D02*
X85623400Y-50063400D01*
%TO.N,Net-(R12-Pad2)*%
X78428800Y-52981500D02*
X80949800Y-50460500D01*
X77393800Y-52981500D02*
X78428800Y-52981500D01*
X80949800Y-50460500D02*
X80949800Y-49034700D01*
X83172300Y-46812200D02*
X85623400Y-46812200D01*
X80949800Y-49034700D02*
X83172300Y-46812200D01*
%TO.N,Net-(R13-Pad2)*%
X77393800Y-52331500D02*
X78442390Y-52331500D01*
X80499790Y-50274100D02*
X80499791Y-48848299D01*
X78442390Y-52331500D02*
X80499790Y-50274100D01*
X85621990Y-43726100D02*
X85699600Y-43726100D01*
X80499791Y-48848299D02*
X85621990Y-43726100D01*
%TO.N,Net-(R14-Pad2)*%
X80049781Y-50060519D02*
X80049782Y-48661898D01*
X78428800Y-51681500D02*
X80049781Y-50060519D01*
X77393800Y-51681500D02*
X78428800Y-51681500D01*
X80049782Y-48661898D02*
X84625040Y-44086640D01*
X84625040Y-43727658D02*
X85598000Y-42754698D01*
X84625040Y-44086640D02*
X84625040Y-43727658D01*
X85598000Y-42754698D02*
X85616902Y-42754698D01*
X86639400Y-41732200D02*
X86639400Y-40678100D01*
X85616902Y-42754698D02*
X86639400Y-41732200D01*
%TO.N,Net-(R15-Pad2)*%
X77393800Y-51031500D02*
X78442390Y-51031500D01*
X79599772Y-49874118D02*
X79599773Y-48475497D01*
X78442390Y-51031500D02*
X79599772Y-49874118D01*
X84175030Y-43900240D02*
X84175031Y-43541257D01*
X79599773Y-48475497D02*
X84175030Y-43900240D01*
X85411600Y-42304688D02*
X85430502Y-42304688D01*
X84175031Y-43541257D02*
X85411600Y-42304688D01*
X85430502Y-42304688D02*
X85902800Y-41832390D01*
X85902800Y-41832390D02*
X85902800Y-37452300D01*
%TO.N,Net-(R16-Pad2)*%
X78428800Y-50381500D02*
X79149763Y-49660537D01*
X77393800Y-50381500D02*
X78428800Y-50381500D01*
X79149763Y-49660537D02*
X79149764Y-48289096D01*
X83725021Y-43713839D02*
X83725022Y-43354856D01*
X79149764Y-48289096D02*
X83725021Y-43713839D01*
X85177799Y-41902079D02*
X85177799Y-37135901D01*
X83725022Y-43354856D02*
X85177799Y-41902079D01*
X85928200Y-36385500D02*
X85928200Y-34277300D01*
X85177799Y-37135901D02*
X85928200Y-36385500D01*
%TO.N,Net-(R17-Pad2)*%
X97637200Y-40371000D02*
X95366600Y-40371000D01*
X90685599Y-56243199D02*
X91909900Y-57467500D01*
X90685599Y-45052001D02*
X90685599Y-56243199D01*
X95366600Y-40371000D02*
X90685599Y-45052001D01*
%TO.N,Net-(R18-Pad2)*%
X91897200Y-41021000D02*
X91897200Y-43203990D01*
X91897200Y-43203990D02*
X90235589Y-44865601D01*
X90235589Y-53232370D02*
X89629040Y-53838919D01*
X90235589Y-44865601D02*
X90235589Y-53232370D01*
%TO.N,Net-(R19-Pad2)*%
X90787199Y-40555999D02*
X90787199Y-43677581D01*
X90972198Y-40371000D02*
X90787199Y-40555999D01*
X91897200Y-40371000D02*
X90972198Y-40371000D01*
X90787199Y-43677581D02*
X89785579Y-44679201D01*
X89785579Y-50437813D02*
X89510589Y-50712803D01*
X89785579Y-44679201D02*
X89785579Y-50437813D01*
%TO.N,Net-(R20-Pad2)*%
X90862200Y-39721000D02*
X90337189Y-40246011D01*
X91897200Y-39721000D02*
X90862200Y-39721000D01*
X90337189Y-40246011D02*
X90337189Y-43491181D01*
X89060579Y-44767791D02*
X89060579Y-47764700D01*
X90337189Y-43491181D02*
X89060579Y-44767791D01*
%TO.N,Net-(R21-Pad2)*%
X90875790Y-39071000D02*
X89887179Y-40059611D01*
X91897200Y-39071000D02*
X90875790Y-39071000D01*
X89887179Y-42915885D02*
X89312332Y-43490732D01*
X89887179Y-40059611D02*
X89887179Y-42915885D01*
%TO.N,Net-(R22-Pad2)*%
X89162179Y-40121021D02*
X89162179Y-41516300D01*
X90862200Y-38421000D02*
X89162179Y-40121021D01*
X91897200Y-38421000D02*
X90862200Y-38421000D01*
%TO.N,Net-(R23-Pad2)*%
X90109555Y-37771000D02*
X89654672Y-38225883D01*
X91897200Y-37771000D02*
X90109555Y-37771000D01*
%TO.N,Net-(R24-Pad2)*%
X89655538Y-35914338D02*
X89655538Y-35053044D01*
X90862200Y-37121000D02*
X89655538Y-35914338D01*
X91897200Y-37121000D02*
X90862200Y-37121000D01*
%TO.N,Net-(R25-Pad2)*%
X99161600Y-54208100D02*
X99161600Y-57188100D01*
X98570600Y-53617100D02*
X99161600Y-54208100D01*
X97535600Y-53617100D02*
X98570600Y-53617100D01*
%TO.N,Net-(R26-Pad2)*%
X91795600Y-54267100D02*
X91795600Y-54698900D01*
X95859600Y-58762900D02*
X99174300Y-58762900D01*
X91795600Y-54698900D02*
X95859600Y-58762900D01*
%TO.N,Net-(R27-Pad2)*%
X92905601Y-53802099D02*
X92905601Y-55172491D01*
X92720602Y-53617100D02*
X92905601Y-53802099D01*
X91795600Y-53617100D02*
X92720602Y-53617100D01*
X95646211Y-57913101D02*
X99490699Y-57913101D01*
X92905601Y-55172491D02*
X95646211Y-57913101D01*
X101688900Y-55714900D02*
X101688900Y-49961800D01*
X99490699Y-57913101D02*
X101688900Y-55714900D01*
%TO.N,Net-(R28-Pad2)*%
X92830600Y-52967100D02*
X95554800Y-50242900D01*
X91795600Y-52967100D02*
X92830600Y-52967100D01*
X95554800Y-50242900D02*
X95554800Y-49174400D01*
X97904300Y-46824900D02*
X100164900Y-46824900D01*
X95554800Y-49174400D02*
X97904300Y-46824900D01*
%TO.N,Net-(R29-Pad2)*%
X95104790Y-50042910D02*
X95104791Y-48987999D01*
X92830600Y-52317100D02*
X95104790Y-50042910D01*
X91795600Y-52317100D02*
X92830600Y-52317100D01*
X100114100Y-43978690D02*
X100114100Y-43700700D01*
X95104791Y-48987999D02*
X100114100Y-43978690D01*
%TO.N,Net-(R30-Pad2)*%
X94654781Y-49856509D02*
X94654782Y-48801598D01*
X92844190Y-51667100D02*
X94654781Y-49856509D01*
X91795600Y-51667100D02*
X92844190Y-51667100D01*
X94654782Y-48801598D02*
X98869500Y-44586880D01*
X98869500Y-43872298D02*
X100222198Y-42519600D01*
X98869500Y-44586880D02*
X98869500Y-43872298D01*
X100222198Y-40684598D02*
X100203000Y-40665400D01*
X100222198Y-42519600D02*
X100222198Y-40684598D01*
%TO.N,Net-(R31-Pad2)*%
X94204772Y-49642928D02*
X94204773Y-48615197D01*
X92830600Y-51017100D02*
X94204772Y-49642928D01*
X91795600Y-51017100D02*
X92830600Y-51017100D01*
X98419490Y-44400480D02*
X98419491Y-43685897D01*
X94204773Y-48615197D02*
X98419490Y-44400480D01*
X99477999Y-42627389D02*
X99477999Y-40323601D01*
X98419491Y-43685897D02*
X99477999Y-42627389D01*
X100736400Y-39065200D02*
X100736400Y-37477700D01*
X99477999Y-40323601D02*
X100736400Y-39065200D01*
%TO.N,Net-(R32-Pad2)*%
X93754763Y-49442937D02*
X93754764Y-48428796D01*
X92830600Y-50367100D02*
X93754763Y-49442937D01*
X91795600Y-50367100D02*
X92830600Y-50367100D01*
X97969481Y-44214079D02*
X97969482Y-43499496D01*
X93754764Y-48428796D02*
X97969481Y-44214079D01*
X99027989Y-42440989D02*
X99027990Y-40137200D01*
X97969482Y-43499496D02*
X99027989Y-42440989D01*
X99027990Y-40137200D02*
X99961700Y-39203490D01*
X99961700Y-34544000D02*
X100203000Y-34302700D01*
X99961700Y-39203490D02*
X99961700Y-34544000D01*
%TO.N,Net-(R33-Pad2)*%
X105557299Y-56154299D02*
X106603800Y-57200800D01*
X105557299Y-46351101D02*
X105557299Y-56154299D01*
X111486600Y-40421800D02*
X105557299Y-46351101D01*
X112521600Y-40421800D02*
X111486600Y-40421800D01*
%TO.N,Net-(R34-Pad2)*%
X106781600Y-41071800D02*
X106781600Y-44490390D01*
X106781600Y-44490390D02*
X105107289Y-46164701D01*
X105107289Y-52864498D02*
X104286775Y-53685012D01*
X105107289Y-46164701D02*
X105107289Y-52864498D01*
%TO.N,Net-(R35-Pad2)*%
X105671599Y-40606799D02*
X105671599Y-44963981D01*
X105856598Y-40421800D02*
X105671599Y-40606799D01*
X106781600Y-40421800D02*
X105856598Y-40421800D01*
X105671599Y-44963981D02*
X104657279Y-45978301D01*
X104657279Y-50207405D02*
X104304139Y-50560545D01*
X104657279Y-45978301D02*
X104657279Y-50207405D01*
%TO.N,Net-(R36-Pad2)*%
X105870188Y-39771800D02*
X105221589Y-40420399D01*
X106781600Y-39771800D02*
X105870188Y-39771800D01*
X105221589Y-40420399D02*
X105221589Y-44777581D01*
X103932279Y-46066891D02*
X103932279Y-47524034D01*
X105221589Y-44777581D02*
X103932279Y-46066891D01*
%TO.N,Net-(R37-Pad2)*%
X105746600Y-39121800D02*
X104771579Y-40096821D01*
X106781600Y-39121800D02*
X105746600Y-39121800D01*
X104771579Y-40096821D02*
X104771579Y-43728567D01*
X104771579Y-43830790D02*
X104126685Y-44475684D01*
X104771579Y-43728567D02*
X104771579Y-43830790D01*
%TO.N,Net-(R38-Pad2)*%
X105746600Y-38471800D02*
X104228900Y-39989500D01*
X106781600Y-38471800D02*
X105746600Y-38471800D01*
X104228900Y-41020651D02*
X104046579Y-41202972D01*
X104228900Y-39989500D02*
X104228900Y-41020651D01*
%TO.N,Net-(R39-Pad2)*%
X104561021Y-37821800D02*
X104213838Y-38168983D01*
X106781600Y-37821800D02*
X104561021Y-37821800D01*
%TO.N,Net-(R40-Pad2)*%
X104309738Y-35734938D02*
X104309738Y-34896630D01*
X105746600Y-37171800D02*
X104309738Y-35734938D01*
X106781600Y-37171800D02*
X105746600Y-37171800D01*
%TO.N,Net-(R41-Pad2)*%
X113715198Y-57200800D02*
X114007900Y-57200800D01*
X111297299Y-54782901D02*
X113715198Y-57200800D01*
X111297299Y-53742901D02*
X111297299Y-54782901D01*
X111372300Y-53667900D02*
X111297299Y-53742901D01*
X112407300Y-53667900D02*
X111372300Y-53667900D01*
%TO.N,Net-(R42-Pad2)*%
X106667300Y-54317900D02*
X107797600Y-54317900D01*
X112229900Y-58750200D02*
X113982500Y-58750200D01*
X107797600Y-54317900D02*
X112229900Y-58750200D01*
%TO.N,Net-(R43-Pad2)*%
X114998500Y-49999900D02*
X115023900Y-49974500D01*
X116586000Y-49974500D02*
X115023900Y-49974500D01*
X117335300Y-50723800D02*
X116586000Y-49974500D01*
X117335300Y-56489600D02*
X117335300Y-50723800D01*
X115799701Y-58025199D02*
X117335300Y-56489600D01*
X112141309Y-58025199D02*
X115799701Y-58025199D01*
X107784010Y-53667900D02*
X112141309Y-58025199D01*
X106667300Y-53667900D02*
X107784010Y-53667900D01*
%TO.N,Net-(R44-Pad2)*%
X106667300Y-53017900D02*
X109435890Y-53017900D01*
X110300184Y-52153606D02*
X110300184Y-48703816D01*
X109435890Y-53017900D02*
X110300184Y-52153606D01*
X110300184Y-48703816D02*
X112217200Y-46786800D01*
X112445800Y-46786800D02*
X114922300Y-46786800D01*
X112217200Y-46786800D02*
X112445800Y-46786800D01*
%TO.N,Net-(R45-Pad2)*%
X109850174Y-51967206D02*
X109850174Y-46208102D01*
X109850174Y-46208102D02*
X110242688Y-45815588D01*
X109449480Y-52367900D02*
X109850174Y-51967206D01*
X106667300Y-52367900D02*
X109449480Y-52367900D01*
X110242688Y-45815588D02*
X111719790Y-44338485D01*
%TO.N,Net-(R46-Pad2)*%
X112649000Y-43230800D02*
X115252500Y-40627300D01*
X111754473Y-43230800D02*
X112649000Y-43230800D01*
X110994789Y-43990484D02*
X111754473Y-43230800D01*
X110994789Y-44427076D02*
X110994789Y-43990484D01*
X109400164Y-46021701D02*
X110994789Y-44427076D01*
X109400164Y-51318336D02*
X109400164Y-46021701D01*
X109000600Y-51717900D02*
X109400164Y-51318336D01*
X106667300Y-51717900D02*
X109000600Y-51717900D01*
%TO.N,Net-(R47-Pad2)*%
X111568073Y-42780790D02*
X112462600Y-42780790D01*
X114515900Y-40716200D02*
X114527190Y-40716200D01*
X113631601Y-41600499D02*
X114515900Y-40716200D01*
X113631601Y-41611789D02*
X113631601Y-41600499D01*
X112462600Y-42780790D02*
X113631601Y-41611789D01*
X114527190Y-37923610D02*
X114973100Y-37477700D01*
X114527190Y-40716200D02*
X114527190Y-37923610D01*
X110544779Y-43804085D02*
X111013582Y-43335282D01*
X110544779Y-44240676D02*
X110544779Y-43804085D01*
X108950155Y-45835300D02*
X110544779Y-44240676D01*
X108950154Y-50853946D02*
X108950155Y-45835300D01*
X108736200Y-51067900D02*
X108950154Y-50853946D01*
X106667300Y-51067900D02*
X108736200Y-51067900D01*
X111013582Y-43335282D02*
X111568073Y-42780790D01*
%TO.N,Net-(R48-Pad2)*%
X110094769Y-44054276D02*
X110094769Y-43228789D01*
X108500145Y-49919655D02*
X108500146Y-45648899D01*
X108500146Y-45648899D02*
X110094769Y-44054276D01*
X108001900Y-50417900D02*
X108500145Y-49919655D01*
X110094769Y-43228789D02*
X110373929Y-42949629D01*
X106667300Y-50417900D02*
X108001900Y-50417900D01*
%TO.N,Net-(R49-Pad2)*%
X126167800Y-40421800D02*
X120243600Y-46346000D01*
X127202800Y-40421800D02*
X126167800Y-40421800D01*
X120243600Y-56299100D02*
X121246900Y-57302400D01*
X120243600Y-46346000D02*
X120243600Y-56299100D01*
%TO.N,Net-(R50-Pad2)*%
X121462800Y-41071800D02*
X122948700Y-41071800D01*
X123317000Y-41440100D02*
X123317000Y-42636190D01*
X122948700Y-41071800D02*
X123317000Y-41440100D01*
X123317000Y-42636190D02*
X119793590Y-46159600D01*
X119793590Y-46159600D02*
X119793590Y-49421210D01*
X119793590Y-49421210D02*
X119793590Y-52723210D01*
X118786837Y-53729963D02*
X118786837Y-53824483D01*
X119793590Y-52723210D02*
X118786837Y-53729963D01*
%TO.N,Net-(R51-Pad2)*%
X120352799Y-40496801D02*
X120352799Y-44963981D01*
X120427800Y-40421800D02*
X120352799Y-40496801D01*
X121462800Y-40421800D02*
X120427800Y-40421800D01*
X119343580Y-45973200D02*
X119343580Y-49909320D01*
X120352799Y-44963981D02*
X119343580Y-45973200D01*
X118933441Y-50319459D02*
X118933441Y-50537927D01*
X119343580Y-49909320D02*
X118933441Y-50319459D01*
%TO.N,Net-(R52-Pad2)*%
X120427800Y-39771800D02*
X119895129Y-40304471D01*
X121462800Y-39771800D02*
X120427800Y-39771800D01*
X119895129Y-40304471D02*
X119895129Y-44785241D01*
X118618580Y-46061790D02*
X118618580Y-47434500D01*
X119895129Y-44785241D02*
X118618580Y-46061790D01*
%TO.N,Net-(R53-Pad2)*%
X120427800Y-39121800D02*
X119445119Y-40104481D01*
X121462800Y-39121800D02*
X120427800Y-39121800D01*
X119445119Y-43712187D02*
X118917920Y-44239386D01*
X119445119Y-40104481D02*
X119445119Y-43712187D01*
%TO.N,Net-(R54-Pad2)*%
X118720119Y-40179481D02*
X118720119Y-41193113D01*
X120427800Y-38471800D02*
X118720119Y-40179481D01*
X121462800Y-38471800D02*
X120427800Y-38471800D01*
%TO.N,Net-(R55-Pad2)*%
X119184207Y-37821800D02*
X118938521Y-38067486D01*
X121462800Y-37821800D02*
X119184207Y-37821800D01*
%TO.N,Net-(R56-Pad2)*%
X122572801Y-34739601D02*
X122123200Y-34290000D01*
X122572801Y-37096799D02*
X122572801Y-34739601D01*
X122497800Y-37171800D02*
X122572801Y-37096799D01*
X121462800Y-37171800D02*
X122497800Y-37171800D01*
%TO.N,Net-(R57-Pad2)*%
X127113900Y-53667900D02*
X125926436Y-53667900D01*
%TO.N,Net-(R58-Pad2)*%
X121373900Y-54317900D02*
X121373900Y-55600600D01*
X121373900Y-55600600D02*
X123913900Y-58140600D01*
X123913900Y-58140600D02*
X127787400Y-58140600D01*
X129298700Y-56629300D02*
X129298700Y-53149500D01*
X127787400Y-58140600D02*
X129298700Y-56629300D01*
%TO.N,Net-(R59-Pad2)*%
X122720100Y-53979100D02*
X122720100Y-56310390D01*
X122408900Y-53667900D02*
X122720100Y-53979100D01*
X121373900Y-53667900D02*
X122408900Y-53667900D01*
X122720100Y-56310390D02*
X124100300Y-57690590D01*
X124100300Y-57690590D02*
X127601000Y-57690590D01*
X128573699Y-56717891D02*
X128573699Y-52782301D01*
X127601000Y-57690590D02*
X128573699Y-56717891D01*
X129311400Y-52044600D02*
X129311400Y-50050700D01*
X128573699Y-52782301D02*
X129311400Y-52044600D01*
%TO.N,Net-(R60-Pad2)*%
X121373900Y-53017900D02*
X122216700Y-53017900D01*
X122216700Y-53017900D02*
X123283500Y-53017900D01*
X123283500Y-53017900D02*
X124929900Y-51371500D01*
X124929900Y-51371500D02*
X124929900Y-49834800D01*
X127914400Y-46850300D02*
X129298700Y-46850300D01*
X124929900Y-49834800D02*
X127914400Y-46850300D01*
%TO.N,Net-(R61-Pad2)*%
X121373900Y-52367900D02*
X123297090Y-52367900D01*
X124479890Y-51185100D02*
X124479891Y-49648399D01*
X123297090Y-52367900D02*
X124479890Y-51185100D01*
X129400300Y-44727990D02*
X129400300Y-43764200D01*
X124479891Y-49648399D02*
X129400300Y-44727990D01*
%TO.N,Net-(R62-Pad2)*%
X129957999Y-43039199D02*
X130429000Y-42568198D01*
X130429000Y-42568198D02*
X130429000Y-41770300D01*
X129052299Y-43039199D02*
X129957999Y-43039199D01*
X128625600Y-44866280D02*
X128625600Y-43465898D01*
X130429000Y-41770300D02*
X129336800Y-40678100D01*
X124029882Y-49461998D02*
X128625600Y-44866280D01*
X128625600Y-43465898D02*
X129052299Y-43039199D01*
X124029881Y-50998699D02*
X124029882Y-49461998D01*
X123310680Y-51717900D02*
X124029881Y-50998699D01*
X121373900Y-51717900D02*
X123310680Y-51717900D01*
%TO.N,Net-(R63-Pad2)*%
X121373900Y-51067900D02*
X123324270Y-51067900D01*
X123579872Y-50812298D02*
X123579873Y-49275597D01*
X123324270Y-51067900D02*
X123579872Y-50812298D01*
X123579873Y-49275597D02*
X127455085Y-45400385D01*
X128175590Y-44671410D02*
X128175590Y-43279498D01*
X127455085Y-45391915D02*
X128175590Y-44671410D01*
X127455085Y-45400385D02*
X127455085Y-45391915D01*
X128611799Y-38431301D02*
X129514600Y-37528500D01*
X128611799Y-42843289D02*
X128611799Y-38431301D01*
X128175590Y-43279498D02*
X128611799Y-42843289D01*
%TO.N,Net-(R64-Pad2)*%
X121373900Y-50417900D02*
X122775363Y-50417900D01*
X123129863Y-50063400D02*
X123129863Y-48967837D01*
X122775363Y-50417900D02*
X123129863Y-50063400D01*
X124879100Y-47218600D02*
X124879100Y-44615100D01*
X123129863Y-48967837D02*
X124879100Y-47218600D01*
%TD*%
D17*
%TO.N,GND*%
X132300202Y-31279303D02*
X132389849Y-31306370D01*
X132472537Y-31350335D01*
X132545106Y-31409522D01*
X132604804Y-31481684D01*
X132649341Y-31564054D01*
X132677034Y-31653515D01*
X132690001Y-31776888D01*
X132690000Y-58671792D01*
X132612562Y-58749230D01*
X132354402Y-58346627D01*
X131834985Y-58071049D01*
X131271787Y-57902099D01*
X130686450Y-57846270D01*
X130101467Y-57905708D01*
X129539321Y-58078129D01*
X129036998Y-58346627D01*
X128778837Y-58749232D01*
X130695700Y-60666095D01*
X130709843Y-60651953D01*
X130889448Y-60831558D01*
X130875305Y-60845700D01*
X130889448Y-60859843D01*
X130709843Y-61039448D01*
X130695700Y-61025305D01*
X130681558Y-61039448D01*
X130501953Y-60859843D01*
X130516095Y-60845700D01*
X128599232Y-58928837D01*
X128196627Y-59186998D01*
X127921049Y-59706415D01*
X127752099Y-60269613D01*
X127696270Y-60854950D01*
X127755708Y-61439933D01*
X127928129Y-62002079D01*
X128196627Y-62504402D01*
X128599230Y-62762562D01*
X128521792Y-62840000D01*
X112593101Y-62840000D01*
X112688992Y-62744109D01*
X112909140Y-62787900D01*
X113201660Y-62787900D01*
X113488558Y-62730832D01*
X113758811Y-62618890D01*
X114002032Y-62456375D01*
X114208875Y-62249532D01*
X114325400Y-62075140D01*
X114441925Y-62249532D01*
X114648768Y-62456375D01*
X114891989Y-62618890D01*
X115162242Y-62730832D01*
X115449140Y-62787900D01*
X115741660Y-62787900D01*
X116028558Y-62730832D01*
X116298811Y-62618890D01*
X116542032Y-62456375D01*
X116748875Y-62249532D01*
X116870595Y-62067366D01*
X116940222Y-62184255D01*
X117135131Y-62400488D01*
X117368480Y-62574541D01*
X117631301Y-62699725D01*
X117778510Y-62744376D01*
X118008400Y-62623055D01*
X118008400Y-61429900D01*
X118262400Y-61429900D01*
X118262400Y-62623055D01*
X118492290Y-62744376D01*
X118639499Y-62699725D01*
X118902320Y-62574541D01*
X119135669Y-62400488D01*
X119330578Y-62184255D01*
X119479557Y-61934152D01*
X119576881Y-61659791D01*
X119456214Y-61429900D01*
X118262400Y-61429900D01*
X118008400Y-61429900D01*
X117988400Y-61429900D01*
X117988400Y-61175900D01*
X118008400Y-61175900D01*
X118008400Y-59982745D01*
X118262400Y-59982745D01*
X118262400Y-61175900D01*
X119456214Y-61175900D01*
X119576881Y-60946009D01*
X119479557Y-60671648D01*
X119330578Y-60421545D01*
X119135669Y-60205312D01*
X118902320Y-60031259D01*
X118639499Y-59906075D01*
X118492290Y-59861424D01*
X118262400Y-59982745D01*
X118008400Y-59982745D01*
X117778510Y-59861424D01*
X117631301Y-59906075D01*
X117368480Y-60031259D01*
X117135131Y-60205312D01*
X116940222Y-60421545D01*
X116870595Y-60538434D01*
X116748875Y-60356268D01*
X116542032Y-60149425D01*
X116298811Y-59986910D01*
X116028558Y-59874968D01*
X115741660Y-59817900D01*
X115449140Y-59817900D01*
X115162242Y-59874968D01*
X114891989Y-59986910D01*
X114648768Y-60149425D01*
X114441925Y-60356268D01*
X114325400Y-60530660D01*
X114208875Y-60356268D01*
X114002032Y-60149425D01*
X113758811Y-59986910D01*
X113488558Y-59874968D01*
X113201660Y-59817900D01*
X112909140Y-59817900D01*
X112622242Y-59874968D01*
X112351989Y-59986910D01*
X112108768Y-60149425D01*
X111901925Y-60356268D01*
X111785400Y-60530660D01*
X111668875Y-60356268D01*
X111462032Y-60149425D01*
X111275400Y-60024722D01*
X111275400Y-58870502D01*
X111666101Y-59261203D01*
X111689899Y-59290201D01*
X111805624Y-59385174D01*
X111937653Y-59455746D01*
X112080914Y-59499203D01*
X112192567Y-59510200D01*
X112192575Y-59510200D01*
X112229900Y-59513876D01*
X112267225Y-59510200D01*
X113278789Y-59510200D01*
X113322726Y-59554137D01*
X113492244Y-59667405D01*
X113680602Y-59745426D01*
X113880561Y-59785200D01*
X114084439Y-59785200D01*
X114284398Y-59745426D01*
X114472756Y-59667405D01*
X114642274Y-59554137D01*
X114786437Y-59409974D01*
X114899705Y-59240456D01*
X114977726Y-59052098D01*
X115017500Y-58852139D01*
X115017500Y-58785199D01*
X115762379Y-58785199D01*
X115799701Y-58788875D01*
X115837023Y-58785199D01*
X115837034Y-58785199D01*
X115948687Y-58774202D01*
X116091948Y-58730745D01*
X116223977Y-58660173D01*
X116339702Y-58565200D01*
X116363505Y-58536196D01*
X117846304Y-57053398D01*
X117875301Y-57029601D01*
X117913975Y-56982477D01*
X117970274Y-56913877D01*
X118040846Y-56781847D01*
X118041926Y-56778286D01*
X118084303Y-56638586D01*
X118095300Y-56526933D01*
X118095300Y-56526923D01*
X118098976Y-56489600D01*
X118095300Y-56452277D01*
X118095300Y-54596657D01*
X118127063Y-54628420D01*
X118296581Y-54741688D01*
X118484939Y-54819709D01*
X118684898Y-54859483D01*
X118888776Y-54859483D01*
X119088735Y-54819709D01*
X119277093Y-54741688D01*
X119446611Y-54628420D01*
X119483601Y-54591430D01*
X119483601Y-56261768D01*
X119479924Y-56299100D01*
X119483601Y-56336433D01*
X119494598Y-56448086D01*
X119503847Y-56478577D01*
X119538054Y-56591346D01*
X119608626Y-56723376D01*
X119675035Y-56804295D01*
X119703600Y-56839101D01*
X119732598Y-56862899D01*
X120211900Y-57342202D01*
X120211900Y-57404339D01*
X120251674Y-57604298D01*
X120329695Y-57792656D01*
X120442963Y-57962174D01*
X120587126Y-58106337D01*
X120756644Y-58219605D01*
X120945002Y-58297626D01*
X121144961Y-58337400D01*
X121348839Y-58337400D01*
X121548798Y-58297626D01*
X121737156Y-58219605D01*
X121906674Y-58106337D01*
X122050837Y-57962174D01*
X122164105Y-57792656D01*
X122242126Y-57604298D01*
X122252192Y-57553694D01*
X123350105Y-58651608D01*
X123373899Y-58680601D01*
X123402892Y-58704395D01*
X123402896Y-58704399D01*
X123466382Y-58756500D01*
X123489624Y-58775574D01*
X123621653Y-58846146D01*
X123764914Y-58889603D01*
X123876567Y-58900600D01*
X123876576Y-58900600D01*
X123913899Y-58904276D01*
X123951222Y-58900600D01*
X127750078Y-58900600D01*
X127787400Y-58904276D01*
X127824722Y-58900600D01*
X127824733Y-58900600D01*
X127936386Y-58889603D01*
X128079647Y-58846146D01*
X128211676Y-58775574D01*
X128327401Y-58680601D01*
X128351204Y-58651597D01*
X129809704Y-57193098D01*
X129838701Y-57169301D01*
X129873084Y-57127405D01*
X129933674Y-57053577D01*
X130004246Y-56921547D01*
X130005329Y-56917976D01*
X130047703Y-56778286D01*
X130058700Y-56666633D01*
X130058700Y-56666623D01*
X130062376Y-56629300D01*
X130058700Y-56591977D01*
X130058700Y-53853211D01*
X130102637Y-53809274D01*
X130215905Y-53639756D01*
X130293926Y-53451398D01*
X130333700Y-53251439D01*
X130333700Y-53047561D01*
X130293926Y-52847602D01*
X130215905Y-52659244D01*
X130102637Y-52489726D01*
X129993542Y-52380631D01*
X130016946Y-52336847D01*
X130060403Y-52193586D01*
X130071400Y-52081933D01*
X130071400Y-52081925D01*
X130075076Y-52044600D01*
X130071400Y-52007275D01*
X130071400Y-50754411D01*
X130115337Y-50710474D01*
X130228605Y-50540956D01*
X130306626Y-50352598D01*
X130346400Y-50152639D01*
X130346400Y-49948761D01*
X130306626Y-49748802D01*
X130293462Y-49717021D01*
X130401091Y-49555942D01*
X130479112Y-49367584D01*
X130518886Y-49167625D01*
X130518886Y-48963747D01*
X130479112Y-48763788D01*
X130401091Y-48575430D01*
X130287823Y-48405912D01*
X130143660Y-48261749D01*
X129974142Y-48148481D01*
X129785784Y-48070460D01*
X129585825Y-48030686D01*
X129381947Y-48030686D01*
X129181988Y-48070460D01*
X128993630Y-48148481D01*
X128824112Y-48261749D01*
X128679949Y-48405912D01*
X128566681Y-48575430D01*
X128515638Y-48698657D01*
X128206825Y-49007471D01*
X128143080Y-48973398D01*
X128023382Y-48937088D01*
X127898900Y-48924828D01*
X126914674Y-48924828D01*
X128229203Y-47610300D01*
X128594989Y-47610300D01*
X128638926Y-47654237D01*
X128808444Y-47767505D01*
X128996802Y-47845526D01*
X129196761Y-47885300D01*
X129400639Y-47885300D01*
X129600598Y-47845526D01*
X129788956Y-47767505D01*
X129958474Y-47654237D01*
X130102637Y-47510074D01*
X130215905Y-47340556D01*
X130293926Y-47152198D01*
X130333700Y-46952239D01*
X130333700Y-46748361D01*
X130293926Y-46548402D01*
X130215905Y-46360044D01*
X130102637Y-46190526D01*
X129958474Y-46046363D01*
X129788956Y-45933095D01*
X129600598Y-45855074D01*
X129400639Y-45815300D01*
X129387792Y-45815300D01*
X129911304Y-45291788D01*
X129940301Y-45267991D01*
X129972056Y-45229298D01*
X130035274Y-45152267D01*
X130105846Y-45020237D01*
X130113866Y-44993798D01*
X130149303Y-44876976D01*
X130160300Y-44765323D01*
X130160300Y-44765314D01*
X130163976Y-44727991D01*
X130160300Y-44690668D01*
X130160300Y-44467911D01*
X130204237Y-44423974D01*
X130317505Y-44254456D01*
X130395526Y-44066098D01*
X130435300Y-43866139D01*
X130435300Y-43662261D01*
X130429896Y-43635092D01*
X130498000Y-43579200D01*
X130521803Y-43550196D01*
X130939998Y-43132001D01*
X130969001Y-43108199D01*
X131040929Y-43020555D01*
X131063974Y-42992475D01*
X131134546Y-42860445D01*
X131139750Y-42843289D01*
X131178003Y-42717184D01*
X131189000Y-42605531D01*
X131189000Y-42605521D01*
X131192676Y-42568199D01*
X131189000Y-42530876D01*
X131189000Y-41807622D01*
X131192676Y-41770299D01*
X131189000Y-41732976D01*
X131189000Y-41732967D01*
X131178003Y-41621314D01*
X131134546Y-41478053D01*
X131126225Y-41462485D01*
X131063974Y-41346023D01*
X130992799Y-41259297D01*
X130969001Y-41230299D01*
X130940003Y-41206501D01*
X130371800Y-40638299D01*
X130371800Y-40576161D01*
X130332026Y-40376202D01*
X130254005Y-40187844D01*
X130140737Y-40018326D01*
X129996574Y-39874163D01*
X129827056Y-39760895D01*
X129638698Y-39682874D01*
X129438739Y-39643100D01*
X129371799Y-39643100D01*
X129371799Y-38746103D01*
X129554402Y-38563500D01*
X129616539Y-38563500D01*
X129816498Y-38523726D01*
X130004856Y-38445705D01*
X130174374Y-38332437D01*
X130318537Y-38188274D01*
X130431805Y-38018756D01*
X130509826Y-37830398D01*
X130549600Y-37630439D01*
X130549600Y-37426561D01*
X130509826Y-37226602D01*
X130431805Y-37038244D01*
X130318537Y-36868726D01*
X130174374Y-36724563D01*
X130004856Y-36611295D01*
X129816498Y-36533274D01*
X129616539Y-36493500D01*
X129412661Y-36493500D01*
X129212702Y-36533274D01*
X129024344Y-36611295D01*
X128854826Y-36724563D01*
X128710663Y-36868726D01*
X128625872Y-36995625D01*
X128625872Y-36966800D01*
X128614053Y-36846800D01*
X128625872Y-36726800D01*
X128625872Y-36316800D01*
X128613612Y-36192318D01*
X128577302Y-36072620D01*
X128518337Y-35962306D01*
X128438985Y-35865615D01*
X128342294Y-35786263D01*
X128231980Y-35727298D01*
X128112282Y-35690988D01*
X127987800Y-35678728D01*
X126417800Y-35678728D01*
X126293318Y-35690988D01*
X126173620Y-35727298D01*
X126063306Y-35786263D01*
X125966615Y-35865615D01*
X125887263Y-35962306D01*
X125828298Y-36072620D01*
X125791988Y-36192318D01*
X125779728Y-36316800D01*
X125779728Y-36411800D01*
X124703900Y-36411800D01*
X124666577Y-36408124D01*
X124648511Y-36409903D01*
X124520813Y-36384503D01*
X124316935Y-36384503D01*
X124116976Y-36424277D01*
X123928618Y-36502298D01*
X123759100Y-36615566D01*
X123614937Y-36759729D01*
X123501669Y-36929247D01*
X123423648Y-37117605D01*
X123383874Y-37317564D01*
X123383874Y-37521442D01*
X123423648Y-37721401D01*
X123501669Y-37909759D01*
X123517384Y-37933278D01*
X123506186Y-37950036D01*
X123428165Y-38138394D01*
X123388391Y-38338353D01*
X123388391Y-38542231D01*
X123428165Y-38742190D01*
X123506186Y-38930548D01*
X123523782Y-38956882D01*
X123522042Y-38959486D01*
X123444021Y-39147844D01*
X123404247Y-39347803D01*
X123404247Y-39551681D01*
X123444021Y-39751640D01*
X123522042Y-39939998D01*
X123541867Y-39969668D01*
X123467171Y-40149999D01*
X123427397Y-40349958D01*
X123427397Y-40481488D01*
X123372976Y-40436826D01*
X123240947Y-40366254D01*
X123097686Y-40322797D01*
X122986033Y-40311800D01*
X122986022Y-40311800D01*
X122948700Y-40308124D01*
X122911378Y-40311800D01*
X122885872Y-40311800D01*
X122885872Y-40216800D01*
X122874053Y-40096800D01*
X122885872Y-39976800D01*
X122885872Y-39566800D01*
X122874053Y-39446800D01*
X122885872Y-39326800D01*
X122885872Y-38916800D01*
X122874053Y-38796800D01*
X122885872Y-38676800D01*
X122885872Y-38266800D01*
X122874053Y-38146800D01*
X122885872Y-38026800D01*
X122885872Y-37826126D01*
X122922076Y-37806774D01*
X123037801Y-37711801D01*
X123061602Y-37682800D01*
X123083803Y-37660599D01*
X123112802Y-37636800D01*
X123207775Y-37521075D01*
X123278347Y-37389046D01*
X123321804Y-37245785D01*
X123332801Y-37134132D01*
X123332801Y-37134122D01*
X123336477Y-37096800D01*
X123332801Y-37059477D01*
X123332801Y-35233595D01*
X123440163Y-35394274D01*
X123584326Y-35538437D01*
X123753844Y-35651705D01*
X123942202Y-35729726D01*
X124142161Y-35769500D01*
X124346039Y-35769500D01*
X124545998Y-35729726D01*
X124734356Y-35651705D01*
X124903874Y-35538437D01*
X125048037Y-35394274D01*
X125161305Y-35224756D01*
X125239326Y-35036398D01*
X125279100Y-34836439D01*
X125279100Y-34632561D01*
X125239326Y-34432602D01*
X125161305Y-34244244D01*
X125048037Y-34074726D01*
X124903874Y-33930563D01*
X124734356Y-33817295D01*
X124545998Y-33739274D01*
X124346039Y-33699500D01*
X124283902Y-33699500D01*
X123638403Y-33054002D01*
X123614600Y-33024998D01*
X123498875Y-32930025D01*
X123366846Y-32859453D01*
X123223585Y-32815996D01*
X123111932Y-32804999D01*
X123111921Y-32804999D01*
X123074599Y-32801323D01*
X123037277Y-32804999D01*
X104605689Y-32804999D01*
X104568366Y-32801323D01*
X104531043Y-32804999D01*
X104531034Y-32804999D01*
X104419381Y-32815996D01*
X104276120Y-32859453D01*
X104144090Y-32930025D01*
X104060450Y-32998667D01*
X104028366Y-33024998D01*
X104004568Y-33053996D01*
X101902899Y-35155666D01*
X101873901Y-35179464D01*
X101850103Y-35208462D01*
X101850102Y-35208463D01*
X101778927Y-35295189D01*
X101708355Y-35427219D01*
X101689735Y-35488603D01*
X101664899Y-35570479D01*
X101654237Y-35678728D01*
X101650225Y-35719465D01*
X101653902Y-35756798D01*
X101653902Y-36988161D01*
X101653605Y-36987444D01*
X101540337Y-36817926D01*
X101396174Y-36673763D01*
X101226656Y-36560495D01*
X101038298Y-36482474D01*
X100838339Y-36442700D01*
X100721700Y-36442700D01*
X100721700Y-35200899D01*
X100862774Y-35106637D01*
X101006937Y-34962474D01*
X101120205Y-34792956D01*
X101198226Y-34604598D01*
X101238000Y-34404639D01*
X101238000Y-34200761D01*
X101198226Y-34000802D01*
X101120205Y-33812444D01*
X101006937Y-33642926D01*
X100862774Y-33498763D01*
X100693256Y-33385495D01*
X100504898Y-33307474D01*
X100304939Y-33267700D01*
X100101061Y-33267700D01*
X99901102Y-33307474D01*
X99712744Y-33385495D01*
X99543226Y-33498763D01*
X99399063Y-33642926D01*
X99285795Y-33812444D01*
X99207774Y-34000802D01*
X99168000Y-34200761D01*
X99168000Y-34404639D01*
X99200283Y-34566940D01*
X99201701Y-34581332D01*
X99201700Y-38888688D01*
X99060272Y-39030116D01*
X99060272Y-38866000D01*
X99048453Y-38746000D01*
X99060272Y-38626000D01*
X99060272Y-38216000D01*
X99048453Y-38096000D01*
X99060272Y-37976000D01*
X99060272Y-37566000D01*
X99048453Y-37446000D01*
X99060272Y-37326000D01*
X99060272Y-36916000D01*
X99048453Y-36796000D01*
X99060272Y-36676000D01*
X99060272Y-36266000D01*
X99048012Y-36141518D01*
X99011702Y-36021820D01*
X98952737Y-35911506D01*
X98873385Y-35814815D01*
X98776694Y-35735463D01*
X98666380Y-35676498D01*
X98546682Y-35640188D01*
X98422200Y-35627928D01*
X96852200Y-35627928D01*
X96727718Y-35640188D01*
X96608020Y-35676498D01*
X96497706Y-35735463D01*
X96401015Y-35814815D01*
X96321663Y-35911506D01*
X96262698Y-36021820D01*
X96226388Y-36141518D01*
X96214128Y-36266000D01*
X96214128Y-36361000D01*
X94782175Y-36361000D01*
X94768088Y-36326992D01*
X94654820Y-36157474D01*
X94510657Y-36013311D01*
X94341139Y-35900043D01*
X94152781Y-35822022D01*
X93952822Y-35782248D01*
X93748944Y-35782248D01*
X93548985Y-35822022D01*
X93360627Y-35900043D01*
X93247322Y-35975751D01*
X93207579Y-35903904D01*
X93126842Y-35808366D01*
X93029019Y-35730414D01*
X92917867Y-35673044D01*
X92797659Y-35638461D01*
X92673013Y-35627994D01*
X92182950Y-35631000D01*
X92024200Y-35789750D01*
X92024200Y-35934675D01*
X91770200Y-35934675D01*
X91770200Y-35789750D01*
X91611450Y-35631000D01*
X91121387Y-35627994D01*
X90996741Y-35638461D01*
X90876533Y-35673044D01*
X90765381Y-35730414D01*
X90667558Y-35808366D01*
X90647776Y-35831775D01*
X90487250Y-35671249D01*
X90572743Y-35543300D01*
X90650764Y-35354942D01*
X90690538Y-35154983D01*
X90690538Y-34951105D01*
X90650764Y-34751146D01*
X90572743Y-34562788D01*
X90459475Y-34393270D01*
X90315312Y-34249107D01*
X90145794Y-34135839D01*
X89957436Y-34057818D01*
X89757477Y-34018044D01*
X89553599Y-34018044D01*
X89353640Y-34057818D01*
X89165282Y-34135839D01*
X88995764Y-34249107D01*
X88851601Y-34393270D01*
X88738333Y-34562788D01*
X88660312Y-34751146D01*
X88620538Y-34951105D01*
X88620538Y-35154983D01*
X88660312Y-35354942D01*
X88738333Y-35543300D01*
X88851601Y-35712818D01*
X88895538Y-35756755D01*
X88895538Y-35877016D01*
X88891862Y-35914338D01*
X88895538Y-35951660D01*
X88895538Y-35951670D01*
X88906535Y-36063323D01*
X88945410Y-36191479D01*
X88949992Y-36206584D01*
X89020564Y-36338614D01*
X89049356Y-36373697D01*
X89115537Y-36454339D01*
X89144541Y-36478142D01*
X89761619Y-37095221D01*
X89685279Y-37136026D01*
X89618436Y-37190883D01*
X89552733Y-37190883D01*
X89352774Y-37230657D01*
X89164416Y-37308678D01*
X88994898Y-37421946D01*
X88850735Y-37566109D01*
X88737467Y-37735627D01*
X88659446Y-37923985D01*
X88619672Y-38123944D01*
X88619672Y-38327822D01*
X88659446Y-38527781D01*
X88737467Y-38716139D01*
X88850735Y-38885657D01*
X88994898Y-39029820D01*
X89105007Y-39103392D01*
X88651182Y-39557217D01*
X88622178Y-39581020D01*
X88567242Y-39647960D01*
X88527205Y-39696745D01*
X88479055Y-39786827D01*
X88456633Y-39828775D01*
X88413176Y-39972036D01*
X88402179Y-40083689D01*
X88402179Y-40083699D01*
X88398503Y-40121021D01*
X88402179Y-40158344D01*
X88402179Y-40812589D01*
X88358242Y-40856526D01*
X88244974Y-41026044D01*
X88166953Y-41214402D01*
X88127179Y-41414361D01*
X88127179Y-41618239D01*
X88166953Y-41818198D01*
X88244974Y-42006556D01*
X88358242Y-42176074D01*
X88502405Y-42320237D01*
X88671923Y-42433505D01*
X88860281Y-42511526D01*
X88935593Y-42526506D01*
X88822076Y-42573527D01*
X88652558Y-42686795D01*
X88508395Y-42830958D01*
X88395127Y-43000476D01*
X88317106Y-43188834D01*
X88277332Y-43388793D01*
X88277332Y-43592671D01*
X88317106Y-43792630D01*
X88395127Y-43980988D01*
X88508395Y-44150506D01*
X88555729Y-44197840D01*
X88549582Y-44203987D01*
X88520578Y-44227790D01*
X88468328Y-44291457D01*
X88425605Y-44343515D01*
X88361823Y-44462842D01*
X88355033Y-44475545D01*
X88311576Y-44618806D01*
X88300579Y-44730459D01*
X88300579Y-44730469D01*
X88296903Y-44767791D01*
X88300579Y-44805114D01*
X88300580Y-47060988D01*
X88256642Y-47104926D01*
X88143374Y-47274444D01*
X88065353Y-47462802D01*
X88025579Y-47662761D01*
X88025579Y-47866639D01*
X88065353Y-48066598D01*
X88143374Y-48254956D01*
X88256642Y-48424474D01*
X88400805Y-48568637D01*
X88570323Y-48681905D01*
X88758681Y-48759926D01*
X88958640Y-48799700D01*
X89025580Y-48799700D01*
X89025580Y-49793425D01*
X89020333Y-49795598D01*
X88850815Y-49908866D01*
X88706652Y-50053029D01*
X88593384Y-50222547D01*
X88515363Y-50410905D01*
X88475589Y-50610864D01*
X88475589Y-50814742D01*
X88515363Y-51014701D01*
X88593384Y-51203059D01*
X88706652Y-51372577D01*
X88850815Y-51516740D01*
X89020333Y-51630008D01*
X89208691Y-51708029D01*
X89408650Y-51747803D01*
X89475590Y-51747803D01*
X89475590Y-52814165D01*
X89327142Y-52843693D01*
X89138784Y-52921714D01*
X88969266Y-53034982D01*
X88825103Y-53179145D01*
X88711835Y-53348663D01*
X88633814Y-53537021D01*
X88594040Y-53736980D01*
X88594040Y-53940858D01*
X88633814Y-54140817D01*
X88711835Y-54329175D01*
X88825103Y-54498693D01*
X88969266Y-54642856D01*
X89138784Y-54756124D01*
X89327142Y-54834145D01*
X89527101Y-54873919D01*
X89730979Y-54873919D01*
X89925600Y-54835207D01*
X89925600Y-56205867D01*
X89921923Y-56243199D01*
X89925600Y-56280532D01*
X89936597Y-56392185D01*
X89946747Y-56425645D01*
X89980053Y-56535445D01*
X90050625Y-56667475D01*
X90118517Y-56750201D01*
X90145599Y-56783200D01*
X90174597Y-56806998D01*
X90874900Y-57507302D01*
X90874900Y-57569439D01*
X90914674Y-57769398D01*
X90992695Y-57957756D01*
X91105963Y-58127274D01*
X91250126Y-58271437D01*
X91419644Y-58384705D01*
X91608002Y-58462726D01*
X91807961Y-58502500D01*
X92011839Y-58502500D01*
X92211798Y-58462726D01*
X92400156Y-58384705D01*
X92569674Y-58271437D01*
X92713837Y-58127274D01*
X92827105Y-57957756D01*
X92905126Y-57769398D01*
X92944900Y-57569439D01*
X92944900Y-57365561D01*
X92905126Y-57165602D01*
X92827105Y-56977244D01*
X92713837Y-56807726D01*
X92569674Y-56663563D01*
X92400156Y-56550295D01*
X92211798Y-56472274D01*
X92011839Y-56432500D01*
X91949702Y-56432500D01*
X91445599Y-55928398D01*
X91445599Y-55423700D01*
X95295801Y-59273903D01*
X95319599Y-59302901D01*
X95348597Y-59326699D01*
X95435323Y-59397874D01*
X95495086Y-59429818D01*
X95567353Y-59468446D01*
X95710614Y-59511903D01*
X95822267Y-59522900D01*
X95822277Y-59522900D01*
X95859600Y-59526576D01*
X95896923Y-59522900D01*
X98470589Y-59522900D01*
X98514526Y-59566837D01*
X98684044Y-59680105D01*
X98872402Y-59758126D01*
X99072361Y-59797900D01*
X99276239Y-59797900D01*
X99476198Y-59758126D01*
X99664556Y-59680105D01*
X99834074Y-59566837D01*
X99978237Y-59422674D01*
X100091505Y-59253156D01*
X100169526Y-59064798D01*
X100209300Y-58864839D01*
X100209300Y-58660961D01*
X100169526Y-58461002D01*
X100125027Y-58353574D01*
X101653901Y-56824701D01*
X101653901Y-58929597D01*
X100721808Y-59861691D01*
X100501660Y-59817900D01*
X100209140Y-59817900D01*
X99922242Y-59874968D01*
X99651989Y-59986910D01*
X99408768Y-60149425D01*
X99201925Y-60356268D01*
X99085400Y-60530660D01*
X98968875Y-60356268D01*
X98762032Y-60149425D01*
X98518811Y-59986910D01*
X98248558Y-59874968D01*
X97961660Y-59817900D01*
X97669140Y-59817900D01*
X97382242Y-59874968D01*
X97111989Y-59986910D01*
X96868768Y-60149425D01*
X96661925Y-60356268D01*
X96545400Y-60530660D01*
X96428875Y-60356268D01*
X96222032Y-60149425D01*
X95978811Y-59986910D01*
X95708558Y-59874968D01*
X95421660Y-59817900D01*
X95129140Y-59817900D01*
X94842242Y-59874968D01*
X94571989Y-59986910D01*
X94328768Y-60149425D01*
X94121925Y-60356268D01*
X94005400Y-60530660D01*
X93888875Y-60356268D01*
X93682032Y-60149425D01*
X93438811Y-59986910D01*
X93168558Y-59874968D01*
X92881660Y-59817900D01*
X92589140Y-59817900D01*
X92302242Y-59874968D01*
X92031989Y-59986910D01*
X91788768Y-60149425D01*
X91581925Y-60356268D01*
X91465400Y-60530660D01*
X91348875Y-60356268D01*
X91142032Y-60149425D01*
X90898811Y-59986910D01*
X90628558Y-59874968D01*
X90341660Y-59817900D01*
X90049140Y-59817900D01*
X89762242Y-59874968D01*
X89491989Y-59986910D01*
X89248768Y-60149425D01*
X89041925Y-60356268D01*
X88925400Y-60530660D01*
X88808875Y-60356268D01*
X88602032Y-60149425D01*
X88358811Y-59986910D01*
X88088558Y-59874968D01*
X87801660Y-59817900D01*
X87509140Y-59817900D01*
X87222242Y-59874968D01*
X86951989Y-59986910D01*
X86708768Y-60149425D01*
X86576913Y-60281280D01*
X86554902Y-60208720D01*
X86495937Y-60098406D01*
X86416585Y-60001715D01*
X86319894Y-59922363D01*
X86209580Y-59863398D01*
X86089882Y-59827088D01*
X85965400Y-59814828D01*
X84265400Y-59814828D01*
X84140918Y-59827088D01*
X84021220Y-59863398D01*
X83910906Y-59922363D01*
X83814215Y-60001715D01*
X83734863Y-60098406D01*
X83675898Y-60208720D01*
X83639588Y-60328418D01*
X83627328Y-60452900D01*
X83627328Y-61717901D01*
X82679504Y-61717901D01*
X82279172Y-61317570D01*
X82279172Y-61054300D01*
X82266912Y-60929818D01*
X82230602Y-60810120D01*
X82171637Y-60699806D01*
X82092285Y-60603115D01*
X82032675Y-60554195D01*
X82082858Y-60514719D01*
X82164193Y-60419689D01*
X82225426Y-60310618D01*
X82264204Y-60191697D01*
X82276100Y-60086050D01*
X82117350Y-59927300D01*
X81965800Y-59927300D01*
X81965800Y-59681300D01*
X82117350Y-59681300D01*
X82276100Y-59522550D01*
X82264204Y-59416903D01*
X82225426Y-59297982D01*
X82164193Y-59188911D01*
X82082858Y-59093881D01*
X81984547Y-59016545D01*
X81873037Y-58959875D01*
X81752614Y-58926048D01*
X81627905Y-58916364D01*
X81476850Y-58919300D01*
X81318100Y-59078050D01*
X81318100Y-59221519D01*
X81064100Y-59221519D01*
X81064100Y-59078050D01*
X80905350Y-58919300D01*
X80754295Y-58916364D01*
X80629586Y-58926048D01*
X80509163Y-58959875D01*
X80439800Y-58995126D01*
X80439800Y-58838322D01*
X80443476Y-58800999D01*
X80439800Y-58763676D01*
X80439800Y-58763667D01*
X80428803Y-58652014D01*
X80385346Y-58508753D01*
X80384600Y-58507357D01*
X80384600Y-58368861D01*
X80371639Y-58303700D01*
X84610601Y-58303700D01*
X84615474Y-58328198D01*
X84693495Y-58516556D01*
X84806763Y-58686074D01*
X84950926Y-58830237D01*
X85120444Y-58943505D01*
X85308802Y-59021526D01*
X85508761Y-59061300D01*
X85712639Y-59061300D01*
X85912598Y-59021526D01*
X86100956Y-58943505D01*
X86270474Y-58830237D01*
X86414637Y-58686074D01*
X86527905Y-58516556D01*
X86605926Y-58328198D01*
X86645700Y-58128239D01*
X86645700Y-57924361D01*
X86605926Y-57724402D01*
X86527905Y-57536044D01*
X86520276Y-57524627D01*
X86922904Y-57121999D01*
X86951902Y-57098202D01*
X87046875Y-56982477D01*
X87117447Y-56850448D01*
X87160904Y-56707187D01*
X87171901Y-56595534D01*
X87171901Y-56595524D01*
X87175577Y-56558201D01*
X87171901Y-56520878D01*
X87171901Y-50889224D01*
X87175577Y-50851901D01*
X87171901Y-50814578D01*
X87171901Y-50814568D01*
X87160904Y-50702915D01*
X87117447Y-50559654D01*
X87046875Y-50427625D01*
X86951902Y-50311900D01*
X86922903Y-50288102D01*
X86658400Y-50023598D01*
X86658400Y-49910661D01*
X86618626Y-49710702D01*
X86540605Y-49522344D01*
X86427337Y-49352826D01*
X86283174Y-49208663D01*
X86113656Y-49095395D01*
X85925298Y-49017374D01*
X85725339Y-48977600D01*
X85521461Y-48977600D01*
X85321502Y-49017374D01*
X85133144Y-49095395D01*
X84963626Y-49208663D01*
X84819463Y-49352826D01*
X84706195Y-49522344D01*
X84628174Y-49710702D01*
X84588400Y-49910661D01*
X84588400Y-50114539D01*
X84628174Y-50314498D01*
X84706195Y-50502856D01*
X84819463Y-50672374D01*
X84963626Y-50816537D01*
X85133144Y-50929805D01*
X85321502Y-51007826D01*
X85521461Y-51047600D01*
X85532798Y-51047600D01*
X85651902Y-51166704D01*
X85651902Y-53639900D01*
X85132504Y-53120502D01*
X85108701Y-53091499D01*
X84992976Y-52996526D01*
X84860947Y-52925954D01*
X84717686Y-52882497D01*
X84606033Y-52871500D01*
X84606022Y-52871500D01*
X84568700Y-52867824D01*
X84556872Y-52868989D01*
X84556872Y-52776500D01*
X84545053Y-52656500D01*
X84556872Y-52536500D01*
X84556872Y-52126500D01*
X84545053Y-52006500D01*
X84556872Y-51886500D01*
X84556872Y-51476500D01*
X84545053Y-51356500D01*
X84556872Y-51236500D01*
X84556872Y-50826500D01*
X84545053Y-50706500D01*
X84556872Y-50586500D01*
X84556872Y-50176500D01*
X84545053Y-50056500D01*
X84556872Y-49936500D01*
X84556872Y-49526500D01*
X84544612Y-49402018D01*
X84508302Y-49282320D01*
X84449337Y-49172006D01*
X84369985Y-49075315D01*
X84273294Y-48995963D01*
X84162980Y-48936998D01*
X84043282Y-48900688D01*
X83918800Y-48888428D01*
X82348800Y-48888428D01*
X82224318Y-48900688D01*
X82130003Y-48929298D01*
X83487102Y-47572200D01*
X84919689Y-47572200D01*
X84963626Y-47616137D01*
X85133144Y-47729405D01*
X85321502Y-47807426D01*
X85521461Y-47847200D01*
X85725339Y-47847200D01*
X85925298Y-47807426D01*
X86113656Y-47729405D01*
X86283174Y-47616137D01*
X86427337Y-47471974D01*
X86540605Y-47302456D01*
X86618626Y-47114098D01*
X86658400Y-46914139D01*
X86658400Y-46710261D01*
X86618626Y-46510302D01*
X86540605Y-46321944D01*
X86427337Y-46152426D01*
X86283174Y-46008263D01*
X86113656Y-45894995D01*
X85925298Y-45816974D01*
X85725339Y-45777200D01*
X85521461Y-45777200D01*
X85321502Y-45816974D01*
X85133144Y-45894995D01*
X84963626Y-46008263D01*
X84919689Y-46052200D01*
X84370692Y-46052200D01*
X85661792Y-44761100D01*
X85801539Y-44761100D01*
X86001498Y-44721326D01*
X86189856Y-44643305D01*
X86359374Y-44530037D01*
X86503537Y-44385874D01*
X86616805Y-44216356D01*
X86694826Y-44027998D01*
X86734600Y-43828039D01*
X86734600Y-43624161D01*
X86694826Y-43424202D01*
X86616805Y-43235844D01*
X86503537Y-43066326D01*
X86441806Y-43004595D01*
X87150404Y-42295998D01*
X87179401Y-42272201D01*
X87274374Y-42156476D01*
X87344946Y-42024447D01*
X87388403Y-41881186D01*
X87399400Y-41769533D01*
X87399400Y-41769532D01*
X87403077Y-41732200D01*
X87399400Y-41694867D01*
X87399400Y-41381811D01*
X87443337Y-41337874D01*
X87556605Y-41168356D01*
X87634626Y-40979998D01*
X87674400Y-40780039D01*
X87674400Y-40576161D01*
X87634626Y-40376202D01*
X87556605Y-40187844D01*
X87443337Y-40018326D01*
X87299174Y-39874163D01*
X87129656Y-39760895D01*
X86941298Y-39682874D01*
X86741339Y-39643100D01*
X86662800Y-39643100D01*
X86662800Y-38156011D01*
X86706737Y-38112074D01*
X86820005Y-37942556D01*
X86898026Y-37754198D01*
X86937800Y-37554239D01*
X86937800Y-37350361D01*
X86898026Y-37150402D01*
X86820005Y-36962044D01*
X86706737Y-36792526D01*
X86619190Y-36704979D01*
X86633746Y-36677747D01*
X86677203Y-36534486D01*
X86688200Y-36422833D01*
X86688200Y-36422824D01*
X86691876Y-36385501D01*
X86688200Y-36348178D01*
X86688200Y-34981011D01*
X86732137Y-34937074D01*
X86845405Y-34767556D01*
X86923426Y-34579198D01*
X86963200Y-34379239D01*
X86963200Y-34175361D01*
X86923426Y-33975402D01*
X86845405Y-33787044D01*
X86732137Y-33617526D01*
X86587974Y-33473363D01*
X86418456Y-33360095D01*
X86230098Y-33282074D01*
X86030139Y-33242300D01*
X85826261Y-33242300D01*
X85626302Y-33282074D01*
X85437944Y-33360095D01*
X85268426Y-33473363D01*
X85124263Y-33617526D01*
X85010995Y-33787044D01*
X84932974Y-33975402D01*
X84893200Y-34175361D01*
X84893200Y-34379239D01*
X84932974Y-34579198D01*
X85010995Y-34767556D01*
X85124263Y-34937074D01*
X85168201Y-34981012D01*
X85168200Y-36070698D01*
X84671172Y-36567727D01*
X84671172Y-36267700D01*
X84658912Y-36143218D01*
X84622602Y-36023520D01*
X84563637Y-35913206D01*
X84484285Y-35816515D01*
X84387594Y-35737163D01*
X84277280Y-35678198D01*
X84157582Y-35641888D01*
X84033100Y-35629628D01*
X82463100Y-35629628D01*
X82338618Y-35641888D01*
X82218920Y-35678198D01*
X82108606Y-35737163D01*
X82011915Y-35816515D01*
X81932563Y-35913206D01*
X81873598Y-36023520D01*
X81837288Y-36143218D01*
X81825028Y-36267700D01*
X81825028Y-36362700D01*
X80373892Y-36362700D01*
X80336569Y-36359024D01*
X80299246Y-36362700D01*
X80299237Y-36362700D01*
X80187584Y-36373697D01*
X80044323Y-36417154D01*
X79912294Y-36487726D01*
X79796569Y-36582699D01*
X79772771Y-36611697D01*
X79298303Y-37086166D01*
X79236165Y-37086166D01*
X79036206Y-37125940D01*
X78931172Y-37169447D01*
X78931172Y-36917700D01*
X78918956Y-36793668D01*
X78928100Y-36709450D01*
X78871615Y-36652965D01*
X78823637Y-36563206D01*
X78744285Y-36466515D01*
X78656778Y-36394700D01*
X78769350Y-36394700D01*
X78928100Y-36235950D01*
X78917055Y-36134221D01*
X78879025Y-36015058D01*
X78818479Y-35905604D01*
X78737742Y-35810066D01*
X78639919Y-35732114D01*
X78528767Y-35674744D01*
X78408559Y-35640161D01*
X78283913Y-35629694D01*
X77793850Y-35632700D01*
X77635100Y-35791450D01*
X77635100Y-35941079D01*
X77381100Y-35941079D01*
X77381100Y-35791450D01*
X77222350Y-35632700D01*
X76732287Y-35629694D01*
X76607641Y-35640161D01*
X76487433Y-35674744D01*
X76376281Y-35732114D01*
X76278458Y-35810066D01*
X76258676Y-35833475D01*
X76104635Y-35679434D01*
X76166838Y-35586341D01*
X76244859Y-35397983D01*
X76284633Y-35198024D01*
X76284633Y-34994146D01*
X76244859Y-34794187D01*
X76166838Y-34605829D01*
X76053570Y-34436311D01*
X75909407Y-34292148D01*
X75739889Y-34178880D01*
X75551531Y-34100859D01*
X75351572Y-34061085D01*
X75147694Y-34061085D01*
X74947735Y-34100859D01*
X74759377Y-34178880D01*
X74589859Y-34292148D01*
X74445696Y-34436311D01*
X74332428Y-34605829D01*
X74254407Y-34794187D01*
X74214633Y-34994146D01*
X74214633Y-35198024D01*
X74254407Y-35397983D01*
X74332428Y-35586341D01*
X74445696Y-35755859D01*
X74489633Y-35799796D01*
X74489633Y-35861911D01*
X74485957Y-35899233D01*
X74489633Y-35936555D01*
X74489633Y-35936565D01*
X74500630Y-36048218D01*
X74534300Y-36159214D01*
X74544087Y-36191479D01*
X74614659Y-36323509D01*
X74646823Y-36362700D01*
X74709632Y-36439234D01*
X74738636Y-36463037D01*
X75376308Y-37100710D01*
X75307056Y-37137726D01*
X75232535Y-37198884D01*
X75168209Y-37198884D01*
X74968250Y-37238658D01*
X74779892Y-37316679D01*
X74610374Y-37429947D01*
X74466211Y-37574110D01*
X74352943Y-37743628D01*
X74274922Y-37931986D01*
X74235148Y-38131945D01*
X74235148Y-38335823D01*
X74274922Y-38535782D01*
X74352943Y-38724140D01*
X74466211Y-38893658D01*
X74610374Y-39037821D01*
X74713962Y-39107036D01*
X74262083Y-39558916D01*
X74233079Y-39582719D01*
X74186497Y-39639480D01*
X74138106Y-39698444D01*
X74076764Y-39813206D01*
X74067534Y-39830474D01*
X74024077Y-39973735D01*
X74013080Y-40085388D01*
X74013080Y-40085398D01*
X74009404Y-40122720D01*
X74013080Y-40160043D01*
X74013080Y-40761789D01*
X73969143Y-40805726D01*
X73855875Y-40975244D01*
X73777854Y-41163602D01*
X73738080Y-41363561D01*
X73738080Y-41567439D01*
X73777854Y-41767398D01*
X73855875Y-41955756D01*
X73969143Y-42125274D01*
X74113306Y-42269437D01*
X74282824Y-42382705D01*
X74471182Y-42460726D01*
X74671141Y-42500500D01*
X74738081Y-42500500D01*
X74738081Y-43504193D01*
X74573175Y-43614379D01*
X74429012Y-43758542D01*
X74315744Y-43928060D01*
X74237723Y-44116418D01*
X74197949Y-44316377D01*
X74197949Y-44520255D01*
X74237723Y-44720214D01*
X74315744Y-44908572D01*
X74429012Y-45078090D01*
X74476345Y-45125423D01*
X74422772Y-45178997D01*
X74393768Y-45202800D01*
X74353564Y-45251789D01*
X74298795Y-45318525D01*
X74232327Y-45442877D01*
X74228223Y-45450555D01*
X74184766Y-45593816D01*
X74173769Y-45705469D01*
X74173769Y-45705479D01*
X74170093Y-45742801D01*
X74173769Y-45780124D01*
X74173770Y-46629422D01*
X74168523Y-46631595D01*
X73999005Y-46744863D01*
X73854842Y-46889026D01*
X73741574Y-47058544D01*
X73663553Y-47246902D01*
X73623779Y-47446861D01*
X73623779Y-47650739D01*
X73663553Y-47850698D01*
X73741574Y-48039056D01*
X73854842Y-48208574D01*
X73999005Y-48352737D01*
X74168523Y-48466005D01*
X74356881Y-48544026D01*
X74556840Y-48583800D01*
X74623780Y-48583800D01*
X74623780Y-49780059D01*
X74618533Y-49782232D01*
X74449015Y-49895500D01*
X74304852Y-50039663D01*
X74191584Y-50209181D01*
X74113563Y-50397539D01*
X74073789Y-50597498D01*
X74073789Y-50801376D01*
X74113563Y-51001335D01*
X74191584Y-51189693D01*
X74304852Y-51359211D01*
X74449015Y-51503374D01*
X74618533Y-51616642D01*
X74806891Y-51694663D01*
X75006850Y-51734437D01*
X75073790Y-51734437D01*
X75073790Y-52786800D01*
X74966620Y-52808117D01*
X74778262Y-52886138D01*
X74608744Y-52999406D01*
X74464581Y-53143569D01*
X74351313Y-53313087D01*
X74273292Y-53501445D01*
X74233518Y-53701404D01*
X74233518Y-53905282D01*
X74273292Y-54105241D01*
X74351313Y-54293599D01*
X74464581Y-54463117D01*
X74608744Y-54607280D01*
X74778262Y-54720548D01*
X74966620Y-54798569D01*
X75166579Y-54838343D01*
X75370457Y-54838343D01*
X75523800Y-54807841D01*
X75523800Y-56367573D01*
X75520123Y-56404905D01*
X75523800Y-56442238D01*
X75534797Y-56553891D01*
X75546070Y-56591054D01*
X75578253Y-56697151D01*
X75648825Y-56829181D01*
X75718333Y-56913876D01*
X75743799Y-56944906D01*
X75772797Y-56968704D01*
X76557347Y-57753255D01*
X76557347Y-57815392D01*
X76597121Y-58015351D01*
X76675142Y-58203709D01*
X76788410Y-58373227D01*
X76932573Y-58517390D01*
X77102091Y-58630658D01*
X77290449Y-58708679D01*
X77490408Y-58748453D01*
X77694286Y-58748453D01*
X77894245Y-58708679D01*
X78082603Y-58630658D01*
X78252121Y-58517390D01*
X78314600Y-58454911D01*
X78314600Y-58572739D01*
X78354374Y-58772698D01*
X78432395Y-58961056D01*
X78545663Y-59130574D01*
X78669875Y-59254786D01*
X78640298Y-59310120D01*
X78603988Y-59429818D01*
X78591728Y-59554300D01*
X78591728Y-60054300D01*
X78603988Y-60178782D01*
X78640298Y-60298480D01*
X78699263Y-60408794D01*
X78778615Y-60505485D01*
X78838096Y-60554300D01*
X78778615Y-60603115D01*
X78699263Y-60699806D01*
X78640298Y-60810120D01*
X78603988Y-60929818D01*
X78591728Y-61054300D01*
X78591728Y-61554300D01*
X78603988Y-61678782D01*
X78640298Y-61798480D01*
X78699263Y-61908794D01*
X78778615Y-62005485D01*
X78875306Y-62084837D01*
X78985620Y-62143802D01*
X79105318Y-62180112D01*
X79229800Y-62192372D01*
X79493071Y-62192372D01*
X80140698Y-62840000D01*
X74678208Y-62840000D01*
X74600770Y-62762562D01*
X75003373Y-62504402D01*
X75278951Y-61984985D01*
X75447901Y-61421787D01*
X75503730Y-60836450D01*
X75444292Y-60251467D01*
X75271871Y-59689321D01*
X75003373Y-59186998D01*
X74600768Y-58928837D01*
X72683905Y-60845700D01*
X72698048Y-60859843D01*
X72518443Y-61039448D01*
X72504300Y-61025305D01*
X72490158Y-61039448D01*
X72310553Y-60859843D01*
X72324695Y-60845700D01*
X72310553Y-60831558D01*
X72490158Y-60651953D01*
X72504300Y-60666095D01*
X74421163Y-58749232D01*
X74163002Y-58346627D01*
X73643585Y-58071049D01*
X73080387Y-57902099D01*
X72495050Y-57846270D01*
X71910067Y-57905708D01*
X71347921Y-58078129D01*
X70845598Y-58346627D01*
X70587438Y-58749230D01*
X70510000Y-58671792D01*
X70510000Y-52230463D01*
X70678271Y-52230463D01*
X70678271Y-52434341D01*
X70718045Y-52634300D01*
X70796066Y-52822658D01*
X70909334Y-52992176D01*
X71053497Y-53136339D01*
X71133151Y-53189562D01*
X71128281Y-53214046D01*
X71128281Y-53417924D01*
X71168055Y-53617883D01*
X71246076Y-53806241D01*
X71359344Y-53975759D01*
X71503507Y-54119922D01*
X71586044Y-54175071D01*
X71578291Y-54214049D01*
X71578291Y-54417927D01*
X71618065Y-54617886D01*
X71696086Y-54806244D01*
X71809354Y-54975762D01*
X71953517Y-55119925D01*
X72034739Y-55174196D01*
X72028301Y-55206561D01*
X72028301Y-55410439D01*
X72068075Y-55610398D01*
X72146096Y-55798756D01*
X72259364Y-55968274D01*
X72403527Y-56112437D01*
X72573045Y-56225705D01*
X72761403Y-56303726D01*
X72961362Y-56343500D01*
X73165240Y-56343500D01*
X73365199Y-56303726D01*
X73553557Y-56225705D01*
X73723075Y-56112437D01*
X73867238Y-55968274D01*
X73980506Y-55798756D01*
X74058527Y-55610398D01*
X74098301Y-55410439D01*
X74098301Y-55206561D01*
X74058527Y-55006602D01*
X73980506Y-54818244D01*
X73867238Y-54648726D01*
X73723075Y-54504563D01*
X73641853Y-54450292D01*
X73648291Y-54417927D01*
X73648291Y-54214049D01*
X73608517Y-54014090D01*
X73530496Y-53825732D01*
X73417228Y-53656214D01*
X73273065Y-53512051D01*
X73190528Y-53456902D01*
X73198281Y-53417924D01*
X73198281Y-53214046D01*
X73158507Y-53014087D01*
X73080486Y-52825729D01*
X72967218Y-52656211D01*
X72823055Y-52512048D01*
X72743401Y-52458825D01*
X72748271Y-52434341D01*
X72748271Y-52230463D01*
X72708497Y-52030504D01*
X72630476Y-51842146D01*
X72517208Y-51672628D01*
X72373045Y-51528465D01*
X72203527Y-51415197D01*
X72015169Y-51337176D01*
X71815210Y-51297402D01*
X71611332Y-51297402D01*
X71411373Y-51337176D01*
X71223015Y-51415197D01*
X71053497Y-51528465D01*
X70909334Y-51672628D01*
X70796066Y-51842146D01*
X70718045Y-52030504D01*
X70678271Y-52230463D01*
X70510000Y-52230463D01*
X70510000Y-31756881D01*
X70521820Y-31636335D01*
X70547455Y-31551425D01*
X70589091Y-31473121D01*
X70645146Y-31404391D01*
X70713485Y-31347856D01*
X70791499Y-31305674D01*
X70876224Y-31279446D01*
X70994642Y-31267000D01*
X132174723Y-31267000D01*
X132300202Y-31279303D01*
%TA.AperFunction,Conductor*%
D18*
G36*
X132300202Y-31279303D02*
G01*
X132389849Y-31306370D01*
X132472537Y-31350335D01*
X132545106Y-31409522D01*
X132604804Y-31481684D01*
X132649341Y-31564054D01*
X132677034Y-31653515D01*
X132690001Y-31776888D01*
X132690000Y-58671792D01*
X132612562Y-58749230D01*
X132354402Y-58346627D01*
X131834985Y-58071049D01*
X131271787Y-57902099D01*
X130686450Y-57846270D01*
X130101467Y-57905708D01*
X129539321Y-58078129D01*
X129036998Y-58346627D01*
X128778837Y-58749232D01*
X130695700Y-60666095D01*
X130709843Y-60651953D01*
X130889448Y-60831558D01*
X130875305Y-60845700D01*
X130889448Y-60859843D01*
X130709843Y-61039448D01*
X130695700Y-61025305D01*
X130681558Y-61039448D01*
X130501953Y-60859843D01*
X130516095Y-60845700D01*
X128599232Y-58928837D01*
X128196627Y-59186998D01*
X127921049Y-59706415D01*
X127752099Y-60269613D01*
X127696270Y-60854950D01*
X127755708Y-61439933D01*
X127928129Y-62002079D01*
X128196627Y-62504402D01*
X128599230Y-62762562D01*
X128521792Y-62840000D01*
X112593101Y-62840000D01*
X112688992Y-62744109D01*
X112909140Y-62787900D01*
X113201660Y-62787900D01*
X113488558Y-62730832D01*
X113758811Y-62618890D01*
X114002032Y-62456375D01*
X114208875Y-62249532D01*
X114325400Y-62075140D01*
X114441925Y-62249532D01*
X114648768Y-62456375D01*
X114891989Y-62618890D01*
X115162242Y-62730832D01*
X115449140Y-62787900D01*
X115741660Y-62787900D01*
X116028558Y-62730832D01*
X116298811Y-62618890D01*
X116542032Y-62456375D01*
X116748875Y-62249532D01*
X116870595Y-62067366D01*
X116940222Y-62184255D01*
X117135131Y-62400488D01*
X117368480Y-62574541D01*
X117631301Y-62699725D01*
X117778510Y-62744376D01*
X118008400Y-62623055D01*
X118008400Y-61429900D01*
X118262400Y-61429900D01*
X118262400Y-62623055D01*
X118492290Y-62744376D01*
X118639499Y-62699725D01*
X118902320Y-62574541D01*
X119135669Y-62400488D01*
X119330578Y-62184255D01*
X119479557Y-61934152D01*
X119576881Y-61659791D01*
X119456214Y-61429900D01*
X118262400Y-61429900D01*
X118008400Y-61429900D01*
X117988400Y-61429900D01*
X117988400Y-61175900D01*
X118008400Y-61175900D01*
X118008400Y-59982745D01*
X118262400Y-59982745D01*
X118262400Y-61175900D01*
X119456214Y-61175900D01*
X119576881Y-60946009D01*
X119479557Y-60671648D01*
X119330578Y-60421545D01*
X119135669Y-60205312D01*
X118902320Y-60031259D01*
X118639499Y-59906075D01*
X118492290Y-59861424D01*
X118262400Y-59982745D01*
X118008400Y-59982745D01*
X117778510Y-59861424D01*
X117631301Y-59906075D01*
X117368480Y-60031259D01*
X117135131Y-60205312D01*
X116940222Y-60421545D01*
X116870595Y-60538434D01*
X116748875Y-60356268D01*
X116542032Y-60149425D01*
X116298811Y-59986910D01*
X116028558Y-59874968D01*
X115741660Y-59817900D01*
X115449140Y-59817900D01*
X115162242Y-59874968D01*
X114891989Y-59986910D01*
X114648768Y-60149425D01*
X114441925Y-60356268D01*
X114325400Y-60530660D01*
X114208875Y-60356268D01*
X114002032Y-60149425D01*
X113758811Y-59986910D01*
X113488558Y-59874968D01*
X113201660Y-59817900D01*
X112909140Y-59817900D01*
X112622242Y-59874968D01*
X112351989Y-59986910D01*
X112108768Y-60149425D01*
X111901925Y-60356268D01*
X111785400Y-60530660D01*
X111668875Y-60356268D01*
X111462032Y-60149425D01*
X111275400Y-60024722D01*
X111275400Y-58870502D01*
X111666101Y-59261203D01*
X111689899Y-59290201D01*
X111805624Y-59385174D01*
X111937653Y-59455746D01*
X112080914Y-59499203D01*
X112192567Y-59510200D01*
X112192575Y-59510200D01*
X112229900Y-59513876D01*
X112267225Y-59510200D01*
X113278789Y-59510200D01*
X113322726Y-59554137D01*
X113492244Y-59667405D01*
X113680602Y-59745426D01*
X113880561Y-59785200D01*
X114084439Y-59785200D01*
X114284398Y-59745426D01*
X114472756Y-59667405D01*
X114642274Y-59554137D01*
X114786437Y-59409974D01*
X114899705Y-59240456D01*
X114977726Y-59052098D01*
X115017500Y-58852139D01*
X115017500Y-58785199D01*
X115762379Y-58785199D01*
X115799701Y-58788875D01*
X115837023Y-58785199D01*
X115837034Y-58785199D01*
X115948687Y-58774202D01*
X116091948Y-58730745D01*
X116223977Y-58660173D01*
X116339702Y-58565200D01*
X116363505Y-58536196D01*
X117846304Y-57053398D01*
X117875301Y-57029601D01*
X117913975Y-56982477D01*
X117970274Y-56913877D01*
X118040846Y-56781847D01*
X118041926Y-56778286D01*
X118084303Y-56638586D01*
X118095300Y-56526933D01*
X118095300Y-56526923D01*
X118098976Y-56489600D01*
X118095300Y-56452277D01*
X118095300Y-54596657D01*
X118127063Y-54628420D01*
X118296581Y-54741688D01*
X118484939Y-54819709D01*
X118684898Y-54859483D01*
X118888776Y-54859483D01*
X119088735Y-54819709D01*
X119277093Y-54741688D01*
X119446611Y-54628420D01*
X119483601Y-54591430D01*
X119483601Y-56261768D01*
X119479924Y-56299100D01*
X119483601Y-56336433D01*
X119494598Y-56448086D01*
X119503847Y-56478577D01*
X119538054Y-56591346D01*
X119608626Y-56723376D01*
X119675035Y-56804295D01*
X119703600Y-56839101D01*
X119732598Y-56862899D01*
X120211900Y-57342202D01*
X120211900Y-57404339D01*
X120251674Y-57604298D01*
X120329695Y-57792656D01*
X120442963Y-57962174D01*
X120587126Y-58106337D01*
X120756644Y-58219605D01*
X120945002Y-58297626D01*
X121144961Y-58337400D01*
X121348839Y-58337400D01*
X121548798Y-58297626D01*
X121737156Y-58219605D01*
X121906674Y-58106337D01*
X122050837Y-57962174D01*
X122164105Y-57792656D01*
X122242126Y-57604298D01*
X122252192Y-57553694D01*
X123350105Y-58651608D01*
X123373899Y-58680601D01*
X123402892Y-58704395D01*
X123402896Y-58704399D01*
X123466382Y-58756500D01*
X123489624Y-58775574D01*
X123621653Y-58846146D01*
X123764914Y-58889603D01*
X123876567Y-58900600D01*
X123876576Y-58900600D01*
X123913899Y-58904276D01*
X123951222Y-58900600D01*
X127750078Y-58900600D01*
X127787400Y-58904276D01*
X127824722Y-58900600D01*
X127824733Y-58900600D01*
X127936386Y-58889603D01*
X128079647Y-58846146D01*
X128211676Y-58775574D01*
X128327401Y-58680601D01*
X128351204Y-58651597D01*
X129809704Y-57193098D01*
X129838701Y-57169301D01*
X129873084Y-57127405D01*
X129933674Y-57053577D01*
X130004246Y-56921547D01*
X130005329Y-56917976D01*
X130047703Y-56778286D01*
X130058700Y-56666633D01*
X130058700Y-56666623D01*
X130062376Y-56629300D01*
X130058700Y-56591977D01*
X130058700Y-53853211D01*
X130102637Y-53809274D01*
X130215905Y-53639756D01*
X130293926Y-53451398D01*
X130333700Y-53251439D01*
X130333700Y-53047561D01*
X130293926Y-52847602D01*
X130215905Y-52659244D01*
X130102637Y-52489726D01*
X129993542Y-52380631D01*
X130016946Y-52336847D01*
X130060403Y-52193586D01*
X130071400Y-52081933D01*
X130071400Y-52081925D01*
X130075076Y-52044600D01*
X130071400Y-52007275D01*
X130071400Y-50754411D01*
X130115337Y-50710474D01*
X130228605Y-50540956D01*
X130306626Y-50352598D01*
X130346400Y-50152639D01*
X130346400Y-49948761D01*
X130306626Y-49748802D01*
X130293462Y-49717021D01*
X130401091Y-49555942D01*
X130479112Y-49367584D01*
X130518886Y-49167625D01*
X130518886Y-48963747D01*
X130479112Y-48763788D01*
X130401091Y-48575430D01*
X130287823Y-48405912D01*
X130143660Y-48261749D01*
X129974142Y-48148481D01*
X129785784Y-48070460D01*
X129585825Y-48030686D01*
X129381947Y-48030686D01*
X129181988Y-48070460D01*
X128993630Y-48148481D01*
X128824112Y-48261749D01*
X128679949Y-48405912D01*
X128566681Y-48575430D01*
X128515638Y-48698657D01*
X128206825Y-49007471D01*
X128143080Y-48973398D01*
X128023382Y-48937088D01*
X127898900Y-48924828D01*
X126914674Y-48924828D01*
X128229203Y-47610300D01*
X128594989Y-47610300D01*
X128638926Y-47654237D01*
X128808444Y-47767505D01*
X128996802Y-47845526D01*
X129196761Y-47885300D01*
X129400639Y-47885300D01*
X129600598Y-47845526D01*
X129788956Y-47767505D01*
X129958474Y-47654237D01*
X130102637Y-47510074D01*
X130215905Y-47340556D01*
X130293926Y-47152198D01*
X130333700Y-46952239D01*
X130333700Y-46748361D01*
X130293926Y-46548402D01*
X130215905Y-46360044D01*
X130102637Y-46190526D01*
X129958474Y-46046363D01*
X129788956Y-45933095D01*
X129600598Y-45855074D01*
X129400639Y-45815300D01*
X129387792Y-45815300D01*
X129911304Y-45291788D01*
X129940301Y-45267991D01*
X129972056Y-45229298D01*
X130035274Y-45152267D01*
X130105846Y-45020237D01*
X130113866Y-44993798D01*
X130149303Y-44876976D01*
X130160300Y-44765323D01*
X130160300Y-44765314D01*
X130163976Y-44727991D01*
X130160300Y-44690668D01*
X130160300Y-44467911D01*
X130204237Y-44423974D01*
X130317505Y-44254456D01*
X130395526Y-44066098D01*
X130435300Y-43866139D01*
X130435300Y-43662261D01*
X130429896Y-43635092D01*
X130498000Y-43579200D01*
X130521803Y-43550196D01*
X130939998Y-43132001D01*
X130969001Y-43108199D01*
X131040929Y-43020555D01*
X131063974Y-42992475D01*
X131134546Y-42860445D01*
X131139750Y-42843289D01*
X131178003Y-42717184D01*
X131189000Y-42605531D01*
X131189000Y-42605521D01*
X131192676Y-42568199D01*
X131189000Y-42530876D01*
X131189000Y-41807622D01*
X131192676Y-41770299D01*
X131189000Y-41732976D01*
X131189000Y-41732967D01*
X131178003Y-41621314D01*
X131134546Y-41478053D01*
X131126225Y-41462485D01*
X131063974Y-41346023D01*
X130992799Y-41259297D01*
X130969001Y-41230299D01*
X130940003Y-41206501D01*
X130371800Y-40638299D01*
X130371800Y-40576161D01*
X130332026Y-40376202D01*
X130254005Y-40187844D01*
X130140737Y-40018326D01*
X129996574Y-39874163D01*
X129827056Y-39760895D01*
X129638698Y-39682874D01*
X129438739Y-39643100D01*
X129371799Y-39643100D01*
X129371799Y-38746103D01*
X129554402Y-38563500D01*
X129616539Y-38563500D01*
X129816498Y-38523726D01*
X130004856Y-38445705D01*
X130174374Y-38332437D01*
X130318537Y-38188274D01*
X130431805Y-38018756D01*
X130509826Y-37830398D01*
X130549600Y-37630439D01*
X130549600Y-37426561D01*
X130509826Y-37226602D01*
X130431805Y-37038244D01*
X130318537Y-36868726D01*
X130174374Y-36724563D01*
X130004856Y-36611295D01*
X129816498Y-36533274D01*
X129616539Y-36493500D01*
X129412661Y-36493500D01*
X129212702Y-36533274D01*
X129024344Y-36611295D01*
X128854826Y-36724563D01*
X128710663Y-36868726D01*
X128625872Y-36995625D01*
X128625872Y-36966800D01*
X128614053Y-36846800D01*
X128625872Y-36726800D01*
X128625872Y-36316800D01*
X128613612Y-36192318D01*
X128577302Y-36072620D01*
X128518337Y-35962306D01*
X128438985Y-35865615D01*
X128342294Y-35786263D01*
X128231980Y-35727298D01*
X128112282Y-35690988D01*
X127987800Y-35678728D01*
X126417800Y-35678728D01*
X126293318Y-35690988D01*
X126173620Y-35727298D01*
X126063306Y-35786263D01*
X125966615Y-35865615D01*
X125887263Y-35962306D01*
X125828298Y-36072620D01*
X125791988Y-36192318D01*
X125779728Y-36316800D01*
X125779728Y-36411800D01*
X124703900Y-36411800D01*
X124666577Y-36408124D01*
X124648511Y-36409903D01*
X124520813Y-36384503D01*
X124316935Y-36384503D01*
X124116976Y-36424277D01*
X123928618Y-36502298D01*
X123759100Y-36615566D01*
X123614937Y-36759729D01*
X123501669Y-36929247D01*
X123423648Y-37117605D01*
X123383874Y-37317564D01*
X123383874Y-37521442D01*
X123423648Y-37721401D01*
X123501669Y-37909759D01*
X123517384Y-37933278D01*
X123506186Y-37950036D01*
X123428165Y-38138394D01*
X123388391Y-38338353D01*
X123388391Y-38542231D01*
X123428165Y-38742190D01*
X123506186Y-38930548D01*
X123523782Y-38956882D01*
X123522042Y-38959486D01*
X123444021Y-39147844D01*
X123404247Y-39347803D01*
X123404247Y-39551681D01*
X123444021Y-39751640D01*
X123522042Y-39939998D01*
X123541867Y-39969668D01*
X123467171Y-40149999D01*
X123427397Y-40349958D01*
X123427397Y-40481488D01*
X123372976Y-40436826D01*
X123240947Y-40366254D01*
X123097686Y-40322797D01*
X122986033Y-40311800D01*
X122986022Y-40311800D01*
X122948700Y-40308124D01*
X122911378Y-40311800D01*
X122885872Y-40311800D01*
X122885872Y-40216800D01*
X122874053Y-40096800D01*
X122885872Y-39976800D01*
X122885872Y-39566800D01*
X122874053Y-39446800D01*
X122885872Y-39326800D01*
X122885872Y-38916800D01*
X122874053Y-38796800D01*
X122885872Y-38676800D01*
X122885872Y-38266800D01*
X122874053Y-38146800D01*
X122885872Y-38026800D01*
X122885872Y-37826126D01*
X122922076Y-37806774D01*
X123037801Y-37711801D01*
X123061602Y-37682800D01*
X123083803Y-37660599D01*
X123112802Y-37636800D01*
X123207775Y-37521075D01*
X123278347Y-37389046D01*
X123321804Y-37245785D01*
X123332801Y-37134132D01*
X123332801Y-37134122D01*
X123336477Y-37096800D01*
X123332801Y-37059477D01*
X123332801Y-35233595D01*
X123440163Y-35394274D01*
X123584326Y-35538437D01*
X123753844Y-35651705D01*
X123942202Y-35729726D01*
X124142161Y-35769500D01*
X124346039Y-35769500D01*
X124545998Y-35729726D01*
X124734356Y-35651705D01*
X124903874Y-35538437D01*
X125048037Y-35394274D01*
X125161305Y-35224756D01*
X125239326Y-35036398D01*
X125279100Y-34836439D01*
X125279100Y-34632561D01*
X125239326Y-34432602D01*
X125161305Y-34244244D01*
X125048037Y-34074726D01*
X124903874Y-33930563D01*
X124734356Y-33817295D01*
X124545998Y-33739274D01*
X124346039Y-33699500D01*
X124283902Y-33699500D01*
X123638403Y-33054002D01*
X123614600Y-33024998D01*
X123498875Y-32930025D01*
X123366846Y-32859453D01*
X123223585Y-32815996D01*
X123111932Y-32804999D01*
X123111921Y-32804999D01*
X123074599Y-32801323D01*
X123037277Y-32804999D01*
X104605689Y-32804999D01*
X104568366Y-32801323D01*
X104531043Y-32804999D01*
X104531034Y-32804999D01*
X104419381Y-32815996D01*
X104276120Y-32859453D01*
X104144090Y-32930025D01*
X104060450Y-32998667D01*
X104028366Y-33024998D01*
X104004568Y-33053996D01*
X101902899Y-35155666D01*
X101873901Y-35179464D01*
X101850103Y-35208462D01*
X101850102Y-35208463D01*
X101778927Y-35295189D01*
X101708355Y-35427219D01*
X101689735Y-35488603D01*
X101664899Y-35570479D01*
X101654237Y-35678728D01*
X101650225Y-35719465D01*
X101653902Y-35756798D01*
X101653902Y-36988161D01*
X101653605Y-36987444D01*
X101540337Y-36817926D01*
X101396174Y-36673763D01*
X101226656Y-36560495D01*
X101038298Y-36482474D01*
X100838339Y-36442700D01*
X100721700Y-36442700D01*
X100721700Y-35200899D01*
X100862774Y-35106637D01*
X101006937Y-34962474D01*
X101120205Y-34792956D01*
X101198226Y-34604598D01*
X101238000Y-34404639D01*
X101238000Y-34200761D01*
X101198226Y-34000802D01*
X101120205Y-33812444D01*
X101006937Y-33642926D01*
X100862774Y-33498763D01*
X100693256Y-33385495D01*
X100504898Y-33307474D01*
X100304939Y-33267700D01*
X100101061Y-33267700D01*
X99901102Y-33307474D01*
X99712744Y-33385495D01*
X99543226Y-33498763D01*
X99399063Y-33642926D01*
X99285795Y-33812444D01*
X99207774Y-34000802D01*
X99168000Y-34200761D01*
X99168000Y-34404639D01*
X99200283Y-34566940D01*
X99201701Y-34581332D01*
X99201700Y-38888688D01*
X99060272Y-39030116D01*
X99060272Y-38866000D01*
X99048453Y-38746000D01*
X99060272Y-38626000D01*
X99060272Y-38216000D01*
X99048453Y-38096000D01*
X99060272Y-37976000D01*
X99060272Y-37566000D01*
X99048453Y-37446000D01*
X99060272Y-37326000D01*
X99060272Y-36916000D01*
X99048453Y-36796000D01*
X99060272Y-36676000D01*
X99060272Y-36266000D01*
X99048012Y-36141518D01*
X99011702Y-36021820D01*
X98952737Y-35911506D01*
X98873385Y-35814815D01*
X98776694Y-35735463D01*
X98666380Y-35676498D01*
X98546682Y-35640188D01*
X98422200Y-35627928D01*
X96852200Y-35627928D01*
X96727718Y-35640188D01*
X96608020Y-35676498D01*
X96497706Y-35735463D01*
X96401015Y-35814815D01*
X96321663Y-35911506D01*
X96262698Y-36021820D01*
X96226388Y-36141518D01*
X96214128Y-36266000D01*
X96214128Y-36361000D01*
X94782175Y-36361000D01*
X94768088Y-36326992D01*
X94654820Y-36157474D01*
X94510657Y-36013311D01*
X94341139Y-35900043D01*
X94152781Y-35822022D01*
X93952822Y-35782248D01*
X93748944Y-35782248D01*
X93548985Y-35822022D01*
X93360627Y-35900043D01*
X93247322Y-35975751D01*
X93207579Y-35903904D01*
X93126842Y-35808366D01*
X93029019Y-35730414D01*
X92917867Y-35673044D01*
X92797659Y-35638461D01*
X92673013Y-35627994D01*
X92182950Y-35631000D01*
X92024200Y-35789750D01*
X92024200Y-35934675D01*
X91770200Y-35934675D01*
X91770200Y-35789750D01*
X91611450Y-35631000D01*
X91121387Y-35627994D01*
X90996741Y-35638461D01*
X90876533Y-35673044D01*
X90765381Y-35730414D01*
X90667558Y-35808366D01*
X90647776Y-35831775D01*
X90487250Y-35671249D01*
X90572743Y-35543300D01*
X90650764Y-35354942D01*
X90690538Y-35154983D01*
X90690538Y-34951105D01*
X90650764Y-34751146D01*
X90572743Y-34562788D01*
X90459475Y-34393270D01*
X90315312Y-34249107D01*
X90145794Y-34135839D01*
X89957436Y-34057818D01*
X89757477Y-34018044D01*
X89553599Y-34018044D01*
X89353640Y-34057818D01*
X89165282Y-34135839D01*
X88995764Y-34249107D01*
X88851601Y-34393270D01*
X88738333Y-34562788D01*
X88660312Y-34751146D01*
X88620538Y-34951105D01*
X88620538Y-35154983D01*
X88660312Y-35354942D01*
X88738333Y-35543300D01*
X88851601Y-35712818D01*
X88895538Y-35756755D01*
X88895538Y-35877016D01*
X88891862Y-35914338D01*
X88895538Y-35951660D01*
X88895538Y-35951670D01*
X88906535Y-36063323D01*
X88945410Y-36191479D01*
X88949992Y-36206584D01*
X89020564Y-36338614D01*
X89049356Y-36373697D01*
X89115537Y-36454339D01*
X89144541Y-36478142D01*
X89761619Y-37095221D01*
X89685279Y-37136026D01*
X89618436Y-37190883D01*
X89552733Y-37190883D01*
X89352774Y-37230657D01*
X89164416Y-37308678D01*
X88994898Y-37421946D01*
X88850735Y-37566109D01*
X88737467Y-37735627D01*
X88659446Y-37923985D01*
X88619672Y-38123944D01*
X88619672Y-38327822D01*
X88659446Y-38527781D01*
X88737467Y-38716139D01*
X88850735Y-38885657D01*
X88994898Y-39029820D01*
X89105007Y-39103392D01*
X88651182Y-39557217D01*
X88622178Y-39581020D01*
X88567242Y-39647960D01*
X88527205Y-39696745D01*
X88479055Y-39786827D01*
X88456633Y-39828775D01*
X88413176Y-39972036D01*
X88402179Y-40083689D01*
X88402179Y-40083699D01*
X88398503Y-40121021D01*
X88402179Y-40158344D01*
X88402179Y-40812589D01*
X88358242Y-40856526D01*
X88244974Y-41026044D01*
X88166953Y-41214402D01*
X88127179Y-41414361D01*
X88127179Y-41618239D01*
X88166953Y-41818198D01*
X88244974Y-42006556D01*
X88358242Y-42176074D01*
X88502405Y-42320237D01*
X88671923Y-42433505D01*
X88860281Y-42511526D01*
X88935593Y-42526506D01*
X88822076Y-42573527D01*
X88652558Y-42686795D01*
X88508395Y-42830958D01*
X88395127Y-43000476D01*
X88317106Y-43188834D01*
X88277332Y-43388793D01*
X88277332Y-43592671D01*
X88317106Y-43792630D01*
X88395127Y-43980988D01*
X88508395Y-44150506D01*
X88555729Y-44197840D01*
X88549582Y-44203987D01*
X88520578Y-44227790D01*
X88468328Y-44291457D01*
X88425605Y-44343515D01*
X88361823Y-44462842D01*
X88355033Y-44475545D01*
X88311576Y-44618806D01*
X88300579Y-44730459D01*
X88300579Y-44730469D01*
X88296903Y-44767791D01*
X88300579Y-44805114D01*
X88300580Y-47060988D01*
X88256642Y-47104926D01*
X88143374Y-47274444D01*
X88065353Y-47462802D01*
X88025579Y-47662761D01*
X88025579Y-47866639D01*
X88065353Y-48066598D01*
X88143374Y-48254956D01*
X88256642Y-48424474D01*
X88400805Y-48568637D01*
X88570323Y-48681905D01*
X88758681Y-48759926D01*
X88958640Y-48799700D01*
X89025580Y-48799700D01*
X89025580Y-49793425D01*
X89020333Y-49795598D01*
X88850815Y-49908866D01*
X88706652Y-50053029D01*
X88593384Y-50222547D01*
X88515363Y-50410905D01*
X88475589Y-50610864D01*
X88475589Y-50814742D01*
X88515363Y-51014701D01*
X88593384Y-51203059D01*
X88706652Y-51372577D01*
X88850815Y-51516740D01*
X89020333Y-51630008D01*
X89208691Y-51708029D01*
X89408650Y-51747803D01*
X89475590Y-51747803D01*
X89475590Y-52814165D01*
X89327142Y-52843693D01*
X89138784Y-52921714D01*
X88969266Y-53034982D01*
X88825103Y-53179145D01*
X88711835Y-53348663D01*
X88633814Y-53537021D01*
X88594040Y-53736980D01*
X88594040Y-53940858D01*
X88633814Y-54140817D01*
X88711835Y-54329175D01*
X88825103Y-54498693D01*
X88969266Y-54642856D01*
X89138784Y-54756124D01*
X89327142Y-54834145D01*
X89527101Y-54873919D01*
X89730979Y-54873919D01*
X89925600Y-54835207D01*
X89925600Y-56205867D01*
X89921923Y-56243199D01*
X89925600Y-56280532D01*
X89936597Y-56392185D01*
X89946747Y-56425645D01*
X89980053Y-56535445D01*
X90050625Y-56667475D01*
X90118517Y-56750201D01*
X90145599Y-56783200D01*
X90174597Y-56806998D01*
X90874900Y-57507302D01*
X90874900Y-57569439D01*
X90914674Y-57769398D01*
X90992695Y-57957756D01*
X91105963Y-58127274D01*
X91250126Y-58271437D01*
X91419644Y-58384705D01*
X91608002Y-58462726D01*
X91807961Y-58502500D01*
X92011839Y-58502500D01*
X92211798Y-58462726D01*
X92400156Y-58384705D01*
X92569674Y-58271437D01*
X92713837Y-58127274D01*
X92827105Y-57957756D01*
X92905126Y-57769398D01*
X92944900Y-57569439D01*
X92944900Y-57365561D01*
X92905126Y-57165602D01*
X92827105Y-56977244D01*
X92713837Y-56807726D01*
X92569674Y-56663563D01*
X92400156Y-56550295D01*
X92211798Y-56472274D01*
X92011839Y-56432500D01*
X91949702Y-56432500D01*
X91445599Y-55928398D01*
X91445599Y-55423700D01*
X95295801Y-59273903D01*
X95319599Y-59302901D01*
X95348597Y-59326699D01*
X95435323Y-59397874D01*
X95495086Y-59429818D01*
X95567353Y-59468446D01*
X95710614Y-59511903D01*
X95822267Y-59522900D01*
X95822277Y-59522900D01*
X95859600Y-59526576D01*
X95896923Y-59522900D01*
X98470589Y-59522900D01*
X98514526Y-59566837D01*
X98684044Y-59680105D01*
X98872402Y-59758126D01*
X99072361Y-59797900D01*
X99276239Y-59797900D01*
X99476198Y-59758126D01*
X99664556Y-59680105D01*
X99834074Y-59566837D01*
X99978237Y-59422674D01*
X100091505Y-59253156D01*
X100169526Y-59064798D01*
X100209300Y-58864839D01*
X100209300Y-58660961D01*
X100169526Y-58461002D01*
X100125027Y-58353574D01*
X101653901Y-56824701D01*
X101653901Y-58929597D01*
X100721808Y-59861691D01*
X100501660Y-59817900D01*
X100209140Y-59817900D01*
X99922242Y-59874968D01*
X99651989Y-59986910D01*
X99408768Y-60149425D01*
X99201925Y-60356268D01*
X99085400Y-60530660D01*
X98968875Y-60356268D01*
X98762032Y-60149425D01*
X98518811Y-59986910D01*
X98248558Y-59874968D01*
X97961660Y-59817900D01*
X97669140Y-59817900D01*
X97382242Y-59874968D01*
X97111989Y-59986910D01*
X96868768Y-60149425D01*
X96661925Y-60356268D01*
X96545400Y-60530660D01*
X96428875Y-60356268D01*
X96222032Y-60149425D01*
X95978811Y-59986910D01*
X95708558Y-59874968D01*
X95421660Y-59817900D01*
X95129140Y-59817900D01*
X94842242Y-59874968D01*
X94571989Y-59986910D01*
X94328768Y-60149425D01*
X94121925Y-60356268D01*
X94005400Y-60530660D01*
X93888875Y-60356268D01*
X93682032Y-60149425D01*
X93438811Y-59986910D01*
X93168558Y-59874968D01*
X92881660Y-59817900D01*
X92589140Y-59817900D01*
X92302242Y-59874968D01*
X92031989Y-59986910D01*
X91788768Y-60149425D01*
X91581925Y-60356268D01*
X91465400Y-60530660D01*
X91348875Y-60356268D01*
X91142032Y-60149425D01*
X90898811Y-59986910D01*
X90628558Y-59874968D01*
X90341660Y-59817900D01*
X90049140Y-59817900D01*
X89762242Y-59874968D01*
X89491989Y-59986910D01*
X89248768Y-60149425D01*
X89041925Y-60356268D01*
X88925400Y-60530660D01*
X88808875Y-60356268D01*
X88602032Y-60149425D01*
X88358811Y-59986910D01*
X88088558Y-59874968D01*
X87801660Y-59817900D01*
X87509140Y-59817900D01*
X87222242Y-59874968D01*
X86951989Y-59986910D01*
X86708768Y-60149425D01*
X86576913Y-60281280D01*
X86554902Y-60208720D01*
X86495937Y-60098406D01*
X86416585Y-60001715D01*
X86319894Y-59922363D01*
X86209580Y-59863398D01*
X86089882Y-59827088D01*
X85965400Y-59814828D01*
X84265400Y-59814828D01*
X84140918Y-59827088D01*
X84021220Y-59863398D01*
X83910906Y-59922363D01*
X83814215Y-60001715D01*
X83734863Y-60098406D01*
X83675898Y-60208720D01*
X83639588Y-60328418D01*
X83627328Y-60452900D01*
X83627328Y-61717901D01*
X82679504Y-61717901D01*
X82279172Y-61317570D01*
X82279172Y-61054300D01*
X82266912Y-60929818D01*
X82230602Y-60810120D01*
X82171637Y-60699806D01*
X82092285Y-60603115D01*
X82032675Y-60554195D01*
X82082858Y-60514719D01*
X82164193Y-60419689D01*
X82225426Y-60310618D01*
X82264204Y-60191697D01*
X82276100Y-60086050D01*
X82117350Y-59927300D01*
X81965800Y-59927300D01*
X81965800Y-59681300D01*
X82117350Y-59681300D01*
X82276100Y-59522550D01*
X82264204Y-59416903D01*
X82225426Y-59297982D01*
X82164193Y-59188911D01*
X82082858Y-59093881D01*
X81984547Y-59016545D01*
X81873037Y-58959875D01*
X81752614Y-58926048D01*
X81627905Y-58916364D01*
X81476850Y-58919300D01*
X81318100Y-59078050D01*
X81318100Y-59221519D01*
X81064100Y-59221519D01*
X81064100Y-59078050D01*
X80905350Y-58919300D01*
X80754295Y-58916364D01*
X80629586Y-58926048D01*
X80509163Y-58959875D01*
X80439800Y-58995126D01*
X80439800Y-58838322D01*
X80443476Y-58800999D01*
X80439800Y-58763676D01*
X80439800Y-58763667D01*
X80428803Y-58652014D01*
X80385346Y-58508753D01*
X80384600Y-58507357D01*
X80384600Y-58368861D01*
X80371639Y-58303700D01*
X84610601Y-58303700D01*
X84615474Y-58328198D01*
X84693495Y-58516556D01*
X84806763Y-58686074D01*
X84950926Y-58830237D01*
X85120444Y-58943505D01*
X85308802Y-59021526D01*
X85508761Y-59061300D01*
X85712639Y-59061300D01*
X85912598Y-59021526D01*
X86100956Y-58943505D01*
X86270474Y-58830237D01*
X86414637Y-58686074D01*
X86527905Y-58516556D01*
X86605926Y-58328198D01*
X86645700Y-58128239D01*
X86645700Y-57924361D01*
X86605926Y-57724402D01*
X86527905Y-57536044D01*
X86520276Y-57524627D01*
X86922904Y-57121999D01*
X86951902Y-57098202D01*
X87046875Y-56982477D01*
X87117447Y-56850448D01*
X87160904Y-56707187D01*
X87171901Y-56595534D01*
X87171901Y-56595524D01*
X87175577Y-56558201D01*
X87171901Y-56520878D01*
X87171901Y-50889224D01*
X87175577Y-50851901D01*
X87171901Y-50814578D01*
X87171901Y-50814568D01*
X87160904Y-50702915D01*
X87117447Y-50559654D01*
X87046875Y-50427625D01*
X86951902Y-50311900D01*
X86922903Y-50288102D01*
X86658400Y-50023598D01*
X86658400Y-49910661D01*
X86618626Y-49710702D01*
X86540605Y-49522344D01*
X86427337Y-49352826D01*
X86283174Y-49208663D01*
X86113656Y-49095395D01*
X85925298Y-49017374D01*
X85725339Y-48977600D01*
X85521461Y-48977600D01*
X85321502Y-49017374D01*
X85133144Y-49095395D01*
X84963626Y-49208663D01*
X84819463Y-49352826D01*
X84706195Y-49522344D01*
X84628174Y-49710702D01*
X84588400Y-49910661D01*
X84588400Y-50114539D01*
X84628174Y-50314498D01*
X84706195Y-50502856D01*
X84819463Y-50672374D01*
X84963626Y-50816537D01*
X85133144Y-50929805D01*
X85321502Y-51007826D01*
X85521461Y-51047600D01*
X85532798Y-51047600D01*
X85651902Y-51166704D01*
X85651902Y-53639900D01*
X85132504Y-53120502D01*
X85108701Y-53091499D01*
X84992976Y-52996526D01*
X84860947Y-52925954D01*
X84717686Y-52882497D01*
X84606033Y-52871500D01*
X84606022Y-52871500D01*
X84568700Y-52867824D01*
X84556872Y-52868989D01*
X84556872Y-52776500D01*
X84545053Y-52656500D01*
X84556872Y-52536500D01*
X84556872Y-52126500D01*
X84545053Y-52006500D01*
X84556872Y-51886500D01*
X84556872Y-51476500D01*
X84545053Y-51356500D01*
X84556872Y-51236500D01*
X84556872Y-50826500D01*
X84545053Y-50706500D01*
X84556872Y-50586500D01*
X84556872Y-50176500D01*
X84545053Y-50056500D01*
X84556872Y-49936500D01*
X84556872Y-49526500D01*
X84544612Y-49402018D01*
X84508302Y-49282320D01*
X84449337Y-49172006D01*
X84369985Y-49075315D01*
X84273294Y-48995963D01*
X84162980Y-48936998D01*
X84043282Y-48900688D01*
X83918800Y-48888428D01*
X82348800Y-48888428D01*
X82224318Y-48900688D01*
X82130003Y-48929298D01*
X83487102Y-47572200D01*
X84919689Y-47572200D01*
X84963626Y-47616137D01*
X85133144Y-47729405D01*
X85321502Y-47807426D01*
X85521461Y-47847200D01*
X85725339Y-47847200D01*
X85925298Y-47807426D01*
X86113656Y-47729405D01*
X86283174Y-47616137D01*
X86427337Y-47471974D01*
X86540605Y-47302456D01*
X86618626Y-47114098D01*
X86658400Y-46914139D01*
X86658400Y-46710261D01*
X86618626Y-46510302D01*
X86540605Y-46321944D01*
X86427337Y-46152426D01*
X86283174Y-46008263D01*
X86113656Y-45894995D01*
X85925298Y-45816974D01*
X85725339Y-45777200D01*
X85521461Y-45777200D01*
X85321502Y-45816974D01*
X85133144Y-45894995D01*
X84963626Y-46008263D01*
X84919689Y-46052200D01*
X84370692Y-46052200D01*
X85661792Y-44761100D01*
X85801539Y-44761100D01*
X86001498Y-44721326D01*
X86189856Y-44643305D01*
X86359374Y-44530037D01*
X86503537Y-44385874D01*
X86616805Y-44216356D01*
X86694826Y-44027998D01*
X86734600Y-43828039D01*
X86734600Y-43624161D01*
X86694826Y-43424202D01*
X86616805Y-43235844D01*
X86503537Y-43066326D01*
X86441806Y-43004595D01*
X87150404Y-42295998D01*
X87179401Y-42272201D01*
X87274374Y-42156476D01*
X87344946Y-42024447D01*
X87388403Y-41881186D01*
X87399400Y-41769533D01*
X87399400Y-41769532D01*
X87403077Y-41732200D01*
X87399400Y-41694867D01*
X87399400Y-41381811D01*
X87443337Y-41337874D01*
X87556605Y-41168356D01*
X87634626Y-40979998D01*
X87674400Y-40780039D01*
X87674400Y-40576161D01*
X87634626Y-40376202D01*
X87556605Y-40187844D01*
X87443337Y-40018326D01*
X87299174Y-39874163D01*
X87129656Y-39760895D01*
X86941298Y-39682874D01*
X86741339Y-39643100D01*
X86662800Y-39643100D01*
X86662800Y-38156011D01*
X86706737Y-38112074D01*
X86820005Y-37942556D01*
X86898026Y-37754198D01*
X86937800Y-37554239D01*
X86937800Y-37350361D01*
X86898026Y-37150402D01*
X86820005Y-36962044D01*
X86706737Y-36792526D01*
X86619190Y-36704979D01*
X86633746Y-36677747D01*
X86677203Y-36534486D01*
X86688200Y-36422833D01*
X86688200Y-36422824D01*
X86691876Y-36385501D01*
X86688200Y-36348178D01*
X86688200Y-34981011D01*
X86732137Y-34937074D01*
X86845405Y-34767556D01*
X86923426Y-34579198D01*
X86963200Y-34379239D01*
X86963200Y-34175361D01*
X86923426Y-33975402D01*
X86845405Y-33787044D01*
X86732137Y-33617526D01*
X86587974Y-33473363D01*
X86418456Y-33360095D01*
X86230098Y-33282074D01*
X86030139Y-33242300D01*
X85826261Y-33242300D01*
X85626302Y-33282074D01*
X85437944Y-33360095D01*
X85268426Y-33473363D01*
X85124263Y-33617526D01*
X85010995Y-33787044D01*
X84932974Y-33975402D01*
X84893200Y-34175361D01*
X84893200Y-34379239D01*
X84932974Y-34579198D01*
X85010995Y-34767556D01*
X85124263Y-34937074D01*
X85168201Y-34981012D01*
X85168200Y-36070698D01*
X84671172Y-36567727D01*
X84671172Y-36267700D01*
X84658912Y-36143218D01*
X84622602Y-36023520D01*
X84563637Y-35913206D01*
X84484285Y-35816515D01*
X84387594Y-35737163D01*
X84277280Y-35678198D01*
X84157582Y-35641888D01*
X84033100Y-35629628D01*
X82463100Y-35629628D01*
X82338618Y-35641888D01*
X82218920Y-35678198D01*
X82108606Y-35737163D01*
X82011915Y-35816515D01*
X81932563Y-35913206D01*
X81873598Y-36023520D01*
X81837288Y-36143218D01*
X81825028Y-36267700D01*
X81825028Y-36362700D01*
X80373892Y-36362700D01*
X80336569Y-36359024D01*
X80299246Y-36362700D01*
X80299237Y-36362700D01*
X80187584Y-36373697D01*
X80044323Y-36417154D01*
X79912294Y-36487726D01*
X79796569Y-36582699D01*
X79772771Y-36611697D01*
X79298303Y-37086166D01*
X79236165Y-37086166D01*
X79036206Y-37125940D01*
X78931172Y-37169447D01*
X78931172Y-36917700D01*
X78918956Y-36793668D01*
X78928100Y-36709450D01*
X78871615Y-36652965D01*
X78823637Y-36563206D01*
X78744285Y-36466515D01*
X78656778Y-36394700D01*
X78769350Y-36394700D01*
X78928100Y-36235950D01*
X78917055Y-36134221D01*
X78879025Y-36015058D01*
X78818479Y-35905604D01*
X78737742Y-35810066D01*
X78639919Y-35732114D01*
X78528767Y-35674744D01*
X78408559Y-35640161D01*
X78283913Y-35629694D01*
X77793850Y-35632700D01*
X77635100Y-35791450D01*
X77635100Y-35941079D01*
X77381100Y-35941079D01*
X77381100Y-35791450D01*
X77222350Y-35632700D01*
X76732287Y-35629694D01*
X76607641Y-35640161D01*
X76487433Y-35674744D01*
X76376281Y-35732114D01*
X76278458Y-35810066D01*
X76258676Y-35833475D01*
X76104635Y-35679434D01*
X76166838Y-35586341D01*
X76244859Y-35397983D01*
X76284633Y-35198024D01*
X76284633Y-34994146D01*
X76244859Y-34794187D01*
X76166838Y-34605829D01*
X76053570Y-34436311D01*
X75909407Y-34292148D01*
X75739889Y-34178880D01*
X75551531Y-34100859D01*
X75351572Y-34061085D01*
X75147694Y-34061085D01*
X74947735Y-34100859D01*
X74759377Y-34178880D01*
X74589859Y-34292148D01*
X74445696Y-34436311D01*
X74332428Y-34605829D01*
X74254407Y-34794187D01*
X74214633Y-34994146D01*
X74214633Y-35198024D01*
X74254407Y-35397983D01*
X74332428Y-35586341D01*
X74445696Y-35755859D01*
X74489633Y-35799796D01*
X74489633Y-35861911D01*
X74485957Y-35899233D01*
X74489633Y-35936555D01*
X74489633Y-35936565D01*
X74500630Y-36048218D01*
X74534300Y-36159214D01*
X74544087Y-36191479D01*
X74614659Y-36323509D01*
X74646823Y-36362700D01*
X74709632Y-36439234D01*
X74738636Y-36463037D01*
X75376308Y-37100710D01*
X75307056Y-37137726D01*
X75232535Y-37198884D01*
X75168209Y-37198884D01*
X74968250Y-37238658D01*
X74779892Y-37316679D01*
X74610374Y-37429947D01*
X74466211Y-37574110D01*
X74352943Y-37743628D01*
X74274922Y-37931986D01*
X74235148Y-38131945D01*
X74235148Y-38335823D01*
X74274922Y-38535782D01*
X74352943Y-38724140D01*
X74466211Y-38893658D01*
X74610374Y-39037821D01*
X74713962Y-39107036D01*
X74262083Y-39558916D01*
X74233079Y-39582719D01*
X74186497Y-39639480D01*
X74138106Y-39698444D01*
X74076764Y-39813206D01*
X74067534Y-39830474D01*
X74024077Y-39973735D01*
X74013080Y-40085388D01*
X74013080Y-40085398D01*
X74009404Y-40122720D01*
X74013080Y-40160043D01*
X74013080Y-40761789D01*
X73969143Y-40805726D01*
X73855875Y-40975244D01*
X73777854Y-41163602D01*
X73738080Y-41363561D01*
X73738080Y-41567439D01*
X73777854Y-41767398D01*
X73855875Y-41955756D01*
X73969143Y-42125274D01*
X74113306Y-42269437D01*
X74282824Y-42382705D01*
X74471182Y-42460726D01*
X74671141Y-42500500D01*
X74738081Y-42500500D01*
X74738081Y-43504193D01*
X74573175Y-43614379D01*
X74429012Y-43758542D01*
X74315744Y-43928060D01*
X74237723Y-44116418D01*
X74197949Y-44316377D01*
X74197949Y-44520255D01*
X74237723Y-44720214D01*
X74315744Y-44908572D01*
X74429012Y-45078090D01*
X74476345Y-45125423D01*
X74422772Y-45178997D01*
X74393768Y-45202800D01*
X74353564Y-45251789D01*
X74298795Y-45318525D01*
X74232327Y-45442877D01*
X74228223Y-45450555D01*
X74184766Y-45593816D01*
X74173769Y-45705469D01*
X74173769Y-45705479D01*
X74170093Y-45742801D01*
X74173769Y-45780124D01*
X74173770Y-46629422D01*
X74168523Y-46631595D01*
X73999005Y-46744863D01*
X73854842Y-46889026D01*
X73741574Y-47058544D01*
X73663553Y-47246902D01*
X73623779Y-47446861D01*
X73623779Y-47650739D01*
X73663553Y-47850698D01*
X73741574Y-48039056D01*
X73854842Y-48208574D01*
X73999005Y-48352737D01*
X74168523Y-48466005D01*
X74356881Y-48544026D01*
X74556840Y-48583800D01*
X74623780Y-48583800D01*
X74623780Y-49780059D01*
X74618533Y-49782232D01*
X74449015Y-49895500D01*
X74304852Y-50039663D01*
X74191584Y-50209181D01*
X74113563Y-50397539D01*
X74073789Y-50597498D01*
X74073789Y-50801376D01*
X74113563Y-51001335D01*
X74191584Y-51189693D01*
X74304852Y-51359211D01*
X74449015Y-51503374D01*
X74618533Y-51616642D01*
X74806891Y-51694663D01*
X75006850Y-51734437D01*
X75073790Y-51734437D01*
X75073790Y-52786800D01*
X74966620Y-52808117D01*
X74778262Y-52886138D01*
X74608744Y-52999406D01*
X74464581Y-53143569D01*
X74351313Y-53313087D01*
X74273292Y-53501445D01*
X74233518Y-53701404D01*
X74233518Y-53905282D01*
X74273292Y-54105241D01*
X74351313Y-54293599D01*
X74464581Y-54463117D01*
X74608744Y-54607280D01*
X74778262Y-54720548D01*
X74966620Y-54798569D01*
X75166579Y-54838343D01*
X75370457Y-54838343D01*
X75523800Y-54807841D01*
X75523800Y-56367573D01*
X75520123Y-56404905D01*
X75523800Y-56442238D01*
X75534797Y-56553891D01*
X75546070Y-56591054D01*
X75578253Y-56697151D01*
X75648825Y-56829181D01*
X75718333Y-56913876D01*
X75743799Y-56944906D01*
X75772797Y-56968704D01*
X76557347Y-57753255D01*
X76557347Y-57815392D01*
X76597121Y-58015351D01*
X76675142Y-58203709D01*
X76788410Y-58373227D01*
X76932573Y-58517390D01*
X77102091Y-58630658D01*
X77290449Y-58708679D01*
X77490408Y-58748453D01*
X77694286Y-58748453D01*
X77894245Y-58708679D01*
X78082603Y-58630658D01*
X78252121Y-58517390D01*
X78314600Y-58454911D01*
X78314600Y-58572739D01*
X78354374Y-58772698D01*
X78432395Y-58961056D01*
X78545663Y-59130574D01*
X78669875Y-59254786D01*
X78640298Y-59310120D01*
X78603988Y-59429818D01*
X78591728Y-59554300D01*
X78591728Y-60054300D01*
X78603988Y-60178782D01*
X78640298Y-60298480D01*
X78699263Y-60408794D01*
X78778615Y-60505485D01*
X78838096Y-60554300D01*
X78778615Y-60603115D01*
X78699263Y-60699806D01*
X78640298Y-60810120D01*
X78603988Y-60929818D01*
X78591728Y-61054300D01*
X78591728Y-61554300D01*
X78603988Y-61678782D01*
X78640298Y-61798480D01*
X78699263Y-61908794D01*
X78778615Y-62005485D01*
X78875306Y-62084837D01*
X78985620Y-62143802D01*
X79105318Y-62180112D01*
X79229800Y-62192372D01*
X79493071Y-62192372D01*
X80140698Y-62840000D01*
X74678208Y-62840000D01*
X74600770Y-62762562D01*
X75003373Y-62504402D01*
X75278951Y-61984985D01*
X75447901Y-61421787D01*
X75503730Y-60836450D01*
X75444292Y-60251467D01*
X75271871Y-59689321D01*
X75003373Y-59186998D01*
X74600768Y-58928837D01*
X72683905Y-60845700D01*
X72698048Y-60859843D01*
X72518443Y-61039448D01*
X72504300Y-61025305D01*
X72490158Y-61039448D01*
X72310553Y-60859843D01*
X72324695Y-60845700D01*
X72310553Y-60831558D01*
X72490158Y-60651953D01*
X72504300Y-60666095D01*
X74421163Y-58749232D01*
X74163002Y-58346627D01*
X73643585Y-58071049D01*
X73080387Y-57902099D01*
X72495050Y-57846270D01*
X71910067Y-57905708D01*
X71347921Y-58078129D01*
X70845598Y-58346627D01*
X70587438Y-58749230D01*
X70510000Y-58671792D01*
X70510000Y-52230463D01*
X70678271Y-52230463D01*
X70678271Y-52434341D01*
X70718045Y-52634300D01*
X70796066Y-52822658D01*
X70909334Y-52992176D01*
X71053497Y-53136339D01*
X71133151Y-53189562D01*
X71128281Y-53214046D01*
X71128281Y-53417924D01*
X71168055Y-53617883D01*
X71246076Y-53806241D01*
X71359344Y-53975759D01*
X71503507Y-54119922D01*
X71586044Y-54175071D01*
X71578291Y-54214049D01*
X71578291Y-54417927D01*
X71618065Y-54617886D01*
X71696086Y-54806244D01*
X71809354Y-54975762D01*
X71953517Y-55119925D01*
X72034739Y-55174196D01*
X72028301Y-55206561D01*
X72028301Y-55410439D01*
X72068075Y-55610398D01*
X72146096Y-55798756D01*
X72259364Y-55968274D01*
X72403527Y-56112437D01*
X72573045Y-56225705D01*
X72761403Y-56303726D01*
X72961362Y-56343500D01*
X73165240Y-56343500D01*
X73365199Y-56303726D01*
X73553557Y-56225705D01*
X73723075Y-56112437D01*
X73867238Y-55968274D01*
X73980506Y-55798756D01*
X74058527Y-55610398D01*
X74098301Y-55410439D01*
X74098301Y-55206561D01*
X74058527Y-55006602D01*
X73980506Y-54818244D01*
X73867238Y-54648726D01*
X73723075Y-54504563D01*
X73641853Y-54450292D01*
X73648291Y-54417927D01*
X73648291Y-54214049D01*
X73608517Y-54014090D01*
X73530496Y-53825732D01*
X73417228Y-53656214D01*
X73273065Y-53512051D01*
X73190528Y-53456902D01*
X73198281Y-53417924D01*
X73198281Y-53214046D01*
X73158507Y-53014087D01*
X73080486Y-52825729D01*
X72967218Y-52656211D01*
X72823055Y-52512048D01*
X72743401Y-52458825D01*
X72748271Y-52434341D01*
X72748271Y-52230463D01*
X72708497Y-52030504D01*
X72630476Y-51842146D01*
X72517208Y-51672628D01*
X72373045Y-51528465D01*
X72203527Y-51415197D01*
X72015169Y-51337176D01*
X71815210Y-51297402D01*
X71611332Y-51297402D01*
X71411373Y-51337176D01*
X71223015Y-51415197D01*
X71053497Y-51528465D01*
X70909334Y-51672628D01*
X70796066Y-51842146D01*
X70718045Y-52030504D01*
X70678271Y-52230463D01*
X70510000Y-52230463D01*
X70510000Y-31756881D01*
X70521820Y-31636335D01*
X70547455Y-31551425D01*
X70589091Y-31473121D01*
X70645146Y-31404391D01*
X70713485Y-31347856D01*
X70791499Y-31305674D01*
X70876224Y-31279446D01*
X70994642Y-31267000D01*
X132174723Y-31267000D01*
X132300202Y-31279303D01*
G37*
%TD.AperFunction*%
D17*
X103272505Y-48327971D02*
X103442023Y-48441239D01*
X103630381Y-48519260D01*
X103830340Y-48559034D01*
X103897280Y-48559034D01*
X103897280Y-49608796D01*
X103813883Y-49643340D01*
X103644365Y-49756608D01*
X103500202Y-49900771D01*
X103386934Y-50070289D01*
X103308913Y-50258647D01*
X103269139Y-50458606D01*
X103269139Y-50662484D01*
X103308913Y-50862443D01*
X103386934Y-51050801D01*
X103500202Y-51220319D01*
X103644365Y-51364482D01*
X103813883Y-51477750D01*
X104002241Y-51555771D01*
X104202200Y-51595545D01*
X104347290Y-51595545D01*
X104347290Y-52549695D01*
X104246973Y-52650012D01*
X104184836Y-52650012D01*
X103984877Y-52689786D01*
X103796519Y-52767807D01*
X103627001Y-52881075D01*
X103482838Y-53025238D01*
X103369570Y-53194756D01*
X103291549Y-53383114D01*
X103251775Y-53583073D01*
X103251775Y-53786951D01*
X103291549Y-53986910D01*
X103369570Y-54175268D01*
X103482838Y-54344786D01*
X103627001Y-54488949D01*
X103796519Y-54602217D01*
X103984877Y-54680238D01*
X104184836Y-54720012D01*
X104388714Y-54720012D01*
X104588673Y-54680238D01*
X104777031Y-54602217D01*
X104797300Y-54588674D01*
X104797300Y-56116967D01*
X104793623Y-56154299D01*
X104797300Y-56191632D01*
X104805942Y-56279369D01*
X104808297Y-56303284D01*
X104851753Y-56446545D01*
X104922325Y-56578575D01*
X104984156Y-56653915D01*
X105017299Y-56694300D01*
X105046297Y-56718098D01*
X105568800Y-57240602D01*
X105568800Y-57302739D01*
X105608574Y-57502698D01*
X105686595Y-57691056D01*
X105799863Y-57860574D01*
X105944026Y-58004737D01*
X106113544Y-58118005D01*
X106301902Y-58196026D01*
X106501861Y-58235800D01*
X106705739Y-58235800D01*
X106905698Y-58196026D01*
X107094056Y-58118005D01*
X107263574Y-58004737D01*
X107407737Y-57860574D01*
X107431031Y-57825712D01*
X107462774Y-57985298D01*
X107540795Y-58173656D01*
X107654063Y-58343174D01*
X107798226Y-58487337D01*
X107967744Y-58600605D01*
X108156102Y-58678626D01*
X108356061Y-58718400D01*
X108559939Y-58718400D01*
X108759898Y-58678626D01*
X108948256Y-58600605D01*
X109117774Y-58487337D01*
X109249689Y-58355422D01*
X109266963Y-58381274D01*
X109411126Y-58525437D01*
X109580644Y-58638705D01*
X109755401Y-58711092D01*
X109755400Y-60024721D01*
X109568768Y-60149425D01*
X109361925Y-60356268D01*
X109245400Y-60530660D01*
X109128875Y-60356268D01*
X108922032Y-60149425D01*
X108678811Y-59986910D01*
X108408558Y-59874968D01*
X108121660Y-59817900D01*
X107829140Y-59817900D01*
X107542242Y-59874968D01*
X107271989Y-59986910D01*
X107028768Y-60149425D01*
X106821925Y-60356268D01*
X106705400Y-60530660D01*
X106588875Y-60356268D01*
X106382032Y-60149425D01*
X106138811Y-59986910D01*
X105868558Y-59874968D01*
X105581660Y-59817900D01*
X105289140Y-59817900D01*
X105002242Y-59874968D01*
X104731989Y-59986910D01*
X104488768Y-60149425D01*
X104281925Y-60356268D01*
X104165400Y-60530660D01*
X104048875Y-60356268D01*
X103842032Y-60149425D01*
X103598811Y-59986910D01*
X103328558Y-59874968D01*
X103041660Y-59817900D01*
X102915202Y-59817900D01*
X102924905Y-59808197D01*
X102953902Y-59784400D01*
X103017903Y-59706415D01*
X103048875Y-59668676D01*
X103119447Y-59536646D01*
X103126354Y-59513876D01*
X103162904Y-59393385D01*
X103173901Y-59281732D01*
X103173901Y-59281723D01*
X103177577Y-59244400D01*
X103173901Y-59207077D01*
X103173901Y-48229367D01*
X103272505Y-48327971D01*
%TA.AperFunction,Conductor*%
D18*
G36*
X103272505Y-48327971D02*
G01*
X103442023Y-48441239D01*
X103630381Y-48519260D01*
X103830340Y-48559034D01*
X103897280Y-48559034D01*
X103897280Y-49608796D01*
X103813883Y-49643340D01*
X103644365Y-49756608D01*
X103500202Y-49900771D01*
X103386934Y-50070289D01*
X103308913Y-50258647D01*
X103269139Y-50458606D01*
X103269139Y-50662484D01*
X103308913Y-50862443D01*
X103386934Y-51050801D01*
X103500202Y-51220319D01*
X103644365Y-51364482D01*
X103813883Y-51477750D01*
X104002241Y-51555771D01*
X104202200Y-51595545D01*
X104347290Y-51595545D01*
X104347290Y-52549695D01*
X104246973Y-52650012D01*
X104184836Y-52650012D01*
X103984877Y-52689786D01*
X103796519Y-52767807D01*
X103627001Y-52881075D01*
X103482838Y-53025238D01*
X103369570Y-53194756D01*
X103291549Y-53383114D01*
X103251775Y-53583073D01*
X103251775Y-53786951D01*
X103291549Y-53986910D01*
X103369570Y-54175268D01*
X103482838Y-54344786D01*
X103627001Y-54488949D01*
X103796519Y-54602217D01*
X103984877Y-54680238D01*
X104184836Y-54720012D01*
X104388714Y-54720012D01*
X104588673Y-54680238D01*
X104777031Y-54602217D01*
X104797300Y-54588674D01*
X104797300Y-56116967D01*
X104793623Y-56154299D01*
X104797300Y-56191632D01*
X104805942Y-56279369D01*
X104808297Y-56303284D01*
X104851753Y-56446545D01*
X104922325Y-56578575D01*
X104984156Y-56653915D01*
X105017299Y-56694300D01*
X105046297Y-56718098D01*
X105568800Y-57240602D01*
X105568800Y-57302739D01*
X105608574Y-57502698D01*
X105686595Y-57691056D01*
X105799863Y-57860574D01*
X105944026Y-58004737D01*
X106113544Y-58118005D01*
X106301902Y-58196026D01*
X106501861Y-58235800D01*
X106705739Y-58235800D01*
X106905698Y-58196026D01*
X107094056Y-58118005D01*
X107263574Y-58004737D01*
X107407737Y-57860574D01*
X107431031Y-57825712D01*
X107462774Y-57985298D01*
X107540795Y-58173656D01*
X107654063Y-58343174D01*
X107798226Y-58487337D01*
X107967744Y-58600605D01*
X108156102Y-58678626D01*
X108356061Y-58718400D01*
X108559939Y-58718400D01*
X108759898Y-58678626D01*
X108948256Y-58600605D01*
X109117774Y-58487337D01*
X109249689Y-58355422D01*
X109266963Y-58381274D01*
X109411126Y-58525437D01*
X109580644Y-58638705D01*
X109755401Y-58711092D01*
X109755400Y-60024721D01*
X109568768Y-60149425D01*
X109361925Y-60356268D01*
X109245400Y-60530660D01*
X109128875Y-60356268D01*
X108922032Y-60149425D01*
X108678811Y-59986910D01*
X108408558Y-59874968D01*
X108121660Y-59817900D01*
X107829140Y-59817900D01*
X107542242Y-59874968D01*
X107271989Y-59986910D01*
X107028768Y-60149425D01*
X106821925Y-60356268D01*
X106705400Y-60530660D01*
X106588875Y-60356268D01*
X106382032Y-60149425D01*
X106138811Y-59986910D01*
X105868558Y-59874968D01*
X105581660Y-59817900D01*
X105289140Y-59817900D01*
X105002242Y-59874968D01*
X104731989Y-59986910D01*
X104488768Y-60149425D01*
X104281925Y-60356268D01*
X104165400Y-60530660D01*
X104048875Y-60356268D01*
X103842032Y-60149425D01*
X103598811Y-59986910D01*
X103328558Y-59874968D01*
X103041660Y-59817900D01*
X102915202Y-59817900D01*
X102924905Y-59808197D01*
X102953902Y-59784400D01*
X103017903Y-59706415D01*
X103048875Y-59668676D01*
X103119447Y-59536646D01*
X103126354Y-59513876D01*
X103162904Y-59393385D01*
X103173901Y-59281732D01*
X103173901Y-59281723D01*
X103177577Y-59244400D01*
X103173901Y-59207077D01*
X103173901Y-48229367D01*
X103272505Y-48327971D01*
G37*
%TD.AperFunction*%
D17*
X121088200Y-34391939D02*
X121127974Y-34591898D01*
X121205995Y-34780256D01*
X121319263Y-34949774D01*
X121463426Y-35093937D01*
X121632944Y-35207205D01*
X121812802Y-35281705D01*
X121812802Y-35681406D01*
X121748550Y-35681800D01*
X121589800Y-35840550D01*
X121589800Y-35991800D01*
X121335800Y-35991800D01*
X121335800Y-35840550D01*
X121177050Y-35681800D01*
X120686987Y-35678794D01*
X120562341Y-35689261D01*
X120442133Y-35723844D01*
X120330981Y-35781214D01*
X120233158Y-35859166D01*
X120152421Y-35954704D01*
X120091875Y-36064158D01*
X120053845Y-36183321D01*
X120042800Y-36285050D01*
X120201550Y-36443800D01*
X120314122Y-36443800D01*
X120226615Y-36515615D01*
X120147263Y-36612306D01*
X120099285Y-36702065D01*
X120042800Y-36758550D01*
X120051944Y-36842768D01*
X120039728Y-36966800D01*
X120039728Y-37061800D01*
X119221529Y-37061800D01*
X119184206Y-37058124D01*
X119174271Y-37059102D01*
X119040460Y-37032486D01*
X118836582Y-37032486D01*
X118636623Y-37072260D01*
X118448265Y-37150281D01*
X118278747Y-37263549D01*
X118134584Y-37407712D01*
X118021316Y-37577230D01*
X117943295Y-37765588D01*
X117903521Y-37965547D01*
X117903521Y-38169425D01*
X117943295Y-38369384D01*
X118021316Y-38557742D01*
X118134584Y-38727260D01*
X118278747Y-38871423D01*
X118448265Y-38984691D01*
X118636623Y-39062712D01*
X118741271Y-39083528D01*
X118209122Y-39615677D01*
X118180118Y-39639480D01*
X118127161Y-39704009D01*
X118085145Y-39755205D01*
X118017921Y-39880972D01*
X118014573Y-39887235D01*
X117971116Y-40030496D01*
X117960119Y-40142149D01*
X117960119Y-40142159D01*
X117956443Y-40179481D01*
X117960119Y-40216800D01*
X117960119Y-40489402D01*
X117916182Y-40533339D01*
X117802914Y-40702857D01*
X117724893Y-40891215D01*
X117685119Y-41091174D01*
X117685119Y-41295052D01*
X117724893Y-41495011D01*
X117802914Y-41683369D01*
X117916182Y-41852887D01*
X118060345Y-41997050D01*
X118229863Y-42110318D01*
X118418221Y-42188339D01*
X118618180Y-42228113D01*
X118685120Y-42228113D01*
X118685120Y-43230416D01*
X118616022Y-43244160D01*
X118427664Y-43322181D01*
X118258146Y-43435449D01*
X118113983Y-43579612D01*
X118000715Y-43749130D01*
X117922694Y-43937488D01*
X117882920Y-44137447D01*
X117882920Y-44341325D01*
X117922694Y-44541284D01*
X118000715Y-44729642D01*
X118113983Y-44899160D01*
X118258146Y-45043323D01*
X118427664Y-45156591D01*
X118442735Y-45162834D01*
X118107583Y-45497986D01*
X118078579Y-45521789D01*
X118024714Y-45587424D01*
X117983606Y-45637514D01*
X117919447Y-45757547D01*
X117913034Y-45769544D01*
X117869577Y-45912805D01*
X117858580Y-46024458D01*
X117858580Y-46024468D01*
X117854904Y-46061790D01*
X117858580Y-46099113D01*
X117858580Y-46730789D01*
X117814643Y-46774726D01*
X117701375Y-46944244D01*
X117623354Y-47132602D01*
X117583580Y-47332561D01*
X117583580Y-47536439D01*
X117623354Y-47736398D01*
X117701375Y-47924756D01*
X117814643Y-48094274D01*
X117958806Y-48238437D01*
X118128324Y-48351705D01*
X118316682Y-48429726D01*
X118516641Y-48469500D01*
X118583581Y-48469500D01*
X118583581Y-49562568D01*
X118443185Y-49620722D01*
X118273667Y-49733990D01*
X118129504Y-49878153D01*
X118016236Y-50047671D01*
X117938215Y-50236029D01*
X117934303Y-50255694D01*
X117875301Y-50183799D01*
X117846302Y-50160001D01*
X117149803Y-49463502D01*
X117126001Y-49434499D01*
X117010276Y-49339526D01*
X116878247Y-49268954D01*
X116734986Y-49225497D01*
X116623333Y-49214500D01*
X116623322Y-49214500D01*
X116586000Y-49210824D01*
X116548678Y-49214500D01*
X115727611Y-49214500D01*
X115683674Y-49170563D01*
X115514156Y-49057295D01*
X115325798Y-48979274D01*
X115125839Y-48939500D01*
X114921961Y-48939500D01*
X114722002Y-48979274D01*
X114533644Y-49057295D01*
X114364126Y-49170563D01*
X114219963Y-49314726D01*
X114106695Y-49484244D01*
X114028674Y-49672602D01*
X113988900Y-49872561D01*
X113988900Y-50076439D01*
X114028674Y-50276398D01*
X114106695Y-50464756D01*
X114219963Y-50634274D01*
X114364126Y-50778437D01*
X114533644Y-50891705D01*
X114722002Y-50969726D01*
X114921961Y-51009500D01*
X115125839Y-51009500D01*
X115325798Y-50969726D01*
X115514156Y-50891705D01*
X115683674Y-50778437D01*
X115727611Y-50734500D01*
X116271199Y-50734500D01*
X116575301Y-51038603D01*
X116575300Y-56174798D01*
X115484900Y-57265199D01*
X115042900Y-57265199D01*
X115042900Y-57098861D01*
X115003126Y-56898902D01*
X114925105Y-56710544D01*
X114811837Y-56541026D01*
X114667674Y-56396863D01*
X114498156Y-56283595D01*
X114309798Y-56205574D01*
X114109839Y-56165800D01*
X113905961Y-56165800D01*
X113780046Y-56190846D01*
X112750171Y-55160972D01*
X113192300Y-55160972D01*
X113316782Y-55148712D01*
X113436480Y-55112402D01*
X113501028Y-55077900D01*
X114406300Y-55077900D01*
X114498901Y-55170501D01*
X114498901Y-55232639D01*
X114538675Y-55432598D01*
X114616696Y-55620956D01*
X114729964Y-55790474D01*
X114874127Y-55934637D01*
X115043645Y-56047905D01*
X115232003Y-56125926D01*
X115431962Y-56165700D01*
X115635840Y-56165700D01*
X115835799Y-56125926D01*
X116024157Y-56047905D01*
X116193675Y-55934637D01*
X116337838Y-55790474D01*
X116451106Y-55620956D01*
X116529127Y-55432598D01*
X116568901Y-55232639D01*
X116568901Y-55028761D01*
X116529127Y-54828802D01*
X116451106Y-54640444D01*
X116337838Y-54470926D01*
X116193675Y-54326763D01*
X116024157Y-54213495D01*
X115835799Y-54135474D01*
X115635840Y-54095700D01*
X115573702Y-54095700D01*
X115284904Y-53806902D01*
X115261102Y-53777899D01*
X115145377Y-53682926D01*
X115013348Y-53612354D01*
X114870087Y-53568897D01*
X114758434Y-53557900D01*
X114758423Y-53557900D01*
X114721101Y-53554224D01*
X114683779Y-53557900D01*
X113830372Y-53557900D01*
X113830372Y-53462900D01*
X113818553Y-53342900D01*
X113830372Y-53222900D01*
X113830372Y-52812900D01*
X113818553Y-52692900D01*
X113830372Y-52572900D01*
X113830372Y-52162900D01*
X113818553Y-52042900D01*
X113830372Y-51922900D01*
X113830372Y-51512900D01*
X113818553Y-51392900D01*
X113830372Y-51272900D01*
X113830372Y-50862900D01*
X113818553Y-50742900D01*
X113830372Y-50622900D01*
X113830372Y-50212900D01*
X113818553Y-50092900D01*
X113830372Y-49972900D01*
X113830372Y-49562900D01*
X113818112Y-49438418D01*
X113781802Y-49318720D01*
X113722837Y-49208406D01*
X113643485Y-49111715D01*
X113546794Y-49032363D01*
X113436480Y-48973398D01*
X113316782Y-48937088D01*
X113192300Y-48924828D01*
X111622300Y-48924828D01*
X111497818Y-48937088D01*
X111378120Y-48973398D01*
X111278292Y-49026758D01*
X111127124Y-48996689D01*
X111082112Y-48996689D01*
X112532002Y-47546800D01*
X114218589Y-47546800D01*
X114262526Y-47590737D01*
X114432044Y-47704005D01*
X114620402Y-47782026D01*
X114820361Y-47821800D01*
X115024239Y-47821800D01*
X115224198Y-47782026D01*
X115412556Y-47704005D01*
X115582074Y-47590737D01*
X115726237Y-47446574D01*
X115839505Y-47277056D01*
X115917526Y-47088698D01*
X115957300Y-46888739D01*
X115957300Y-46684861D01*
X115917526Y-46484902D01*
X115839505Y-46296544D01*
X115726237Y-46127026D01*
X115582074Y-45982863D01*
X115412556Y-45869595D01*
X115224198Y-45791574D01*
X115024239Y-45751800D01*
X114820361Y-45751800D01*
X114620402Y-45791574D01*
X114432044Y-45869595D01*
X114262526Y-45982863D01*
X114218589Y-46026800D01*
X112254522Y-46026800D01*
X112217199Y-46023124D01*
X112179876Y-46026800D01*
X112179867Y-46026800D01*
X112068214Y-46037797D01*
X111924953Y-46081254D01*
X111792923Y-46151826D01*
X111731645Y-46202116D01*
X111677199Y-46246799D01*
X111653401Y-46275797D01*
X110610174Y-47319025D01*
X110610174Y-46522903D01*
X111759592Y-45373485D01*
X111821729Y-45373485D01*
X112021688Y-45333711D01*
X112210046Y-45255690D01*
X112379564Y-45142422D01*
X112523727Y-44998259D01*
X112636995Y-44828741D01*
X112715016Y-44640383D01*
X112754790Y-44440424D01*
X112754790Y-44236546D01*
X112715016Y-44036587D01*
X112695669Y-43989880D01*
X112797986Y-43979803D01*
X112941247Y-43936346D01*
X113073276Y-43865774D01*
X113189001Y-43770801D01*
X113212804Y-43741797D01*
X115292302Y-41662300D01*
X115354439Y-41662300D01*
X115554398Y-41622526D01*
X115742756Y-41544505D01*
X115912274Y-41431237D01*
X116056437Y-41287074D01*
X116169705Y-41117556D01*
X116247726Y-40929198D01*
X116287500Y-40729239D01*
X116287500Y-40525361D01*
X116247726Y-40325402D01*
X116169705Y-40137044D01*
X116056437Y-39967526D01*
X115912274Y-39823363D01*
X115742756Y-39710095D01*
X115554398Y-39632074D01*
X115354439Y-39592300D01*
X115287190Y-39592300D01*
X115287190Y-38467876D01*
X115463356Y-38394905D01*
X115632874Y-38281637D01*
X115777037Y-38137474D01*
X115890305Y-37967956D01*
X115968326Y-37779598D01*
X116008100Y-37579639D01*
X116008100Y-37375761D01*
X115968326Y-37175802D01*
X115890305Y-36987444D01*
X115777037Y-36817926D01*
X115632874Y-36673763D01*
X115463356Y-36560495D01*
X115274998Y-36482474D01*
X115075039Y-36442700D01*
X114871161Y-36442700D01*
X114671202Y-36482474D01*
X114482844Y-36560495D01*
X114391601Y-36621461D01*
X114391601Y-36094121D01*
X114395277Y-36056798D01*
X114391601Y-36019475D01*
X114391601Y-36019466D01*
X114380604Y-35907813D01*
X114337147Y-35764552D01*
X114293092Y-35682132D01*
X114266575Y-35632522D01*
X114195400Y-35545796D01*
X114171602Y-35516798D01*
X114142604Y-35493000D01*
X112974602Y-34324999D01*
X121088200Y-34324999D01*
X121088200Y-34391939D01*
%TA.AperFunction,Conductor*%
D18*
G36*
X121088200Y-34391939D02*
G01*
X121127974Y-34591898D01*
X121205995Y-34780256D01*
X121319263Y-34949774D01*
X121463426Y-35093937D01*
X121632944Y-35207205D01*
X121812802Y-35281705D01*
X121812802Y-35681406D01*
X121748550Y-35681800D01*
X121589800Y-35840550D01*
X121589800Y-35991800D01*
X121335800Y-35991800D01*
X121335800Y-35840550D01*
X121177050Y-35681800D01*
X120686987Y-35678794D01*
X120562341Y-35689261D01*
X120442133Y-35723844D01*
X120330981Y-35781214D01*
X120233158Y-35859166D01*
X120152421Y-35954704D01*
X120091875Y-36064158D01*
X120053845Y-36183321D01*
X120042800Y-36285050D01*
X120201550Y-36443800D01*
X120314122Y-36443800D01*
X120226615Y-36515615D01*
X120147263Y-36612306D01*
X120099285Y-36702065D01*
X120042800Y-36758550D01*
X120051944Y-36842768D01*
X120039728Y-36966800D01*
X120039728Y-37061800D01*
X119221529Y-37061800D01*
X119184206Y-37058124D01*
X119174271Y-37059102D01*
X119040460Y-37032486D01*
X118836582Y-37032486D01*
X118636623Y-37072260D01*
X118448265Y-37150281D01*
X118278747Y-37263549D01*
X118134584Y-37407712D01*
X118021316Y-37577230D01*
X117943295Y-37765588D01*
X117903521Y-37965547D01*
X117903521Y-38169425D01*
X117943295Y-38369384D01*
X118021316Y-38557742D01*
X118134584Y-38727260D01*
X118278747Y-38871423D01*
X118448265Y-38984691D01*
X118636623Y-39062712D01*
X118741271Y-39083528D01*
X118209122Y-39615677D01*
X118180118Y-39639480D01*
X118127161Y-39704009D01*
X118085145Y-39755205D01*
X118017921Y-39880972D01*
X118014573Y-39887235D01*
X117971116Y-40030496D01*
X117960119Y-40142149D01*
X117960119Y-40142159D01*
X117956443Y-40179481D01*
X117960119Y-40216800D01*
X117960119Y-40489402D01*
X117916182Y-40533339D01*
X117802914Y-40702857D01*
X117724893Y-40891215D01*
X117685119Y-41091174D01*
X117685119Y-41295052D01*
X117724893Y-41495011D01*
X117802914Y-41683369D01*
X117916182Y-41852887D01*
X118060345Y-41997050D01*
X118229863Y-42110318D01*
X118418221Y-42188339D01*
X118618180Y-42228113D01*
X118685120Y-42228113D01*
X118685120Y-43230416D01*
X118616022Y-43244160D01*
X118427664Y-43322181D01*
X118258146Y-43435449D01*
X118113983Y-43579612D01*
X118000715Y-43749130D01*
X117922694Y-43937488D01*
X117882920Y-44137447D01*
X117882920Y-44341325D01*
X117922694Y-44541284D01*
X118000715Y-44729642D01*
X118113983Y-44899160D01*
X118258146Y-45043323D01*
X118427664Y-45156591D01*
X118442735Y-45162834D01*
X118107583Y-45497986D01*
X118078579Y-45521789D01*
X118024714Y-45587424D01*
X117983606Y-45637514D01*
X117919447Y-45757547D01*
X117913034Y-45769544D01*
X117869577Y-45912805D01*
X117858580Y-46024458D01*
X117858580Y-46024468D01*
X117854904Y-46061790D01*
X117858580Y-46099113D01*
X117858580Y-46730789D01*
X117814643Y-46774726D01*
X117701375Y-46944244D01*
X117623354Y-47132602D01*
X117583580Y-47332561D01*
X117583580Y-47536439D01*
X117623354Y-47736398D01*
X117701375Y-47924756D01*
X117814643Y-48094274D01*
X117958806Y-48238437D01*
X118128324Y-48351705D01*
X118316682Y-48429726D01*
X118516641Y-48469500D01*
X118583581Y-48469500D01*
X118583581Y-49562568D01*
X118443185Y-49620722D01*
X118273667Y-49733990D01*
X118129504Y-49878153D01*
X118016236Y-50047671D01*
X117938215Y-50236029D01*
X117934303Y-50255694D01*
X117875301Y-50183799D01*
X117846302Y-50160001D01*
X117149803Y-49463502D01*
X117126001Y-49434499D01*
X117010276Y-49339526D01*
X116878247Y-49268954D01*
X116734986Y-49225497D01*
X116623333Y-49214500D01*
X116623322Y-49214500D01*
X116586000Y-49210824D01*
X116548678Y-49214500D01*
X115727611Y-49214500D01*
X115683674Y-49170563D01*
X115514156Y-49057295D01*
X115325798Y-48979274D01*
X115125839Y-48939500D01*
X114921961Y-48939500D01*
X114722002Y-48979274D01*
X114533644Y-49057295D01*
X114364126Y-49170563D01*
X114219963Y-49314726D01*
X114106695Y-49484244D01*
X114028674Y-49672602D01*
X113988900Y-49872561D01*
X113988900Y-50076439D01*
X114028674Y-50276398D01*
X114106695Y-50464756D01*
X114219963Y-50634274D01*
X114364126Y-50778437D01*
X114533644Y-50891705D01*
X114722002Y-50969726D01*
X114921961Y-51009500D01*
X115125839Y-51009500D01*
X115325798Y-50969726D01*
X115514156Y-50891705D01*
X115683674Y-50778437D01*
X115727611Y-50734500D01*
X116271199Y-50734500D01*
X116575301Y-51038603D01*
X116575300Y-56174798D01*
X115484900Y-57265199D01*
X115042900Y-57265199D01*
X115042900Y-57098861D01*
X115003126Y-56898902D01*
X114925105Y-56710544D01*
X114811837Y-56541026D01*
X114667674Y-56396863D01*
X114498156Y-56283595D01*
X114309798Y-56205574D01*
X114109839Y-56165800D01*
X113905961Y-56165800D01*
X113780046Y-56190846D01*
X112750171Y-55160972D01*
X113192300Y-55160972D01*
X113316782Y-55148712D01*
X113436480Y-55112402D01*
X113501028Y-55077900D01*
X114406300Y-55077900D01*
X114498901Y-55170501D01*
X114498901Y-55232639D01*
X114538675Y-55432598D01*
X114616696Y-55620956D01*
X114729964Y-55790474D01*
X114874127Y-55934637D01*
X115043645Y-56047905D01*
X115232003Y-56125926D01*
X115431962Y-56165700D01*
X115635840Y-56165700D01*
X115835799Y-56125926D01*
X116024157Y-56047905D01*
X116193675Y-55934637D01*
X116337838Y-55790474D01*
X116451106Y-55620956D01*
X116529127Y-55432598D01*
X116568901Y-55232639D01*
X116568901Y-55028761D01*
X116529127Y-54828802D01*
X116451106Y-54640444D01*
X116337838Y-54470926D01*
X116193675Y-54326763D01*
X116024157Y-54213495D01*
X115835799Y-54135474D01*
X115635840Y-54095700D01*
X115573702Y-54095700D01*
X115284904Y-53806902D01*
X115261102Y-53777899D01*
X115145377Y-53682926D01*
X115013348Y-53612354D01*
X114870087Y-53568897D01*
X114758434Y-53557900D01*
X114758423Y-53557900D01*
X114721101Y-53554224D01*
X114683779Y-53557900D01*
X113830372Y-53557900D01*
X113830372Y-53462900D01*
X113818553Y-53342900D01*
X113830372Y-53222900D01*
X113830372Y-52812900D01*
X113818553Y-52692900D01*
X113830372Y-52572900D01*
X113830372Y-52162900D01*
X113818553Y-52042900D01*
X113830372Y-51922900D01*
X113830372Y-51512900D01*
X113818553Y-51392900D01*
X113830372Y-51272900D01*
X113830372Y-50862900D01*
X113818553Y-50742900D01*
X113830372Y-50622900D01*
X113830372Y-50212900D01*
X113818553Y-50092900D01*
X113830372Y-49972900D01*
X113830372Y-49562900D01*
X113818112Y-49438418D01*
X113781802Y-49318720D01*
X113722837Y-49208406D01*
X113643485Y-49111715D01*
X113546794Y-49032363D01*
X113436480Y-48973398D01*
X113316782Y-48937088D01*
X113192300Y-48924828D01*
X111622300Y-48924828D01*
X111497818Y-48937088D01*
X111378120Y-48973398D01*
X111278292Y-49026758D01*
X111127124Y-48996689D01*
X111082112Y-48996689D01*
X112532002Y-47546800D01*
X114218589Y-47546800D01*
X114262526Y-47590737D01*
X114432044Y-47704005D01*
X114620402Y-47782026D01*
X114820361Y-47821800D01*
X115024239Y-47821800D01*
X115224198Y-47782026D01*
X115412556Y-47704005D01*
X115582074Y-47590737D01*
X115726237Y-47446574D01*
X115839505Y-47277056D01*
X115917526Y-47088698D01*
X115957300Y-46888739D01*
X115957300Y-46684861D01*
X115917526Y-46484902D01*
X115839505Y-46296544D01*
X115726237Y-46127026D01*
X115582074Y-45982863D01*
X115412556Y-45869595D01*
X115224198Y-45791574D01*
X115024239Y-45751800D01*
X114820361Y-45751800D01*
X114620402Y-45791574D01*
X114432044Y-45869595D01*
X114262526Y-45982863D01*
X114218589Y-46026800D01*
X112254522Y-46026800D01*
X112217199Y-46023124D01*
X112179876Y-46026800D01*
X112179867Y-46026800D01*
X112068214Y-46037797D01*
X111924953Y-46081254D01*
X111792923Y-46151826D01*
X111731645Y-46202116D01*
X111677199Y-46246799D01*
X111653401Y-46275797D01*
X110610174Y-47319025D01*
X110610174Y-46522903D01*
X111759592Y-45373485D01*
X111821729Y-45373485D01*
X112021688Y-45333711D01*
X112210046Y-45255690D01*
X112379564Y-45142422D01*
X112523727Y-44998259D01*
X112636995Y-44828741D01*
X112715016Y-44640383D01*
X112754790Y-44440424D01*
X112754790Y-44236546D01*
X112715016Y-44036587D01*
X112695669Y-43989880D01*
X112797986Y-43979803D01*
X112941247Y-43936346D01*
X113073276Y-43865774D01*
X113189001Y-43770801D01*
X113212804Y-43741797D01*
X115292302Y-41662300D01*
X115354439Y-41662300D01*
X115554398Y-41622526D01*
X115742756Y-41544505D01*
X115912274Y-41431237D01*
X116056437Y-41287074D01*
X116169705Y-41117556D01*
X116247726Y-40929198D01*
X116287500Y-40729239D01*
X116287500Y-40525361D01*
X116247726Y-40325402D01*
X116169705Y-40137044D01*
X116056437Y-39967526D01*
X115912274Y-39823363D01*
X115742756Y-39710095D01*
X115554398Y-39632074D01*
X115354439Y-39592300D01*
X115287190Y-39592300D01*
X115287190Y-38467876D01*
X115463356Y-38394905D01*
X115632874Y-38281637D01*
X115777037Y-38137474D01*
X115890305Y-37967956D01*
X115968326Y-37779598D01*
X116008100Y-37579639D01*
X116008100Y-37375761D01*
X115968326Y-37175802D01*
X115890305Y-36987444D01*
X115777037Y-36817926D01*
X115632874Y-36673763D01*
X115463356Y-36560495D01*
X115274998Y-36482474D01*
X115075039Y-36442700D01*
X114871161Y-36442700D01*
X114671202Y-36482474D01*
X114482844Y-36560495D01*
X114391601Y-36621461D01*
X114391601Y-36094121D01*
X114395277Y-36056798D01*
X114391601Y-36019475D01*
X114391601Y-36019466D01*
X114380604Y-35907813D01*
X114337147Y-35764552D01*
X114293092Y-35682132D01*
X114266575Y-35632522D01*
X114195400Y-35545796D01*
X114171602Y-35516798D01*
X114142604Y-35493000D01*
X112974602Y-34324999D01*
X121088200Y-34324999D01*
X121088200Y-34391939D01*
G37*
%TD.AperFunction*%
D17*
X109366794Y-56961895D02*
X109279211Y-57049478D01*
X109261937Y-57023626D01*
X109117774Y-56879463D01*
X108948256Y-56766195D01*
X108759898Y-56688174D01*
X108559939Y-56648400D01*
X108356061Y-56648400D01*
X108156102Y-56688174D01*
X107967744Y-56766195D01*
X107798226Y-56879463D01*
X107654063Y-57023626D01*
X107630769Y-57058488D01*
X107599026Y-56898902D01*
X107521005Y-56710544D01*
X107407737Y-56541026D01*
X107263574Y-56396863D01*
X107094056Y-56283595D01*
X106905698Y-56205574D01*
X106705739Y-56165800D01*
X106643602Y-56165800D01*
X106317299Y-55839498D01*
X106317299Y-55160972D01*
X107452300Y-55160972D01*
X107555688Y-55150789D01*
X109366794Y-56961895D01*
%TA.AperFunction,Conductor*%
D18*
G36*
X109366794Y-56961895D02*
G01*
X109279211Y-57049478D01*
X109261937Y-57023626D01*
X109117774Y-56879463D01*
X108948256Y-56766195D01*
X108759898Y-56688174D01*
X108559939Y-56648400D01*
X108356061Y-56648400D01*
X108156102Y-56688174D01*
X107967744Y-56766195D01*
X107798226Y-56879463D01*
X107654063Y-57023626D01*
X107630769Y-57058488D01*
X107599026Y-56898902D01*
X107521005Y-56710544D01*
X107407737Y-56541026D01*
X107263574Y-56396863D01*
X107094056Y-56283595D01*
X106905698Y-56205574D01*
X106705739Y-56165800D01*
X106643602Y-56165800D01*
X106317299Y-55839498D01*
X106317299Y-55160972D01*
X107452300Y-55160972D01*
X107555688Y-55150789D01*
X109366794Y-56961895D01*
G37*
%TD.AperFunction*%
D17*
X101653901Y-48926800D02*
X101586961Y-48926800D01*
X101387002Y-48966574D01*
X101198644Y-49044595D01*
X101029126Y-49157863D01*
X100884963Y-49302026D01*
X100771695Y-49471544D01*
X100693674Y-49659902D01*
X100653900Y-49859861D01*
X100653900Y-50063739D01*
X100693674Y-50263698D01*
X100771695Y-50452056D01*
X100884963Y-50621574D01*
X100928901Y-50665512D01*
X100928900Y-55400098D01*
X99921600Y-56407399D01*
X99921600Y-54245422D01*
X99925276Y-54208099D01*
X99921600Y-54170776D01*
X99921600Y-54170767D01*
X99910603Y-54059114D01*
X99867146Y-53915853D01*
X99796574Y-53783824D01*
X99701601Y-53668099D01*
X99672604Y-53644302D01*
X99134403Y-53106102D01*
X99110601Y-53077099D01*
X98994876Y-52982126D01*
X98958672Y-52962774D01*
X98958672Y-52762100D01*
X98946853Y-52642100D01*
X98958672Y-52522100D01*
X98958672Y-52112100D01*
X98946853Y-51992100D01*
X98958672Y-51872100D01*
X98958672Y-51462100D01*
X98946853Y-51342100D01*
X98958672Y-51222100D01*
X98958672Y-50812100D01*
X98946853Y-50692100D01*
X98958672Y-50572100D01*
X98958672Y-50162100D01*
X98946853Y-50042100D01*
X98958672Y-49922100D01*
X98958672Y-49512100D01*
X98946412Y-49387618D01*
X98910102Y-49267920D01*
X98851137Y-49157606D01*
X98771785Y-49060915D01*
X98675094Y-48981563D01*
X98564780Y-48922598D01*
X98445082Y-48886288D01*
X98320600Y-48874028D01*
X96929973Y-48874028D01*
X98219102Y-47584900D01*
X99461189Y-47584900D01*
X99505126Y-47628837D01*
X99674644Y-47742105D01*
X99863002Y-47820126D01*
X100062961Y-47859900D01*
X100266839Y-47859900D01*
X100466798Y-47820126D01*
X100655156Y-47742105D01*
X100824674Y-47628837D01*
X100968837Y-47484674D01*
X101082105Y-47315156D01*
X101160126Y-47126798D01*
X101199900Y-46926839D01*
X101199900Y-46722961D01*
X101160126Y-46523002D01*
X101082105Y-46334644D01*
X100968837Y-46165126D01*
X100824674Y-46020963D01*
X100655156Y-45907695D01*
X100466798Y-45829674D01*
X100266839Y-45789900D01*
X100062961Y-45789900D01*
X99863002Y-45829674D01*
X99674644Y-45907695D01*
X99505126Y-46020963D01*
X99461189Y-46064900D01*
X99102692Y-46064900D01*
X100511030Y-44656562D01*
X100604356Y-44617905D01*
X100773874Y-44504637D01*
X100918037Y-44360474D01*
X101031305Y-44190956D01*
X101109326Y-44002598D01*
X101149100Y-43802639D01*
X101149100Y-43598761D01*
X101109326Y-43398802D01*
X101031305Y-43210444D01*
X100918037Y-43040926D01*
X100840861Y-42963750D01*
X100857172Y-42943876D01*
X100927744Y-42811847D01*
X100971201Y-42668586D01*
X100982198Y-42556933D01*
X100982198Y-42556923D01*
X100985874Y-42519600D01*
X100982198Y-42482277D01*
X100982198Y-41349913D01*
X101006937Y-41325174D01*
X101120205Y-41155656D01*
X101198226Y-40967298D01*
X101238000Y-40767339D01*
X101238000Y-40563461D01*
X101198226Y-40363502D01*
X101120205Y-40175144D01*
X101006937Y-40005626D01*
X100938856Y-39937545D01*
X101247404Y-39628998D01*
X101276401Y-39605201D01*
X101371374Y-39489476D01*
X101441946Y-39357447D01*
X101485403Y-39214186D01*
X101496400Y-39102533D01*
X101496400Y-39102525D01*
X101500076Y-39065200D01*
X101496400Y-39027875D01*
X101496400Y-38181411D01*
X101540337Y-38137474D01*
X101653605Y-37967956D01*
X101653902Y-37967239D01*
X101653901Y-48926800D01*
%TA.AperFunction,Conductor*%
D18*
G36*
X101653901Y-48926800D02*
G01*
X101586961Y-48926800D01*
X101387002Y-48966574D01*
X101198644Y-49044595D01*
X101029126Y-49157863D01*
X100884963Y-49302026D01*
X100771695Y-49471544D01*
X100693674Y-49659902D01*
X100653900Y-49859861D01*
X100653900Y-50063739D01*
X100693674Y-50263698D01*
X100771695Y-50452056D01*
X100884963Y-50621574D01*
X100928901Y-50665512D01*
X100928900Y-55400098D01*
X99921600Y-56407399D01*
X99921600Y-54245422D01*
X99925276Y-54208099D01*
X99921600Y-54170776D01*
X99921600Y-54170767D01*
X99910603Y-54059114D01*
X99867146Y-53915853D01*
X99796574Y-53783824D01*
X99701601Y-53668099D01*
X99672604Y-53644302D01*
X99134403Y-53106102D01*
X99110601Y-53077099D01*
X98994876Y-52982126D01*
X98958672Y-52962774D01*
X98958672Y-52762100D01*
X98946853Y-52642100D01*
X98958672Y-52522100D01*
X98958672Y-52112100D01*
X98946853Y-51992100D01*
X98958672Y-51872100D01*
X98958672Y-51462100D01*
X98946853Y-51342100D01*
X98958672Y-51222100D01*
X98958672Y-50812100D01*
X98946853Y-50692100D01*
X98958672Y-50572100D01*
X98958672Y-50162100D01*
X98946853Y-50042100D01*
X98958672Y-49922100D01*
X98958672Y-49512100D01*
X98946412Y-49387618D01*
X98910102Y-49267920D01*
X98851137Y-49157606D01*
X98771785Y-49060915D01*
X98675094Y-48981563D01*
X98564780Y-48922598D01*
X98445082Y-48886288D01*
X98320600Y-48874028D01*
X96929973Y-48874028D01*
X98219102Y-47584900D01*
X99461189Y-47584900D01*
X99505126Y-47628837D01*
X99674644Y-47742105D01*
X99863002Y-47820126D01*
X100062961Y-47859900D01*
X100266839Y-47859900D01*
X100466798Y-47820126D01*
X100655156Y-47742105D01*
X100824674Y-47628837D01*
X100968837Y-47484674D01*
X101082105Y-47315156D01*
X101160126Y-47126798D01*
X101199900Y-46926839D01*
X101199900Y-46722961D01*
X101160126Y-46523002D01*
X101082105Y-46334644D01*
X100968837Y-46165126D01*
X100824674Y-46020963D01*
X100655156Y-45907695D01*
X100466798Y-45829674D01*
X100266839Y-45789900D01*
X100062961Y-45789900D01*
X99863002Y-45829674D01*
X99674644Y-45907695D01*
X99505126Y-46020963D01*
X99461189Y-46064900D01*
X99102692Y-46064900D01*
X100511030Y-44656562D01*
X100604356Y-44617905D01*
X100773874Y-44504637D01*
X100918037Y-44360474D01*
X101031305Y-44190956D01*
X101109326Y-44002598D01*
X101149100Y-43802639D01*
X101149100Y-43598761D01*
X101109326Y-43398802D01*
X101031305Y-43210444D01*
X100918037Y-43040926D01*
X100840861Y-42963750D01*
X100857172Y-42943876D01*
X100927744Y-42811847D01*
X100971201Y-42668586D01*
X100982198Y-42556933D01*
X100982198Y-42556923D01*
X100985874Y-42519600D01*
X100982198Y-42482277D01*
X100982198Y-41349913D01*
X101006937Y-41325174D01*
X101120205Y-41155656D01*
X101198226Y-40967298D01*
X101238000Y-40767339D01*
X101238000Y-40563461D01*
X101198226Y-40363502D01*
X101120205Y-40175144D01*
X101006937Y-40005626D01*
X100938856Y-39937545D01*
X101247404Y-39628998D01*
X101276401Y-39605201D01*
X101371374Y-39489476D01*
X101441946Y-39357447D01*
X101485403Y-39214186D01*
X101496400Y-39102533D01*
X101496400Y-39102525D01*
X101500076Y-39065200D01*
X101496400Y-39027875D01*
X101496400Y-38181411D01*
X101540337Y-38137474D01*
X101653605Y-37967956D01*
X101653902Y-37967239D01*
X101653901Y-48926800D01*
G37*
%TD.AperFunction*%
D17*
X109334769Y-43739473D02*
X107989144Y-45085100D01*
X107960146Y-45108898D01*
X107936348Y-45137896D01*
X107936347Y-45137897D01*
X107865172Y-45224623D01*
X107794600Y-45356653D01*
X107770010Y-45437718D01*
X107751144Y-45499913D01*
X107748710Y-45524626D01*
X107736470Y-45648899D01*
X107740147Y-45686231D01*
X107740145Y-48996875D01*
X107687967Y-48969944D01*
X107567759Y-48935361D01*
X107443113Y-48924894D01*
X106953050Y-48927900D01*
X106794300Y-49086650D01*
X106794300Y-49237900D01*
X106540300Y-49237900D01*
X106540300Y-49086650D01*
X106381550Y-48927900D01*
X106317299Y-48927506D01*
X106317299Y-46665902D01*
X109334769Y-43648433D01*
X109334769Y-43739473D01*
%TA.AperFunction,Conductor*%
D18*
G36*
X109334769Y-43739473D02*
G01*
X107989144Y-45085100D01*
X107960146Y-45108898D01*
X107936348Y-45137896D01*
X107936347Y-45137897D01*
X107865172Y-45224623D01*
X107794600Y-45356653D01*
X107770010Y-45437718D01*
X107751144Y-45499913D01*
X107748710Y-45524626D01*
X107736470Y-45648899D01*
X107740147Y-45686231D01*
X107740145Y-48996875D01*
X107687967Y-48969944D01*
X107567759Y-48935361D01*
X107443113Y-48924894D01*
X106953050Y-48927900D01*
X106794300Y-49086650D01*
X106794300Y-49237900D01*
X106540300Y-49237900D01*
X106540300Y-49086650D01*
X106381550Y-48927900D01*
X106317299Y-48927506D01*
X106317299Y-46665902D01*
X109334769Y-43648433D01*
X109334769Y-43739473D01*
G37*
%TD.AperFunction*%
D17*
X122835179Y-44923890D02*
X123004697Y-45037158D01*
X123193055Y-45115179D01*
X123393014Y-45154953D01*
X123596892Y-45154953D01*
X123796851Y-45115179D01*
X123941198Y-45055388D01*
X123961895Y-45105356D01*
X124075163Y-45274874D01*
X124119101Y-45318812D01*
X124119100Y-46903798D01*
X122618861Y-48404038D01*
X122589863Y-48427836D01*
X122566065Y-48456834D01*
X122566064Y-48456835D01*
X122494889Y-48543561D01*
X122424317Y-48675591D01*
X122404035Y-48742454D01*
X122380861Y-48818851D01*
X122369864Y-48930504D01*
X122366767Y-48961946D01*
X122274359Y-48935361D01*
X122149713Y-48924894D01*
X121659650Y-48927900D01*
X121500900Y-49086650D01*
X121500900Y-49237900D01*
X121246900Y-49237900D01*
X121246900Y-49086650D01*
X121088150Y-48927900D01*
X121003600Y-48927381D01*
X121003600Y-46660801D01*
X122787845Y-44876556D01*
X122835179Y-44923890D01*
%TA.AperFunction,Conductor*%
D18*
G36*
X122835179Y-44923890D02*
G01*
X123004697Y-45037158D01*
X123193055Y-45115179D01*
X123393014Y-45154953D01*
X123596892Y-45154953D01*
X123796851Y-45115179D01*
X123941198Y-45055388D01*
X123961895Y-45105356D01*
X124075163Y-45274874D01*
X124119101Y-45318812D01*
X124119100Y-46903798D01*
X122618861Y-48404038D01*
X122589863Y-48427836D01*
X122566065Y-48456834D01*
X122566064Y-48456835D01*
X122494889Y-48543561D01*
X122424317Y-48675591D01*
X122404035Y-48742454D01*
X122380861Y-48818851D01*
X122369864Y-48930504D01*
X122366767Y-48961946D01*
X122274359Y-48935361D01*
X122149713Y-48924894D01*
X121659650Y-48927900D01*
X121500900Y-49086650D01*
X121500900Y-49237900D01*
X121246900Y-49237900D01*
X121246900Y-49086650D01*
X121088150Y-48927900D01*
X121003600Y-48927381D01*
X121003600Y-46660801D01*
X122787845Y-44876556D01*
X122835179Y-44923890D01*
G37*
%TD.AperFunction*%
D17*
X82011915Y-41678885D02*
X82108606Y-41758237D01*
X82218920Y-41817202D01*
X82294400Y-41840099D01*
X80262299Y-43872200D01*
X80200161Y-43872200D01*
X80000202Y-43911974D01*
X79811844Y-43989995D01*
X79642326Y-44103263D01*
X79498163Y-44247426D01*
X79384895Y-44416944D01*
X79306874Y-44605302D01*
X79267100Y-44805261D01*
X79267100Y-45009139D01*
X79306874Y-45209098D01*
X79384895Y-45397456D01*
X79498163Y-45566974D01*
X79642326Y-45711137D01*
X79811844Y-45824405D01*
X80000202Y-45902426D01*
X80200161Y-45942200D01*
X80404039Y-45942200D01*
X80426283Y-45937775D01*
X78638762Y-47725297D01*
X78609764Y-47749095D01*
X78585966Y-47778093D01*
X78585965Y-47778094D01*
X78514790Y-47864820D01*
X78444218Y-47996850D01*
X78416326Y-48088801D01*
X78400762Y-48140110D01*
X78391022Y-48238997D01*
X78386088Y-48289096D01*
X78389765Y-48326428D01*
X78389764Y-48926437D01*
X78294259Y-48898961D01*
X78169613Y-48888494D01*
X77679550Y-48891500D01*
X77520800Y-49050250D01*
X77520800Y-49199800D01*
X77266800Y-49199800D01*
X77266800Y-49050250D01*
X77108050Y-48891500D01*
X77043799Y-48891106D01*
X77043799Y-46616802D01*
X81998303Y-41662299D01*
X82011915Y-41678885D01*
%TA.AperFunction,Conductor*%
D18*
G36*
X82011915Y-41678885D02*
G01*
X82108606Y-41758237D01*
X82218920Y-41817202D01*
X82294400Y-41840099D01*
X80262299Y-43872200D01*
X80200161Y-43872200D01*
X80000202Y-43911974D01*
X79811844Y-43989995D01*
X79642326Y-44103263D01*
X79498163Y-44247426D01*
X79384895Y-44416944D01*
X79306874Y-44605302D01*
X79267100Y-44805261D01*
X79267100Y-45009139D01*
X79306874Y-45209098D01*
X79384895Y-45397456D01*
X79498163Y-45566974D01*
X79642326Y-45711137D01*
X79811844Y-45824405D01*
X80000202Y-45902426D01*
X80200161Y-45942200D01*
X80404039Y-45942200D01*
X80426283Y-45937775D01*
X78638762Y-47725297D01*
X78609764Y-47749095D01*
X78585966Y-47778093D01*
X78585965Y-47778094D01*
X78514790Y-47864820D01*
X78444218Y-47996850D01*
X78416326Y-48088801D01*
X78400762Y-48140110D01*
X78391022Y-48238997D01*
X78386088Y-48289096D01*
X78389765Y-48326428D01*
X78389764Y-48926437D01*
X78294259Y-48898961D01*
X78169613Y-48888494D01*
X77679550Y-48891500D01*
X77520800Y-49050250D01*
X77520800Y-49199800D01*
X77266800Y-49199800D01*
X77266800Y-49050250D01*
X77108050Y-48891500D01*
X77043799Y-48891106D01*
X77043799Y-46616802D01*
X81998303Y-41662299D01*
X82011915Y-41678885D01*
G37*
%TD.AperFunction*%
D17*
X96214128Y-41226000D02*
X96226388Y-41350482D01*
X96262698Y-41470180D01*
X96312516Y-41563382D01*
X94702199Y-43173700D01*
X94640061Y-43173700D01*
X94440102Y-43213474D01*
X94251744Y-43291495D01*
X94082226Y-43404763D01*
X93938063Y-43548926D01*
X93824795Y-43718444D01*
X93746774Y-43906802D01*
X93707000Y-44106761D01*
X93707000Y-44310639D01*
X93746774Y-44510598D01*
X93824795Y-44698956D01*
X93938063Y-44868474D01*
X94082226Y-45012637D01*
X94251744Y-45125905D01*
X94440102Y-45203926D01*
X94640061Y-45243700D01*
X94843939Y-45243700D01*
X95043898Y-45203926D01*
X95232256Y-45125905D01*
X95401774Y-45012637D01*
X95545937Y-44868474D01*
X95659205Y-44698956D01*
X95737226Y-44510598D01*
X95777000Y-44310639D01*
X95777000Y-44248501D01*
X98148203Y-41877299D01*
X98164320Y-41864072D01*
X98267990Y-41864072D01*
X98267989Y-42126187D01*
X97458480Y-42935697D01*
X97429482Y-42959495D01*
X97405684Y-42988493D01*
X97405683Y-42988494D01*
X97334508Y-43075220D01*
X97263936Y-43207250D01*
X97242953Y-43276424D01*
X97220480Y-43350509D01*
X97210876Y-43448022D01*
X97205806Y-43499496D01*
X97209483Y-43536827D01*
X97209482Y-43899276D01*
X93243762Y-47864997D01*
X93214764Y-47888795D01*
X93190966Y-47917793D01*
X93190965Y-47917794D01*
X93119790Y-48004520D01*
X93049218Y-48136550D01*
X93020999Y-48229580D01*
X93005762Y-48279810D01*
X93000902Y-48329154D01*
X92991088Y-48428796D01*
X92994765Y-48466127D01*
X92994764Y-49030179D01*
X92927419Y-48976514D01*
X92816267Y-48919144D01*
X92696059Y-48884561D01*
X92571413Y-48874094D01*
X92081350Y-48877100D01*
X91922600Y-49035850D01*
X91922600Y-49182816D01*
X91668600Y-49182816D01*
X91668600Y-49035850D01*
X91509850Y-48877100D01*
X91445599Y-48876706D01*
X91445599Y-45366802D01*
X95681402Y-41131000D01*
X96214128Y-41131000D01*
X96214128Y-41226000D01*
%TA.AperFunction,Conductor*%
D18*
G36*
X96214128Y-41226000D02*
G01*
X96226388Y-41350482D01*
X96262698Y-41470180D01*
X96312516Y-41563382D01*
X94702199Y-43173700D01*
X94640061Y-43173700D01*
X94440102Y-43213474D01*
X94251744Y-43291495D01*
X94082226Y-43404763D01*
X93938063Y-43548926D01*
X93824795Y-43718444D01*
X93746774Y-43906802D01*
X93707000Y-44106761D01*
X93707000Y-44310639D01*
X93746774Y-44510598D01*
X93824795Y-44698956D01*
X93938063Y-44868474D01*
X94082226Y-45012637D01*
X94251744Y-45125905D01*
X94440102Y-45203926D01*
X94640061Y-45243700D01*
X94843939Y-45243700D01*
X95043898Y-45203926D01*
X95232256Y-45125905D01*
X95401774Y-45012637D01*
X95545937Y-44868474D01*
X95659205Y-44698956D01*
X95737226Y-44510598D01*
X95777000Y-44310639D01*
X95777000Y-44248501D01*
X98148203Y-41877299D01*
X98164320Y-41864072D01*
X98267990Y-41864072D01*
X98267989Y-42126187D01*
X97458480Y-42935697D01*
X97429482Y-42959495D01*
X97405684Y-42988493D01*
X97405683Y-42988494D01*
X97334508Y-43075220D01*
X97263936Y-43207250D01*
X97242953Y-43276424D01*
X97220480Y-43350509D01*
X97210876Y-43448022D01*
X97205806Y-43499496D01*
X97209483Y-43536827D01*
X97209482Y-43899276D01*
X93243762Y-47864997D01*
X93214764Y-47888795D01*
X93190966Y-47917793D01*
X93190965Y-47917794D01*
X93119790Y-48004520D01*
X93049218Y-48136550D01*
X93020999Y-48229580D01*
X93005762Y-48279810D01*
X93000902Y-48329154D01*
X92991088Y-48428796D01*
X92994765Y-48466127D01*
X92994764Y-49030179D01*
X92927419Y-48976514D01*
X92816267Y-48919144D01*
X92696059Y-48884561D01*
X92571413Y-48874094D01*
X92081350Y-48877100D01*
X91922600Y-49035850D01*
X91922600Y-49182816D01*
X91668600Y-49182816D01*
X91668600Y-49035850D01*
X91509850Y-48877100D01*
X91445599Y-48876706D01*
X91445599Y-45366802D01*
X95681402Y-41131000D01*
X96214128Y-41131000D01*
X96214128Y-41226000D01*
G37*
%TD.AperFunction*%
D17*
X127851799Y-42528488D02*
X127664588Y-42715699D01*
X127635590Y-42739497D01*
X127611792Y-42768495D01*
X127611791Y-42768496D01*
X127540616Y-42855222D01*
X127470044Y-42987252D01*
X127443360Y-43075220D01*
X127426588Y-43130512D01*
X127417361Y-43224199D01*
X127411914Y-43279498D01*
X127415591Y-43316830D01*
X127415590Y-44356608D01*
X126944086Y-44828113D01*
X126915084Y-44851914D01*
X126852522Y-44928146D01*
X125639100Y-46141568D01*
X125639100Y-45318811D01*
X125683037Y-45274874D01*
X125796305Y-45105356D01*
X125874326Y-44916998D01*
X125914100Y-44717039D01*
X125914100Y-44513161D01*
X125874326Y-44313202D01*
X125796305Y-44124844D01*
X125683037Y-43955326D01*
X125538874Y-43811163D01*
X125369356Y-43697895D01*
X125180998Y-43619874D01*
X125088277Y-43601431D01*
X126774836Y-41914872D01*
X127851799Y-41914872D01*
X127851799Y-42528488D01*
%TA.AperFunction,Conductor*%
D18*
G36*
X127851799Y-42528488D02*
G01*
X127664588Y-42715699D01*
X127635590Y-42739497D01*
X127611792Y-42768495D01*
X127611791Y-42768496D01*
X127540616Y-42855222D01*
X127470044Y-42987252D01*
X127443360Y-43075220D01*
X127426588Y-43130512D01*
X127417361Y-43224199D01*
X127411914Y-43279498D01*
X127415591Y-43316830D01*
X127415590Y-44356608D01*
X126944086Y-44828113D01*
X126915084Y-44851914D01*
X126852522Y-44928146D01*
X125639100Y-46141568D01*
X125639100Y-45318811D01*
X125683037Y-45274874D01*
X125796305Y-45105356D01*
X125874326Y-44916998D01*
X125914100Y-44717039D01*
X125914100Y-44513161D01*
X125874326Y-44313202D01*
X125796305Y-44124844D01*
X125683037Y-43955326D01*
X125538874Y-43811163D01*
X125369356Y-43697895D01*
X125180998Y-43619874D01*
X125088277Y-43601431D01*
X126774836Y-41914872D01*
X127851799Y-41914872D01*
X127851799Y-42528488D01*
G37*
%TD.AperFunction*%
D17*
X103209480Y-44965940D02*
X103322748Y-45135458D01*
X103466911Y-45279621D01*
X103573517Y-45350852D01*
X103421282Y-45503087D01*
X103392278Y-45526890D01*
X103338842Y-45592002D01*
X103297305Y-45642615D01*
X103260679Y-45711137D01*
X103226733Y-45774645D01*
X103183276Y-45917906D01*
X103173901Y-46013091D01*
X103173901Y-44880045D01*
X103209480Y-44965940D01*
%TA.AperFunction,Conductor*%
D18*
G36*
X103209480Y-44965940D02*
G01*
X103322748Y-45135458D01*
X103466911Y-45279621D01*
X103573517Y-45350852D01*
X103421282Y-45503087D01*
X103392278Y-45526890D01*
X103338842Y-45592002D01*
X103297305Y-45642615D01*
X103260679Y-45711137D01*
X103226733Y-45774645D01*
X103183276Y-45917906D01*
X103173901Y-46013091D01*
X103173901Y-44880045D01*
X103209480Y-44965940D01*
G37*
%TD.AperFunction*%
D17*
X82961346Y-43354856D02*
X82965023Y-43392185D01*
X82965023Y-43399035D01*
X81332675Y-45031383D01*
X81337100Y-45009139D01*
X81337100Y-44947001D01*
X82964853Y-43319249D01*
X82961346Y-43354856D01*
%TA.AperFunction,Conductor*%
D18*
G36*
X82961346Y-43354856D02*
G01*
X82965023Y-43392185D01*
X82965023Y-43399035D01*
X81332675Y-45031383D01*
X81337100Y-45009139D01*
X81337100Y-44947001D01*
X82964853Y-43319249D01*
X82961346Y-43354856D01*
G37*
%TD.AperFunction*%
D17*
X110407500Y-34442739D02*
X110447274Y-34642698D01*
X110525295Y-34831056D01*
X110638563Y-35000574D01*
X110782726Y-35144737D01*
X110952244Y-35258005D01*
X111140602Y-35336026D01*
X111340561Y-35375800D01*
X111544439Y-35375800D01*
X111744398Y-35336026D01*
X111809189Y-35309188D01*
X112178729Y-35678728D01*
X111736600Y-35678728D01*
X111612118Y-35690988D01*
X111492420Y-35727298D01*
X111382106Y-35786263D01*
X111285415Y-35865615D01*
X111206063Y-35962306D01*
X111147098Y-36072620D01*
X111110788Y-36192318D01*
X111098528Y-36316800D01*
X111098528Y-36411800D01*
X110242515Y-36411800D01*
X110075357Y-36300109D01*
X109886999Y-36222088D01*
X109687040Y-36182314D01*
X109483162Y-36182314D01*
X109283203Y-36222088D01*
X109094845Y-36300109D01*
X108925327Y-36413377D01*
X108781164Y-36557540D01*
X108667896Y-36727058D01*
X108589875Y-36915416D01*
X108550101Y-37115375D01*
X108550101Y-37319253D01*
X108589875Y-37519212D01*
X108667896Y-37707570D01*
X108669579Y-37710089D01*
X108629206Y-37770511D01*
X108551185Y-37958869D01*
X108511411Y-38158828D01*
X108511411Y-38362706D01*
X108551185Y-38562665D01*
X108629206Y-38751023D01*
X108645223Y-38774994D01*
X108635545Y-38789477D01*
X108557524Y-38977835D01*
X108517750Y-39177794D01*
X108517750Y-39381672D01*
X108557524Y-39581631D01*
X108635545Y-39769989D01*
X108650475Y-39792333D01*
X108635335Y-39814992D01*
X108557314Y-40003350D01*
X108517540Y-40203309D01*
X108517540Y-40407187D01*
X108557314Y-40607146D01*
X108635335Y-40795504D01*
X108650500Y-40818201D01*
X108636542Y-40839091D01*
X108558521Y-41027449D01*
X108518747Y-41227408D01*
X108518747Y-41431286D01*
X108558521Y-41631245D01*
X108636542Y-41819603D01*
X108749810Y-41989121D01*
X108797144Y-42036455D01*
X107541600Y-43291999D01*
X107541600Y-41914872D01*
X107566600Y-41914872D01*
X107691082Y-41902612D01*
X107810780Y-41866302D01*
X107921094Y-41807337D01*
X108017785Y-41727985D01*
X108097137Y-41631294D01*
X108156102Y-41520980D01*
X108192412Y-41401282D01*
X108204672Y-41276800D01*
X108204672Y-40866800D01*
X108192853Y-40746800D01*
X108204672Y-40626800D01*
X108204672Y-40216800D01*
X108192853Y-40096800D01*
X108204672Y-39976800D01*
X108204672Y-39566800D01*
X108192853Y-39446800D01*
X108204672Y-39326800D01*
X108204672Y-38916800D01*
X108192853Y-38796800D01*
X108204672Y-38676800D01*
X108204672Y-38266800D01*
X108192853Y-38146800D01*
X108204672Y-38026800D01*
X108204672Y-37616800D01*
X108192853Y-37496800D01*
X108204672Y-37376800D01*
X108204672Y-36966800D01*
X108192456Y-36842768D01*
X108201600Y-36758550D01*
X108145115Y-36702065D01*
X108097137Y-36612306D01*
X108017785Y-36515615D01*
X107930278Y-36443800D01*
X108042850Y-36443800D01*
X108201600Y-36285050D01*
X108190555Y-36183321D01*
X108152525Y-36064158D01*
X108091979Y-35954704D01*
X108011242Y-35859166D01*
X107913419Y-35781214D01*
X107802267Y-35723844D01*
X107682059Y-35689261D01*
X107557413Y-35678794D01*
X107067350Y-35681800D01*
X106908600Y-35840550D01*
X106908600Y-35991800D01*
X106654600Y-35991800D01*
X106654600Y-35840550D01*
X106495850Y-35681800D01*
X106005787Y-35678794D01*
X105881141Y-35689261D01*
X105760933Y-35723844D01*
X105649781Y-35781214D01*
X105551958Y-35859166D01*
X105532176Y-35882575D01*
X105150657Y-35501056D01*
X105226943Y-35386886D01*
X105304964Y-35198528D01*
X105344738Y-34998569D01*
X105344738Y-34794691D01*
X105304964Y-34594732D01*
X105226943Y-34406374D01*
X105172570Y-34324999D01*
X110407500Y-34324999D01*
X110407500Y-34442739D01*
%TA.AperFunction,Conductor*%
D18*
G36*
X110407500Y-34442739D02*
G01*
X110447274Y-34642698D01*
X110525295Y-34831056D01*
X110638563Y-35000574D01*
X110782726Y-35144737D01*
X110952244Y-35258005D01*
X111140602Y-35336026D01*
X111340561Y-35375800D01*
X111544439Y-35375800D01*
X111744398Y-35336026D01*
X111809189Y-35309188D01*
X112178729Y-35678728D01*
X111736600Y-35678728D01*
X111612118Y-35690988D01*
X111492420Y-35727298D01*
X111382106Y-35786263D01*
X111285415Y-35865615D01*
X111206063Y-35962306D01*
X111147098Y-36072620D01*
X111110788Y-36192318D01*
X111098528Y-36316800D01*
X111098528Y-36411800D01*
X110242515Y-36411800D01*
X110075357Y-36300109D01*
X109886999Y-36222088D01*
X109687040Y-36182314D01*
X109483162Y-36182314D01*
X109283203Y-36222088D01*
X109094845Y-36300109D01*
X108925327Y-36413377D01*
X108781164Y-36557540D01*
X108667896Y-36727058D01*
X108589875Y-36915416D01*
X108550101Y-37115375D01*
X108550101Y-37319253D01*
X108589875Y-37519212D01*
X108667896Y-37707570D01*
X108669579Y-37710089D01*
X108629206Y-37770511D01*
X108551185Y-37958869D01*
X108511411Y-38158828D01*
X108511411Y-38362706D01*
X108551185Y-38562665D01*
X108629206Y-38751023D01*
X108645223Y-38774994D01*
X108635545Y-38789477D01*
X108557524Y-38977835D01*
X108517750Y-39177794D01*
X108517750Y-39381672D01*
X108557524Y-39581631D01*
X108635545Y-39769989D01*
X108650475Y-39792333D01*
X108635335Y-39814992D01*
X108557314Y-40003350D01*
X108517540Y-40203309D01*
X108517540Y-40407187D01*
X108557314Y-40607146D01*
X108635335Y-40795504D01*
X108650500Y-40818201D01*
X108636542Y-40839091D01*
X108558521Y-41027449D01*
X108518747Y-41227408D01*
X108518747Y-41431286D01*
X108558521Y-41631245D01*
X108636542Y-41819603D01*
X108749810Y-41989121D01*
X108797144Y-42036455D01*
X107541600Y-43291999D01*
X107541600Y-41914872D01*
X107566600Y-41914872D01*
X107691082Y-41902612D01*
X107810780Y-41866302D01*
X107921094Y-41807337D01*
X108017785Y-41727985D01*
X108097137Y-41631294D01*
X108156102Y-41520980D01*
X108192412Y-41401282D01*
X108204672Y-41276800D01*
X108204672Y-40866800D01*
X108192853Y-40746800D01*
X108204672Y-40626800D01*
X108204672Y-40216800D01*
X108192853Y-40096800D01*
X108204672Y-39976800D01*
X108204672Y-39566800D01*
X108192853Y-39446800D01*
X108204672Y-39326800D01*
X108204672Y-38916800D01*
X108192853Y-38796800D01*
X108204672Y-38676800D01*
X108204672Y-38266800D01*
X108192853Y-38146800D01*
X108204672Y-38026800D01*
X108204672Y-37616800D01*
X108192853Y-37496800D01*
X108204672Y-37376800D01*
X108204672Y-36966800D01*
X108192456Y-36842768D01*
X108201600Y-36758550D01*
X108145115Y-36702065D01*
X108097137Y-36612306D01*
X108017785Y-36515615D01*
X107930278Y-36443800D01*
X108042850Y-36443800D01*
X108201600Y-36285050D01*
X108190555Y-36183321D01*
X108152525Y-36064158D01*
X108091979Y-35954704D01*
X108011242Y-35859166D01*
X107913419Y-35781214D01*
X107802267Y-35723844D01*
X107682059Y-35689261D01*
X107557413Y-35678794D01*
X107067350Y-35681800D01*
X106908600Y-35840550D01*
X106908600Y-35991800D01*
X106654600Y-35991800D01*
X106654600Y-35840550D01*
X106495850Y-35681800D01*
X106005787Y-35678794D01*
X105881141Y-35689261D01*
X105760933Y-35723844D01*
X105649781Y-35781214D01*
X105551958Y-35859166D01*
X105532176Y-35882575D01*
X105150657Y-35501056D01*
X105226943Y-35386886D01*
X105304964Y-35198528D01*
X105344738Y-34998569D01*
X105344738Y-34794691D01*
X105304964Y-34594732D01*
X105226943Y-34406374D01*
X105172570Y-34324999D01*
X110407500Y-34324999D01*
X110407500Y-34442739D01*
G37*
%TD.AperFunction*%
%TD*%
M02*
